SplineFontDB: 3.2
FontName: Inconsolata-ExtraCondensed
FullName: Inconsolata Extra Condensed
FamilyName: Inconsolata Extra Condensed
Weight: Book
Copyright: Copyright 2006 The Inconsolata Project Authors (https://github.com/cyrealtype/Inconsolata)
Version: 3.000; ttfautohint (v1.8.3)
ItalicAngle: 0
UnderlinePosition: -297
UnderlineWidth: 102
Ascent: 1802
Descent: 246
InvalidEm: 0
sfntRevision: 0x00030000
LayerCount: 2
Layer: 0 1 "Back" 1
Layer: 1 1 "Fore" 0
XUID: [1021 574 1207189599 4510]
StyleMap: 0x0040
FSType: 0
OS2Version: 4
OS2_WeightWidthSlopeOnly: 0
OS2_UseTypoMetrics: 1
CreationTime: 1576097233
ModificationTime: 1732392375
PfmFamily: 81
TTFWeight: 400
TTFWidth: 2
LineGap: 0
VLineGap: 0
Panose: 0 0 0 0 0 0 0 0 0 0
OS2TypoAscent: 1759
OS2TypoAOffset: 0
OS2TypoDescent: -389
OS2TypoDOffset: 0
OS2TypoLinegap: 0
OS2WinAscent: 2056
OS2WinAOffset: 0
OS2WinDescent: 930
OS2WinDOffset: 0
HheadAscent: 1759
HheadAOffset: 0
HheadDescent: -389
HheadDOffset: 0
OS2SubXSize: 1331
OS2SubYSize: 1229
OS2SubXOff: 0
OS2SubYOff: 154
OS2SupXSize: 1331
OS2SupYSize: 1229
OS2SupXOff: 0
OS2SupYOff: 717
OS2StrikeYSize: 102
OS2StrikeYPos: 561
OS2CapHeight: 1276
OS2XHeight: 936
OS2Vendor: 'CYRE'
OS2CodePages: 60000193.cdd40000
OS2UnicodeRanges: a00000ff.0000f9eb.00000020.00000000
Lookup: 1 0 0 "'aalt' Access All Alternates in Latin lookup 0" { "'aalt' Access All Alternates in Latin lookup 0 subtable"  } ['aalt' ('DFLT' <'dflt' > 'latn' <'AZE ' 'CAT ' 'CRT ' 'KAZ ' 'MOL ' 'ROM ' 'TAT ' 'TRK ' 'dflt' > ) ]
Lookup: 3 0 0 "'aalt' Access All Alternates in Latin lookup 1" { "'aalt' Access All Alternates in Latin lookup 1 subtable"  } ['aalt' ('DFLT' <'dflt' > 'latn' <'AZE ' 'CAT ' 'CRT ' 'KAZ ' 'MOL ' 'ROM ' 'TAT ' 'TRK ' 'dflt' > ) ]

StartChar: A
Encoding: 65 65 1
Width: 739
VWidth: 2441
GlyphClass: 2
Flags: HW
AnchorPoint: "Anchor-3" 607 0 basechar 0
AnchorPoint: "Anchor-2" 365 0 basechar 0
AnchorPoint: "Anchor-0" 365 1521 basechar 0
LayerCount: 2
Fore
SplineSet
365 1109 m 1,0,-1
 256 576 l 1,1,-1
 474 576 l 1,2,-1
 365 1109 l 1,0,-1
589 0 m 1,3,-1
 499 445 l 1,4,-1
 230 445 l 1,5,-1
 138 0 l 1,6,-1
 14 0 l 1,7,-1
 347 1547 l 1,8,-1
 385 1547 l 1,9,-1
 718 0 l 1,10,-1
 589 0 l 1,3,-1
EndSplineSet
Substitution2: "Single Substitution lookup 29 subtable" ordfeminine
Substitution2: "'aalt' Access All Alternates in Latin lookup 0 subtable" ordfeminine
EndChar

StartChar: AE
Encoding: 198 198 26
Width: 704
VWidth: 2441
GlyphClass: 1
Flags: HW
LayerCount: 2
Fore
SplineSet
214 550 m 1,0,-1
 356 550 l 1,1,-1
 377 1374 l 1,2,-1
 362 1374 l 1,3,-1
 214 550 l 1,0,-1
-4 0 m 1,4,-1
 283 1523 l 1,5,-1
 700 1523 l 1,6,-1
 700 1382 l 1,7,-1
 478 1382 l 1,8,-1
 478 867 l 1,9,-1
 662 867 l 1,10,-1
 662 720 l 1,11,-1
 478 720 l 1,12,-1
 478 142 l 1,13,-1
 696 142 l 1,14,-1
 696 0 l 1,15,-1
 356 0 l 1,16,-1
 356 417 l 1,17,-1
 192 417 l 1,18,-1
 115 0 l 1,19,-1
 -4 0 l 1,4,-1
EndSplineSet
EndChar

StartChar: B
Encoding: 66 66 28
Width: 761
VWidth: 2441
GlyphClass: 2
Flags: HW
AnchorPoint: "Anchor-2" 375 0 basechar 0
AnchorPoint: "Anchor-0" 375 1521 basechar 0
LayerCount: 2
Fore
SplineSet
173 142 m 1,0,-1
 351 142 l 2,1,2
 456 142 456 142 519.5 210 c 128,-1,3
 583 278 583 278 583 437 c 0,4,5
 583 574 583 574 521 662 c 128,-1,6
 459 750 459 750 324 750 c 2,7,-1
 173 750 l 1,8,-1
 173 142 l 1,0,-1
173 888 m 1,9,-1
 317 888 l 2,10,11
 452 888 452 888 499.5 958 c 128,-1,12
 547 1028 547 1028 547 1132 c 0,13,14
 547 1232 547 1232 499.5 1307 c 128,-1,15
 452 1382 452 1382 335 1382 c 2,16,-1
 173 1382 l 1,17,-1
 173 888 l 1,9,-1
32 0 m 1,18,-1
 32 1521 l 1,19,-1
 335 1521 l 2,20,21
 498 1521 498 1521 591.5 1433 c 128,-1,22
 685 1345 685 1345 685 1153 c 0,23,24
 685 1011 685 1011 646.5 931.5 c 128,-1,25
 608 852 608 852 527 815 c 1,26,27
 615 776 615 776 672 676 c 128,-1,28
 729 576 729 576 729 427 c 0,29,30
 729 220 729 220 634.5 110 c 128,-1,31
 540 0 540 0 332 0 c 2,32,-1
 32 0 l 1,18,-1
EndSplineSet
EndChar

StartChar: C
Encoding: 67 67 29
Width: 768
VWidth: 2441
GlyphClass: 2
Flags: HW
AnchorPoint: "Anchor-2" 426 0 basechar 0
AnchorPoint: "Anchor-0" 410 1521 basechar 0
LayerCount: 2
Fore
SplineSet
434 -24 m 0,0,1
 324 -24 324 -24 233.5 51 c 128,-1,2
 143 126 143 126 88.5 297 c 128,-1,3
 34 468 34 468 32 752 c 0,4,5
 32 987 32 987 67.5 1139 c 128,-1,6
 103 1291 103 1291 161.5 1378 c 128,-1,7
 220 1465 220 1465 290.5 1499 c 128,-1,8
 361 1533 361 1533 432 1533 c 0,9,10
 542 1533 542 1533 620 1466.5 c 128,-1,11
 698 1400 698 1400 736 1274 c 1,12,-1
 635 1197 l 1,13,-1
 616 1179 l 1,14,-1
 607 1193 l 1,15,16
 609 1212 609 1212 608 1233.5 c 128,-1,17
 607 1255 607 1255 591 1291 c 1,18,19
 553 1352 553 1352 511.5 1373 c 128,-1,20
 470 1394 470 1394 426 1394 c 0,21,22
 309 1394 309 1394 238.5 1239 c 128,-1,23
 168 1084 168 1084 168 764 c 0,24,25
 168 454 168 454 245.5 286.5 c 128,-1,26
 323 119 323 119 434 119 c 0,27,28
 559 119 559 119 628 284 c 1,29,-1
 722 186 l 1,30,31
 670 79 670 79 602.5 27.5 c 128,-1,32
 535 -24 535 -24 434 -24 c 0,0,1
EndSplineSet
EndChar

StartChar: D
Encoding: 68 68 36
Width: 763
VWidth: 2441
GlyphClass: 2
Flags: HW
AnchorPoint: "Anchor-4" 368 762 basechar 0
AnchorPoint: "Anchor-2" 368 0 basechar 0
AnchorPoint: "Anchor-0" 317 1521 basechar 0
LayerCount: 2
Fore
SplineSet
176 135 m 1,0,-1
 256 135 l 2,1,2
 426 135 426 135 508.5 296 c 0,3,4
 589.047337278 453.189349112 589.047337278 453.189349112 589.047337278 729.531564021 c 0,5,6
 589.047337278 736.230769231 589.047337278 736.230769231 589 743 c 0,7,8
 589 936 589 936 558.5 1078.5 c 128,-1,9
 528 1221 528 1221 459.5 1301.5 c 128,-1,10
 391 1382 391 1382 276 1382 c 2,11,-1
 176 1382 l 1,12,-1
 176 135 l 1,0,-1
32 -2 m 1,13,-1
 32 1521 l 1,14,-1
 284 1521 l 2,15,16
 421 1521 421 1521 500 1471 c 128,-1,17
 579 1421 579 1421 630 1321 c 128,-1,18
 681 1221 681 1221 706 1084.5 c 128,-1,19
 731 948 731 948 731 752 c 0,20,21
 726 398 726 398 618 198 c 128,-1,22
 510 -2 510 -2 261 -2 c 2,23,-1
 32 -2 l 1,13,-1
EndSplineSet
EndChar

StartChar: Eth
Encoding: 208 208 37
Width: 768
VWidth: 2441
GlyphClass: 1
Flags: HW
LayerCount: 2
Fore
SplineSet
234 137 m 1,0,-1
 308 137 l 2,1,2
 460 137 460 137 534 298 c 128,-1,3
 608 459 608 459 608 747 c 0,4,5
 608 1040 608 1040 538.5 1209.5 c 128,-1,6
 469 1379 469 1379 326 1379 c 2,7,-1
 234 1379 l 1,8,-1
 234 876 l 1,9,-1
 380 876 l 1,10,-1
 380 734 l 1,11,-1
 234 734 l 1,12,-1
 234 137 l 1,0,-1
105 -2 m 1,13,-1
 105 734 l 1,14,-1
 32 734 l 1,15,-1
 32 876 l 1,16,-1
 105 876 l 1,17,-1
 105 1521 l 1,18,-1
 332 1521 l 2,19,20
 430 1521 430 1521 496.5 1479.5 c 128,-1,21
 563 1438 563 1438 604 1373.5 c 128,-1,22
 645 1309 645 1309 671 1237 c 0,23,24
 691 1179 691 1179 713.5 1062 c 128,-1,25
 736 945 736 945 736 755 c 0,26,27
 736 364 736 364 624 181 c 128,-1,28
 512 -2 512 -2 312 -2 c 2,29,-1
 105 -2 l 1,13,-1
EndSplineSet
EndChar

StartChar: E
Encoding: 69 69 42
Width: 723
VWidth: 2441
GlyphClass: 2
Flags: HW
AnchorPoint: "Anchor-3" 703 24 basechar 0
AnchorPoint: "Anchor-2" 361 0 basechar 0
AnchorPoint: "Anchor-0" 381 1521 basechar 0
LayerCount: 2
Fore
SplineSet
32 0 m 1,0,-1
 32 1523 l 1,1,-1
 691 1523 l 1,2,-1
 691 1382 l 1,3,-1
 171 1382 l 1,4,-1
 171 867 l 1,5,-1
 596 867 l 1,6,-1
 596 720 l 1,7,-1
 171 720 l 1,8,-1
 171 142 l 1,9,-1
 686 142 l 1,10,-1
 686 0 l 1,11,-1
 32 0 l 1,0,-1
EndSplineSet
EndChar

StartChar: uni01B8
Encoding: 440 440 65
Width: 684
VWidth: 2441
GlyphClass: 1
Flags: HW
LayerCount: 2
Fore
SplineSet
377 -27 m 0,0,1
 209 -27 209 -27 120.5 96 c 128,-1,2
 32 219 32 219 32 420 c 0,3,4
 32 630 32 630 122.5 761 c 128,-1,5
 213 892 213 892 357 906 c 1,6,-1
 69 1377 l 1,7,-1
 69 1521 l 1,8,-1
 589 1521 l 1,9,-1
 589 1377 l 1,10,-1
 216 1377 l 1,11,-1
 496 908 l 1,12,-1
 496 781 l 1,13,14
 474.794117647 782.441176471 474.794117647 782.441176471 454.987024221 782.441176471 c 0,15,16
 378.588235294 782.441176471 378.588235294 782.441176471 323 761 c 0,17,18
 253 734 253 734 214.5 656 c 128,-1,19
 176 578 176 578 176 432 c 0,20,21
 176 115 176 115 388 114 c 0,22,23
 434 114 434 114 465 129 c 128,-1,24
 496 144 496 144 523 175 c 1,25,26
 544 210 544 210 549.5 227 c 128,-1,27
 555 244 555 244 552 263 c 1,28,-1
 562 278 l 1,29,-1
 582 266 l 1,30,-1
 652 130 l 1,31,32
 596 44 596 44 527 8.5 c 128,-1,33
 458 -27 458 -27 377 -27 c 0,0,1
EndSplineSet
EndChar

StartChar: F
Encoding: 70 70 66
Width: 677
VWidth: 2441
GlyphClass: 2
Flags: HW
AnchorPoint: "Anchor-2" 324 0 basechar 0
AnchorPoint: "Anchor-0" 324 1521 basechar 0
LayerCount: 2
Fore
SplineSet
32 0 m 1,0,-1
 32 1523 l 1,1,-1
 645 1523 l 1,2,-1
 645 1382 l 1,3,-1
 173 1382 l 1,4,-1
 173 892 l 1,5,-1
 549 892 l 1,6,-1
 549 752 l 1,7,-1
 173 752 l 1,8,-1
 173 0 l 1,9,-1
 32 0 l 1,0,-1
EndSplineSet
EndChar

StartChar: G
Encoding: 71 71 67
Width: 768
VWidth: 2441
GlyphClass: 2
Flags: HW
AnchorPoint: "Anchor-2" 414 0 basechar 0
AnchorPoint: "Anchor-0" 428 1521 basechar 0
LayerCount: 2
Fore
SplineSet
433 -24 m 0,0,1
 248 -24 248 -24 140 172 c 128,-1,2
 32 368 32 368 32 743 c 0,3,4
 31.8974358974 755.923076923 31.8974358974 755.923076923 31.8974358974 768.593688363 c 0,5,6
 31.8974358974 1003 31.8974358974 1003 67 1151 c 0,7,8
 104 1307 104 1307 165.5 1392 c 128,-1,9
 227 1477 227 1477 297 1507.5 c 128,-1,10
 367 1538 367 1538 428 1538 c 0,11,12
 532 1538 532 1538 614.5 1471 c 128,-1,13
 697 1404 697 1404 734 1302 c 1,14,-1
 647 1218 l 1,15,-1
 627 1199 l 1,16,-1
 618 1211 l 1,17,18
 616 1232 616 1232 613.5 1252 c 128,-1,19
 611 1272 611 1272 587 1307 c 0,20,21
 553 1351 553 1351 515.5 1372.5 c 128,-1,22
 478 1394 478 1394 426 1394 c 0,23,24
 355 1394 355 1394 296.5 1337.5 c 128,-1,25
 238 1281 238 1281 204 1147 c 128,-1,26
 170 1013 170 1013 170 778 c 0,27,28
 170 461 170 461 241 289 c 128,-1,29
 312 117 312 117 428 117 c 0,30,31
 471 117 471 117 518.5 135.5 c 128,-1,32
 566 154 566 154 602 196 c 1,33,-1
 602 587 l 1,34,-1
 426 587 l 1,35,-1
 426 725 l 1,36,-1
 736 725 l 1,37,-1
 736 126 l 1,38,39
 663 47 663 47 587.5 11.5 c 128,-1,40
 512 -24 512 -24 433 -24 c 0,0,1
EndSplineSet
EndChar

StartChar: H
Encoding: 72 72 74
Width: 747
VWidth: 2441
GlyphClass: 2
Flags: HW
AnchorPoint: "Anchor-4" 557 762 basechar 0
AnchorPoint: "Anchor-2" 557 0 basechar 0
AnchorPoint: "Anchor-0" 557 1521 basechar 0
LayerCount: 2
Fore
SplineSet
32 1521 m 1,0,-1
 193 1521 l 1,1,-1
 193 1504 l 1,2,3
 183 1490 183 1490 181 1473 c 128,-1,4
 179 1456 179 1456 179 1414 c 2,5,-1
 179 869 l 1,6,-1
 552 869 l 1,7,-1
 552 1521 l 1,8,-1
 715 1521 l 1,9,-1
 715 1504 l 1,10,11
 703 1490 703 1490 700.5 1473 c 128,-1,12
 698 1456 698 1456 698 1414 c 2,13,-1
 698 0 l 1,14,-1
 549 0 l 1,15,-1
 549 727 l 1,16,-1
 179 727 l 1,17,-1
 179 0 l 1,18,-1
 32 0 l 1,19,-1
 32 1521 l 1,0,-1
EndSplineSet
EndChar

StartChar: Hbar
Encoding: 294 294 75
Width: 717
VWidth: 2441
GlyphClass: 2
Flags: HW
AnchorPoint: "Anchor-4" 510 762 basechar 0
AnchorPoint: "Anchor-2" 510 0 basechar 0
AnchorPoint: "Anchor-0" 510 1521 basechar 0
LayerCount: 2
Fore
SplineSet
185 869 m 1,0,-1
 506 869 l 1,1,-1
 506 1214 l 1,2,-1
 185 1214 l 1,3,-1
 185 869 l 1,0,-1
-4 1214 m 1,4,-1
 -4 1351 l 1,5,-1
 59 1351 l 1,6,-1
 59 1521 l 1,7,-1
 198 1521 l 1,8,-1
 198 1504 l 1,9,10
 190 1490 190 1490 187.5 1473 c 128,-1,11
 185 1456 185 1456 185 1414 c 2,12,-1
 185 1351 l 1,13,-1
 506 1351 l 1,14,-1
 506 1521 l 1,15,-1
 646 1521 l 1,16,-1
 646 1504 l 1,17,18
 636 1490 636 1490 633.5 1473 c 128,-1,19
 631 1456 631 1456 631 1414 c 2,20,-1
 631 1351 l 1,21,-1
 700 1351 l 1,22,-1
 700 1214 l 1,23,-1
 631 1214 l 1,24,-1
 631 0 l 1,25,-1
 504 0 l 1,26,-1
 504 727 l 1,27,-1
 185 727 l 1,28,-1
 185 0 l 1,29,-1
 59 0 l 1,30,-1
 59 1214 l 1,31,-1
 -4 1214 l 1,4,-1
EndSplineSet
EndChar

StartChar: I
Encoding: 73 73 79
Width: 614
VWidth: 2441
GlyphClass: 2
Flags: HW
AnchorPoint: "Anchor-3" 496 0 basechar 0
AnchorPoint: "Anchor-2" 322 0 basechar 0
AnchorPoint: "Anchor-0" 303 1521 basechar 0
LayerCount: 2
Fore
SplineSet
32 0 m 1,0,-1
 32 139 l 1,1,-1
 232 139 l 1,2,-1
 232 1382 l 1,3,-1
 39 1382 l 1,4,-1
 39 1521 l 1,5,-1
 571 1521 l 1,6,-1
 571 1382 l 1,7,-1
 373 1382 l 1,8,-1
 373 137 l 1,9,-1
 582 137 l 1,10,-1
 582 0 l 1,11,-1
 32 0 l 1,0,-1
EndSplineSet
EndChar

StartChar: J
Encoding: 74 74 94
Width: 767
VWidth: 2441
GlyphClass: 2
Flags: HW
AnchorPoint: "Anchor-2" 377 0 basechar 0
AnchorPoint: "Anchor-0" 514 1521 basechar 0
LayerCount: 2
Fore
SplineSet
284 -27 m 0,0,1
 128 -27 128 -27 32 114 c 1,2,-1
 104 263 l 1,3,-1
 113 286 l 1,4,-1
 127 278 l 1,5,6
 134 259 134 259 137 234.5 c 128,-1,7
 140 210 140 210 164 179 c 1,8,9
 220 121 220 121 284 119 c 0,10,11
 357 119 357 119 396 207.5 c 128,-1,12
 435 296 435 296 435 508 c 2,13,-1
 435 1382 l 1,14,-1
 235 1382 l 1,15,-1
 235 1521 l 1,16,-1
 735 1521 l 1,17,-1
 735 1382 l 1,18,-1
 577 1382 l 1,19,-1
 577 510 l 2,20,21
 577.098765432 499.975308642 577.098765432 499.975308642 577.098765432 490.156683432 c 0,22,23
 577.098765432 301.148148148 577.098765432 301.148148148 540.5 188.5 c 0,24,25
 502 70 502 70 433.5 21.5 c 128,-1,26
 365 -27 365 -27 284 -27 c 0,0,1
EndSplineSet
EndChar

StartChar: K
Encoding: 75 75 96
Width: 768
VWidth: 2441
GlyphClass: 1
Flags: HW
LayerCount: 2
Fore
SplineSet
248 740 m 1,0,-1
 173 610 l 1,1,-1
 173 0 l 1,2,-1
 32 0 l 1,3,-1
 32 1521 l 1,4,-1
 195 1521 l 1,5,-1
 195 1504 l 1,6,7
 181 1490 181 1490 177 1473 c 128,-1,8
 173 1456 173 1456 173 1414 c 2,9,-1
 173 825 l 1,10,-1
 564 1533 l 1,11,12
 580 1528 580 1528 611 1524.5 c 128,-1,13
 642 1521 642 1521 667 1521 c 2,14,-1
 710 1521 l 1,15,-1
 347 852 l 1,16,-1
 736 0 l 1,17,-1
 575 -10 l 1,18,-1
 248 740 l 1,0,-1
EndSplineSet
EndChar

StartChar: uni0198
Encoding: 408 408 98
Width: 768
VWidth: 2441
GlyphClass: 1
Flags: HW
LayerCount: 2
Fore
SplineSet
32 1521 m 1,0,-1
 194 1521 l 1,1,-1
 194 1504 l 1,2,3
 180 1490 180 1490 176 1473 c 128,-1,4
 172 1456 172 1456 172 1414 c 2,5,-1
 172 825 l 1,6,7
 277 1100 277 1100 364.5 1253.5 c 128,-1,8
 452 1407 452 1407 527 1469 c 128,-1,9
 602 1531 602 1531 671 1531 c 0,10,11
 707 1531 707 1531 729 1521 c 1,12,-1
 727 1345 l 1,13,-1
 727 1321 l 1,14,-1
 718 1321 l 1,15,16
 707 1335 707 1335 695.5 1345 c 128,-1,17
 684 1355 684 1355 656 1358 c 2,18,-1
 649 1358 l 2,19,20
 633 1358 633 1358 608.5 1342 c 128,-1,21
 584 1326 584 1326 547 1279.5 c 128,-1,22
 510 1233 510 1233 457.5 1140.5 c 128,-1,23
 405 1048 405 1048 330 894 c 1,24,-1
 736 0 l 1,25,-1
 574 -10 l 1,26,-1
 252 725 l 1,27,28
 214 644 214 644 172 552 c 1,29,-1
 172 0 l 1,30,-1
 32 0 l 1,31,-1
 32 1521 l 1,0,-1
EndSplineSet
EndChar

StartChar: L
Encoding: 76 76 99
Width: 714
VWidth: 2441
GlyphClass: 2
Flags: HW
AnchorPoint: "Anchor-4" 108 762 basechar 0
AnchorPoint: "Anchor-2" 351 0 basechar 0
AnchorPoint: "Anchor-1" 232 1116 basechar 0
AnchorPoint: "Anchor-0" 267 1521 basechar 0
LayerCount: 2
Fore
SplineSet
32 1521 m 1,0,-1
 200 1521 l 1,1,-1
 200 1504 l 1,2,3
 186 1490 186 1490 182.5 1473 c 128,-1,4
 179 1456 179 1456 179 1414 c 2,5,-1
 179 149 l 1,6,-1
 682 149 l 1,7,-1
 682 0 l 1,8,-1
 32 0 l 1,9,-1
 32 1521 l 1,0,-1
EndSplineSet
EndChar

StartChar: uni01C7
Encoding: 455 455 100
Width: 690
VWidth: 2380
GlyphClass: 1
Flags: HW
LayerCount: 2
Fore
SplineSet
32 98 m 1
 32 1521 l 1
 187 1521 l 1
 186 1506 186 1506 182 1502 c 0
 178 1498 178 1498 174 1489 c 0
 170 1480 170 1480 169 1443 c 2
 169 231 l 1
 413 231 l 1
 413 230 413 230 413 98 c 1
 32 98 l 1
395 -246 m 0
 249 -246 249 -246 147 -119 c 1
 235 12 l 1
 251 -4 251 -4 249 -18 c 0
 247 -32 247 -32 272 -59 c 0
 285 -76 285 -76 313 -90 c 0
 341 -104 341 -104 387 -104 c 0
 455 -104 455 -104 490 -24 c 0
 525 56 525 56 525 253 c 2
 525 1391 l 1
 341 1391 l 1
 341 1521 l 1
 657 1521 l 1
 657 256 l 1
 657.243243243 241.081081081 657.243243243 241.081081081 657.243243243 226.648648649 c 0,0,0
 657.243243243 63.0810810811 657.243243243 63.0810810811 626 -38 c 0
 592 -148 592 -148 530 -197 c 0
 468 -246 468 -246 395 -246 c 0
EndSplineSet
EndChar

StartChar: Lcaron
Encoding: 317 317 102
Width: 714
VWidth: 2441
GlyphClass: 2
Flags: HW
AnchorPoint: "Anchor-4" 108 762 basechar 0
AnchorPoint: "Anchor-2" 351 0 basechar 0
AnchorPoint: "Anchor-1" 232 1116 basechar 0
AnchorPoint: "Anchor-0" 267 1521 basechar 0
LayerCount: 2
Fore
SplineSet
503 1011 m 1,0,-1
 449 1060 l 1,1,2
 488 1111 488 1111 512.5 1163.5 c 128,-1,3
 537 1216 537 1216 537 1250 c 0,4,5
 537 1277 537 1277 520 1299 c 128,-1,6
 503 1321 503 1321 486 1344 c 128,-1,7
 469 1367 469 1367 469 1402 c 0,8,9
 469 1451 469 1451 495 1480 c 128,-1,10
 521 1509 521 1509 557 1509 c 0,11,12
 592 1509 592 1509 622 1473.5 c 128,-1,13
 652 1438 652 1438 652 1367 c 0,14,15
 652 1288 652 1288 612.5 1203 c 128,-1,16
 573 1118 573 1118 503 1011 c 1,0,-1
32 1521 m 1,17,-1
 200 1521 l 1,18,-1
 200 1504 l 1,19,20
 186 1490 186 1490 182.5 1473 c 128,-1,21
 179 1456 179 1456 179 1414 c 2,22,-1
 179 149 l 1,23,-1
 682 149 l 1,24,-1
 682 0 l 1,25,-1
 32 0 l 1,26,-1
 32 1521 l 1,17,-1
EndSplineSet
EndChar

StartChar: uni01C8
Encoding: 456 456 106
Width: 660
VWidth: 2363
GlyphClass: 1
Flags: HW
LayerCount: 2
Fore
SplineSet
319 -246 m 0,0,1
 241 -246 241 -246 185.5 -208.5 c 128,-1,2
 130 -171 130 -171 87 -110 c 1,3,-1
 174 34 l 1,4,5
 185 19 185 19 187 1 c 128,-1,6
 189 -17 189 -17 200.5 -38 c 128,-1,7
 212 -59 212 -59 252 -89 c 0,8,9
 272 -104 272 -104 289 -106 c 128,-1,10
 306 -108 306 -108 327 -108 c 0,11,12
 369 -108 369 -108 407.5 -87 c 128,-1,13
 446 -66 446 -66 469.5 -4 c 128,-1,14
 493 58 493 58 493 181 c 2,15,-1
 493 1032 l 1,16,-1
 274 1032 l 1,17,-1
 274 1157 l 1,18,-1
 617 1157 l 1,19,-1
 617 190 l 2,20,21
 617 33 617 33 577 -62 c 128,-1,22
 537 -157 537 -157 470.5 -200.5 c 128,-1,23
 404 -244 404 -244 319 -246 c 0,0,1
32 141 m 1,24,-1
 32 1527 l 1,25,-1
 179 1527 l 1,26,27
 179 1505 179 1505 172.5 1488 c 128,-1,28
 166 1471 166 1471 166 1450 c 2,29,-1
 166 276 l 1,30,-1
 406 276 l 1,31,-1
 403 141 l 1,32,-1
 32 141 l 1,24,-1
537 1384 m 0,33,34
 501 1384 501 1384 475.5 1413 c 128,-1,35
 450 1442 450 1442 450 1482 c 0,36,37
 450 1524 450 1524 475.5 1553 c 128,-1,38
 501 1582 501 1582 537 1582 c 0,39,40
 575 1582 575 1582 601.5 1552 c 128,-1,41
 628 1522 628 1522 628 1482 c 128,-1,42
 628 1442 628 1442 601.5 1413 c 128,-1,43
 575 1384 575 1384 537 1384 c 0,33,34
EndSplineSet
EndChar

StartChar: Lslash
Encoding: 321 321 108
Width: 768
VWidth: 2441
GlyphClass: 1
Flags: HW
LayerCount: 2
Fore
SplineSet
112 0 m 1,0,-1
 112 591 l 1,1,-1
 32 550 l 1,2,-1
 32 703 l 1,3,-1
 112 747 l 1,4,-1
 112 1521 l 1,5,-1
 265 1521 l 2,6,7
 272 1521 272 1521 273 1516 c 0,8,9
 273 1506 273 1506 264.5 1491.5 c 128,-1,10
 256 1477 256 1477 254 1438 c 2,11,-1
 254 803 l 1,12,-1
 513 935 l 2,13,14
 527 942 527 942 538 948.5 c 128,-1,15
 549 955 549 955 556 960 c 1,16,-1
 556 799 l 1,17,-1
 254 650 l 1,18,-1
 254 149 l 1,19,-1
 736 149 l 1,20,-1
 736 0 l 1,21,-1
 112 0 l 1,0,-1
EndSplineSet
EndChar

StartChar: M
Encoding: 77 77 109
Width: 768
VWidth: 2441
GlyphClass: 2
Flags: HW
AnchorPoint: "Anchor-2" 383 0 basechar 0
AnchorPoint: "Anchor-0" 383 1521 basechar 0
LayerCount: 2
Fore
SplineSet
32 0 m 1,0,-1
 32 1521 l 1,1,-1
 142 1521 l 1,2,-1
 383 820 l 1,3,-1
 628 1523 l 1,4,-1
 736 1523 l 1,5,-1
 736 0 l 1,6,-1
 607 0 l 1,7,-1
 607 1104 l 1,8,-1
 398 535 l 1,9,-1
 353 535 l 1,10,-1
 158 1097 l 1,11,-1
 158 0 l 1,12,-1
 32 0 l 1,0,-1
EndSplineSet
EndChar

StartChar: N
Encoding: 78 78 111
Width: 768
VWidth: 2441
GlyphClass: 2
Flags: HW
AnchorPoint: "Anchor-2" 374 0 basechar 0
AnchorPoint: "Anchor-0" 374 1521 basechar 0
LayerCount: 2
Fore
SplineSet
32 1521 m 1,0,-1
 165 1521 l 1,1,-1
 585 437 l 1,2,-1
 585 1521 l 1,3,-1
 736 1521 l 1,4,-1
 736 1504 l 1,5,6
 722 1490 722 1490 717.5 1473 c 128,-1,7
 713 1456 713 1456 713 1414 c 2,8,-1
 713 0 l 1,9,-1
 602 0 l 1,10,-1
 163 1153 l 1,11,-1
 163 0 l 1,12,-1
 32 0 l 1,13,-1
 32 1521 l 1,0,-1
EndSplineSet
EndChar

StartChar: Eng
Encoding: 330 330 117
Width: 691
VWidth: 2344
GlyphClass: 2
Flags: HW
AnchorPoint: "Anchor-2" 340 159 basechar 0
AnchorPoint: "Anchor-0" 340 1521 basechar 0
LayerCount: 2
Fore
SplineSet
533 1521 m 1,0,-1
 659 1521 l 1,1,2
 659 1508 659 1508 654.5 1497 c 128,-1,3
 650 1486 650 1486 650 1462 c 2,4,-1
 650 159 l 2,5,6
 650 -60 650 -60 583.5 -153 c 128,-1,7
 517 -246 517 -246 410 -246 c 0,8,9
 335 -246 335 -246 277 -192 c 1,10,-1
 329 -56 l 1,11,12
 342 -62 342 -62 349 -74 c 128,-1,13
 356 -86 356 -86 368.5 -97 c 128,-1,14
 381 -108 381 -108 414 -108 c 0,15,16
 484 -108 484 -108 507.5 -31.5 c 128,-1,17
 531 45 531 45 533 207 c 1,18,-1
 149 1191 l 1,19,-1
 149 159 l 1,20,-1
 32 159 l 1,21,-1
 32 1521 l 1,22,-1
 154 1521 l 1,23,-1
 533 551 l 1,24,-1
 533 1521 l 1,0,-1
EndSplineSet
EndChar

StartChar: O
Encoding: 79 79 120
Width: 768
VWidth: 2441
GlyphClass: 2
Flags: HW
AnchorPoint: "Anchor-4" 383 762 basechar 0
AnchorPoint: "Anchor-3" 443 24 basechar 0
AnchorPoint: "Anchor-2" 383 0 basechar 0
AnchorPoint: "Anchor-1" 587 1426 basechar 0
AnchorPoint: "Anchor-0" 383 1521 basechar 0
LayerCount: 2
Fore
SplineSet
383 114 m 0,0,1
 450 114 450 114 499.5 174.5 c 128,-1,2
 549 235 549 235 576 374 c 128,-1,3
 603 513 603 513 603 752 c 0,4,5
 603 1094 603 1094 543.5 1241.5 c 128,-1,6
 484 1389 484 1389 383 1389 c 0,7,8
 284 1389 284 1389 223.5 1241.5 c 128,-1,9
 163 1094 163 1094 163 752 c 0,10,11
 163 512 163 512 191 373.5 c 128,-1,12
 219 235 219 235 268.5 174.5 c 128,-1,13
 318 114 318 114 383 114 c 0,0,1
383 -27 m 128,-1,15
 213 -27 213 -27 122.5 154 c 128,-1,16
 32 335 32 335 32 752 c 0,17,18
 32 1157 32 1157 123.5 1344 c 128,-1,19
 215 1531 215 1531 383 1531 c 0,20,21
 553 1531 553 1531 644.5 1344.5 c 128,-1,22
 736 1158 736 1158 736 752 c 0,23,24
 736 335 736 335 644.5 154 c 128,-1,14
 553 -27 553 -27 383 -27 c 128,-1,15
EndSplineSet
Substitution2: "Single Substitution lookup 29 subtable" ordmasculine
Substitution2: "'aalt' Access All Alternates in Latin lookup 0 subtable" ordmasculine
EndChar

StartChar: Oslash
Encoding: 216 216 148
Width: 768
VWidth: 2441
GlyphClass: 2
Flags: HW
AnchorPoint: "Anchor-4" 383 762 basechar 0
AnchorPoint: "Anchor-3" 443 24 basechar 0
AnchorPoint: "Anchor-2" 383 0 basechar 0
AnchorPoint: "Anchor-1" 587 1426 basechar 0
AnchorPoint: "Anchor-0" 383 1521 basechar 0
LayerCount: 2
Fore
SplineSet
383 114 m 0,0,1
 450 114 450 114 499.5 174.5 c 128,-1,2
 549 235 549 235 576 374 c 128,-1,3
 603 513 603 513 603 752 c 0,4,5
 603 889 603 889 593 994 c 128,-1,6
 583 1099 583 1099 564 1174 c 1,7,-1
 241 212 l 1,8,9
 271 161 271 161 305.5 137.5 c 128,-1,10
 340 114 340 114 383 114 c 0,0,1
163 752 m 0,11,12
 163 626 163 626 171 527.5 c 128,-1,13
 179 429 179 429 194 359 c 1,14,-1
 512 1307 l 1,15,16
 462.595238095 1389.01190476 462.595238095 1389.01190476 384.876842404 1389.01190476 c 0,17,18
 383.94047619 1389.01190476 383.94047619 1389.01190476 383 1389 c 0,19,20
 284 1389 284 1389 223.5 1241.5 c 128,-1,21
 163 1094 163 1094 163 752 c 0,11,12
138 -103 m 1,22,-1
 54 -58 l 1,23,-1
 125 149 l 1,24,25
 80 244 80 244 56 393 c 128,-1,26
 32 542 32 542 32 752 c 0,27,28
 32 1157 32 1157 123.5 1344 c 128,-1,29
 215 1531 215 1531 383 1531 c 0,30,31
 489 1531 489 1531 564 1460 c 1,32,-1
 632 1665 l 1,33,-1
 713 1616 l 1,34,-1
 630 1372 l 1,35,36
 682 1277 682 1277 709 1123 c 128,-1,37
 736 969 736 969 736 752 c 0,38,39
 736 335 736 335 644.5 154 c 128,-1,40
 553 -27 553 -27 383 -27 c 0,41,42
 266 -27 266 -27 190 54 c 1,43,-1
 138 -103 l 1,22,-1
EndSplineSet
EndChar

StartChar: OE
Encoding: 338 338 154
Width: 729
VWidth: 2441
GlyphClass: 1
Flags: HW
LayerCount: 2
Fore
SplineSet
257 130 m 0,0,1
 293 130 293 130 317.5 182.5 c 128,-1,2
 342 235 342 235 350 315 c 1,3,-1
 350 1184 l 1,4,5
 338 1279 338 1279 313.5 1341.5 c 128,-1,6
 289 1404 289 1404 244 1404 c 0,7,8
 210 1404 210 1404 183.5 1346.5 c 128,-1,9
 157 1289 157 1289 140 1150 c 128,-1,10
 123 1011 123 1011 123 764 c 0,11,12
 123 464 123 464 156 297 c 128,-1,13
 189 130 189 130 257 130 c 0,0,1
236 -17 m 0,14,15
 166 -17 166 -17 114 54.5 c 128,-1,16
 62 126 62 126 33 296 c 128,-1,17
 4 466 4 466 4 762 c 0,18,19
 4 1184 4 1184 65.5 1363.5 c 128,-1,20
 127 1543 127 1543 238 1543 c 0,21,22
 270 1543 270 1543 298.5 1526 c 128,-1,23
 327 1509 327 1509 352 1458 c 1,24,-1
 352 1523 l 1,25,-1
 708 1523 l 1,26,-1
 708 1382 l 1,27,-1
 471 1382 l 1,28,-1
 471 867 l 1,29,-1
 675 867 l 1,30,-1
 675 720 l 1,31,-1
 471 720 l 1,32,-1
 471 142 l 1,33,-1
 704 142 l 1,34,-1
 704 0 l 1,35,-1
 350 0 l 1,36,-1
 350 70 l 1,37,38
 326 21 326 21 298 2 c 128,-1,39
 270 -17 270 -17 236 -17 c 0,14,15
EndSplineSet
EndChar

StartChar: P
Encoding: 80 80 155
Width: 754
VWidth: 2441
GlyphClass: 2
Flags: HW
AnchorPoint: "Anchor-2" 95 0 basechar 0
AnchorPoint: "Anchor-0" 363 1521 basechar 0
LayerCount: 2
Fore
SplineSet
179 813 m 1,0,-1
 359 813 l 2,1,2
 471 813 471 813 525 890 c 128,-1,3
 579 967 579 967 579 1091 c 0,4,5
 579 1226 579 1226 525.5 1300 c 128,-1,6
 472 1374 472 1374 361 1374 c 2,7,-1
 179 1374 l 1,8,-1
 179 813 l 1,0,-1
32 0 m 1,9,-1
 32 1521 l 1,10,-1
 363 1521 l 2,11,12
 549 1521 549 1521 635.5 1407 c 128,-1,13
 722 1293 722 1293 722 1097 c 0,14,15
 722 897 722 897 632 783 c 128,-1,16
 542 669 542 669 374 669 c 2,17,-1
 179 669 l 1,18,-1
 179 0 l 1,19,-1
 32 0 l 1,9,-1
EndSplineSet
EndChar

StartChar: Thorn
Encoding: 222 222 156
Width: 765
VWidth: 2441
GlyphClass: 1
Flags: HW
LayerCount: 2
Fore
SplineSet
174 527 m 1,0,-1
 379 527 l 2,1,2
 493 527 493 527 541 608 c 128,-1,3
 589 689 589 689 589 801 c 128,-1,4
 589 913 589 913 537.5 997 c 128,-1,5
 486 1081 486 1081 366 1081 c 2,6,-1
 174 1081 l 1,7,-1
 174 527 l 1,0,-1
32 0 m 1,8,-1
 32 1521 l 1,9,-1
 188 1521 l 2,10,11
 193 1519 193 1519 193 1514 c 0,12,13
 193 1507 193 1507 184.5 1491 c 128,-1,14
 176 1475 176 1475 174 1453 c 2,15,-1
 174 1228 l 1,16,-1
 384 1228 l 2,17,18
 503 1228 503 1228 580 1170.5 c 128,-1,19
 657 1113 657 1113 695 1018 c 128,-1,20
 733 923 733 923 733 806 c 0,21,22
 733 631 733 631 646 512 c 128,-1,23
 559 393 559 393 379 393 c 2,24,-1
 174 393 l 1,25,-1
 174 0 l 1,26,-1
 32 0 l 1,8,-1
EndSplineSet
EndChar

StartChar: Q
Encoding: 81 81 157
Width: 768
VWidth: 2389
GlyphClass: 2
Flags: HW
AnchorPoint: "Anchor-2" 385 85 basechar 0
AnchorPoint: "Anchor-0" 385 1522 basechar 0
LayerCount: 2
Fore
SplineSet
395 205 m 0,0,1
 452 205 452 205 500.5 260.5 c 128,-1,2
 549 316 549 316 579.5 438.5 c 128,-1,3
 610 561 610 561 610 763 c 0,4,5
 610 1012 610 1012 575 1151.5 c 128,-1,6
 540 1291 540 1291 489 1347.5 c 128,-1,7
 438 1404 438 1404 387 1404 c 0,8,9
 285 1404 285 1404 224.5 1255.5 c 128,-1,10
 164 1107 164 1107 164 831 c 0,11,12
 164 508 164 508 227 356.5 c 128,-1,13
 290 205 290 205 395 205 c 0,0,1
624 -245 m 1,14,15
 603.941176471 -246.423529412 603.941176471 -246.423529412 585.372871972 -246.423529412 c 0,16,17
 460.458823529 -246.423529412 460.458823529 -246.423529412 403 -182 c 0,18,19
 337 -108 337 -108 337 70 c 1,20,21
 252 93 252 93 183 171 c 128,-1,22
 114 249 114 249 73 401.5 c 128,-1,23
 32 554 32 554 32 796 c 0,24,25
 32 1016 32 1016 63.5 1158 c 128,-1,26
 95 1300 95 1300 146.5 1384.5 c 128,-1,27
 198 1469 198 1469 260.5 1503.5 c 128,-1,28
 323 1538 323 1538 385 1538 c 0,29,30
 478 1538 478 1538 559 1468.5 c 128,-1,31
 640 1399 640 1399 689 1238 c 0,32,33
 736.078431373 1083.31372549 736.078431373 1083.31372549 736.078431373 824.316416763 c 0,34,35
 736.078431373 813.745098039 736.078431373 813.745098039 736 803 c 0,36,37
 736 448 736 448 665.5 279.5 c 128,-1,38
 595 111 595 111 453 70 c 1,39,40
 457 -7 457 -7 476 -56.5 c 128,-1,41
 495 -106 495 -106 560 -106 c 2,42,-1
 690 -99 l 1,43,-1
 688 -245 l 1,44,-1
 624 -245 l 1,14,15
EndSplineSet
EndChar

StartChar: R
Encoding: 82 82 158
Width: 763
VWidth: 2441
GlyphClass: 2
Flags: HW
AnchorPoint: "Anchor-2" 363 0 basechar 0
AnchorPoint: "Anchor-0" 363 1521 basechar 0
LayerCount: 2
Fore
SplineSet
176 818 m 1,0,-1
 351 818 l 2,1,2
 451 818 451 818 504 890 c 128,-1,3
 557 962 557 962 557 1097 c 0,4,5
 557 1374.00358423 557 1374.00358423 352.474056089 1374.00358423 c 0,6,7
 351.738351254 1374.00358423 351.738351254 1374.00358423 351 1374 c 2,8,-1
 176 1374 l 1,9,-1
 176 818 l 1,0,-1
32 0 m 1,10,-1
 32 1521 l 1,11,-1
 337 1521 l 2,12,13
 525 1521 525 1521 613 1406 c 128,-1,14
 701 1291 701 1291 701 1097 c 0,15,16
 701 948 701 948 642.5 831.5 c 128,-1,17
 584 715 584 715 481 685 c 1,18,-1
 731 0 l 1,19,-1
 577 0 l 1,20,-1
 332 676 l 1,21,-1
 176 676 l 1,22,-1
 176 0 l 1,23,-1
 32 0 l 1,10,-1
EndSplineSet
EndChar

StartChar: S
Encoding: 83 83 166
Width: 752
VWidth: 2441
GlyphClass: 2
Flags: HW
AnchorPoint: "Anchor-2" 366 0 basechar 0
AnchorPoint: "Anchor-0" 388 1521 basechar 0
LayerCount: 2
Fore
SplineSet
366 -24 m 0,0,1
 154 -24 154 -24 32 154 c 1,2,-1
 95 322 l 1,3,-1
 100 347 l 1,4,-1
 117 340 l 1,5,6
 127 321 127 321 128.5 294.5 c 128,-1,7
 130 268 130 268 149 235 c 1,8,9
 191 184 191 184 247 151.5 c 128,-1,10
 303 119 303 119 375 119 c 0,11,12
 470 119 470 119 527 190 c 128,-1,13
 584 261 584 261 584 391 c 0,14,15
 584 454 584 454 569 504 c 128,-1,16
 554 554 554 554 506.5 604 c 128,-1,17
 459 654 459 654 359 715 c 1,18,19
 193 808 193 808 129 923.5 c 128,-1,20
 65 1039 65 1039 65 1165 c 0,21,22
 65 1356 65 1356 152 1448 c 128,-1,23
 239 1540 239 1540 391 1540 c 0,24,25
 575 1540 575 1540 686 1365 c 1,26,-1
 620 1223 l 1,27,-1
 608 1202 l 1,28,-1
 593 1209 l 1,29,30
 586 1228 586 1228 586 1252.5 c 128,-1,31
 586 1277 586 1277 564 1311 c 0,32,33
 525 1360 525 1360 481 1381 c 128,-1,34
 437 1402 437 1402 375 1402 c 0,35,36
 209.994011976 1402 209.994011976 1402 209.994011976 1179.68654308 c 0,37,38
 209.994011976 1079.01004443 209.994011976 1079.01004443 256.5 1001 c 128,-1,39
 303 923 303 923 454 837 c 0,40,41
 610 744 610 744 665 644.5 c 128,-1,42
 720 545 720 545 720 415 c 0,43,44
 720 296 720 296 683.5 195.5 c 128,-1,45
 647 95 647 95 568.5 35.5 c 128,-1,46
 490 -24 490 -24 366 -24 c 0,0,1
EndSplineSet
EndChar

StartChar: uni1E9E
Encoding: 7838 7838 177
Width: 768
VWidth: 2441
GlyphClass: 1
Flags: HW
LayerCount: 2
Fore
SplineSet
424 -24 m 0,0,1
 322 -24 322 -24 245 42 c 1,2,-1
 291 179 l 1,3,4
 349 121 349 121 414 119 c 0,5,6
 497 119 497 119 547.5 205 c 128,-1,7
 598 291 598 291 598 464 c 0,8,9
 598 557 598 557 579.5 631.5 c 128,-1,10
 561 706 561 706 510.5 749 c 128,-1,11
 460 792 460 792 358 792 c 2,12,-1
 307 792 l 1,13,-1
 307 925 l 1,14,-1
 530 1223 l 1,15,16
 530 1293 530 1293 515.5 1357 c 128,-1,17
 501 1421 501 1421 465 1461.5 c 128,-1,18
 429 1502 429 1502 363 1502 c 0,19,20
 285 1502 285 1502 229 1423.5 c 128,-1,21
 173 1345 173 1345 173 1160 c 2,22,-1
 173 0 l 1,23,-1
 32 0 l 1,24,-1
 32 1128 l 2,25,26
 32 1328 32 1328 79 1437.5 c 128,-1,27
 126 1547 126 1547 202.5 1590 c 128,-1,28
 279 1633 279 1633 363 1633 c 0,29,30
 515 1633 515 1633 591 1513.5 c 128,-1,31
 667 1394 667 1394 667 1204 c 1,32,-1
 438 920 l 1,33,34
 736 871 736 871 736 442 c 0,35,36
 736 195 736 195 648 85.5 c 128,-1,37
 560 -24 560 -24 424 -24 c 0,0,1
EndSplineSet
EndChar

StartChar: T
Encoding: 84 84 179
Width: 768
VWidth: 2441
GlyphClass: 2
Flags: HW
AnchorPoint: "Anchor-4" 379 762 basechar 0
AnchorPoint: "Anchor-2" 388 0 basechar 0
AnchorPoint: "Anchor-0" 388 1521 basechar 0
LayerCount: 2
Fore
SplineSet
310 0 m 1,0,-1
 310 1379 l 1,1,-1
 32 1379 l 1,2,-1
 32 1523 l 1,3,-1
 736 1523 l 1,4,-1
 736 1379 l 1,5,-1
 447 1379 l 1,6,-1
 447 0 l 1,7,-1
 310 0 l 1,0,-1
EndSplineSet
EndChar

StartChar: Tbar
Encoding: 358 358 180
Width: 768
VWidth: 2441
GlyphClass: 2
Flags: HW
AnchorPoint: "Anchor-4" 379 762 basechar 0
AnchorPoint: "Anchor-2" 388 0 basechar 0
AnchorPoint: "Anchor-0" 388 1521 basechar 0
LayerCount: 2
Fore
SplineSet
310 0 m 1,0,-1
 310 694 l 1,1,-1
 125 694 l 1,2,-1
 125 830 l 1,3,-1
 310 830 l 1,4,-1
 310 1379 l 1,5,-1
 32 1379 l 1,6,-1
 32 1523 l 1,7,-1
 736 1523 l 1,8,-1
 736 1379 l 1,9,-1
 447 1379 l 1,10,-1
 447 830 l 1,11,-1
 654 830 l 1,12,-1
 654 694 l 1,13,-1
 447 694 l 1,14,-1
 447 0 l 1,15,-1
 310 0 l 1,0,-1
EndSplineSet
EndChar

StartChar: U
Encoding: 85 85 186
Width: 754
VWidth: 2441
GlyphClass: 2
Flags: HW
AnchorPoint: "Anchor-3" 461 24 basechar 0
AnchorPoint: "Anchor-2" 373 0 basechar 0
AnchorPoint: "Anchor-1" 722 1521 basechar 0
AnchorPoint: "Anchor-0" 373 1521 basechar 0
LayerCount: 2
Fore
SplineSet
375 -27 m 0,0,1
 189 -27 189 -27 110.5 105 c 128,-1,2
 32 237 32 237 32 496 c 2,3,-1
 32 1521 l 1,4,-1
 195 1521 l 1,5,-1
 195 1504 l 1,6,7
 181 1490 181 1490 177 1473 c 128,-1,8
 173 1456 173 1456 173 1414 c 2,9,-1
 173 494 l 2,10,11
 173 306 173 306 218 208 c 128,-1,12
 263 110 263 110 375 110 c 0,13,14
 492 110 492 110 536 213.5 c 128,-1,15
 580 317 580 317 580 501 c 2,16,-1
 580 1521 l 1,17,-1
 722 1521 l 1,18,-1
 722 503 l 2,19,20
 722 217 722 217 632.5 95 c 128,-1,21
 543 -27 543 -27 375 -27 c 0,0,1
EndSplineSet
EndChar

StartChar: V
Encoding: 86 86 209
Width: 776
VWidth: 2441
GlyphClass: 2
Flags: HW
AnchorPoint: "Anchor-2" 382 0 basechar 0
AnchorPoint: "Anchor-0" 382 1521 basechar 0
LayerCount: 2
Fore
SplineSet
354 -10 m 1,0,-1
 32 1523 l 1,1,-1
 165 1523 l 1,2,-1
 394 412 l 1,3,-1
 609 1521 l 1,4,-1
 736 1521 l 1,5,-1
 420 -10 l 1,6,-1
 354 -10 l 1,0,-1
EndSplineSet
EndChar

StartChar: W
Encoding: 87 87 210
Width: 729
VWidth: 2441
GlyphClass: 2
Flags: HW
AnchorPoint: "Anchor-2" 365 0 basechar 0
AnchorPoint: "Anchor-0" 375 1521 basechar 0
LayerCount: 2
Fore
SplineSet
159 0 m 1,0,-1
 10 1521 l 1,1,-1
 123 1521 l 1,2,-1
 210 566 l 1,3,-1
 351 1409 l 1,4,-1
 396 1409 l 1,5,-1
 535 564 l 1,6,-1
 610 1521 l 1,7,-1
 714 1521 l 1,8,-1
 567 0 l 1,9,-1
 516 0 l 1,10,-1
 367 950 l 1,11,-1
 214 0 l 1,12,-1
 159 0 l 1,0,-1
EndSplineSet
EndChar

StartChar: X
Encoding: 88 88 215
Width: 768
VWidth: 2441
GlyphClass: 2
Flags: HW
AnchorPoint: "Anchor-2" 378 0 basechar 0
AnchorPoint: "Anchor-0" 378 1521 basechar 0
LayerCount: 2
Fore
SplineSet
32 0 m 1,0,-1
 301 776 l 1,1,-1
 37 1523 l 1,2,-1
 178 1523 l 1,3,-1
 378 974 l 1,4,-1
 575 1523 l 1,5,-1
 705 1523 l 1,6,-1
 456 778 l 1,7,-1
 736 0 l 1,8,-1
 592 0 l 1,9,-1
 378 573 l 1,10,-1
 171 0 l 1,11,-1
 32 0 l 1,0,-1
EndSplineSet
EndChar

StartChar: Y
Encoding: 89 89 216
Width: 768
VWidth: 2441
GlyphClass: 2
Flags: HW
AnchorPoint: "Anchor-2" 397 0 basechar 0
AnchorPoint: "Anchor-0" 382 1521 basechar 0
LayerCount: 2
Fore
SplineSet
326 0 m 1,0,-1
 326 587 l 1,1,-1
 32 1521 l 1,2,-1
 175 1521 l 1,3,-1
 399 811 l 1,4,-1
 602 1521 l 1,5,-1
 736 1521 l 1,6,-1
 464 587 l 1,7,-1
 464 0 l 1,8,-1
 326 0 l 1,0,-1
EndSplineSet
EndChar

StartChar: Z
Encoding: 90 90 226
Width: 768
VWidth: 2441
GlyphClass: 2
Flags: HW
AnchorPoint: "Anchor-2" 407 0 basechar 0
AnchorPoint: "Anchor-0" 390 1521 basechar 0
LayerCount: 2
Fore
SplineSet
32 114 m 1,0,-1
 553 1377 l 1,1,-1
 51 1377 l 1,2,-1
 51 1521 l 1,3,-1
 709 1521 l 1,4,-1
 709 1407 l 1,5,-1
 197 142 l 1,6,-1
 628 142 l 2,7,8
 670 142 670 142 687 146.5 c 128,-1,9
 704 151 704 151 718 166 c 1,10,-1
 736 166 l 1,11,-1
 736 0 l 1,12,-1
 32 0 l 1,13,-1
 32 114 l 1,0,-1
EndSplineSet
EndChar

StartChar: a
Encoding: 97 97 232
Width: 742
VWidth: 2441
GlyphClass: 2
Flags: HW
AnchorPoint: "Anchor-3" 629 0 basechar 0
AnchorPoint: "Anchor-2" 354 0 basechar 0
AnchorPoint: "Anchor-0" 375 1104 basechar 0
LayerCount: 2
Fore
SplineSet
166 296 m 0,0,1
 166 196 166 196 211 153 c 128,-1,2
 256 110 256 110 322 110 c 0,3,4
 439 110 439 110 508.5 217 c 128,-1,5
 578 324 578 324 583 527 c 1,6,7
 546 534 546 534 508.5 538 c 128,-1,8
 471 542 471 542 437 542 c 0,9,10
 313 542 313 542 239.5 487.5 c 128,-1,11
 166 433 166 433 166 296 c 0,0,1
310 -27 m 0,12,13
 175 -27 175 -27 103.5 64.5 c 128,-1,14
 32 156 32 156 32 291 c 0,15,16
 32 498 32 498 144 586 c 128,-1,17
 256 674 256 674 424 674 c 0,18,19
 492 674 492 674 583 659 c 1,20,21
 576 855 576 855 524.5 926 c 128,-1,22
 473 997 473 997 356 997 c 0,23,24
 246 997 246 997 151 894 c 1,25,-1
 88 1009 l 1,26,27
 201.142857143 1140.0075188 201.142857143 1140.0075188 363.536661202 1140.0075188 c 0,28,29
 364.766917293 1140.0075188 364.766917293 1140.0075188 366 1140 c 0,30,31
 478 1140 478 1140 555 1094 c 128,-1,32
 632 1048 632 1048 671 928 c 128,-1,33
 710 808 710 808 710 594 c 2,34,-1
 710 0 l 1,35,-1
 571 0 l 1,36,-1
 571 170 l 1,37,38
 525 48 525 48 451.5 10.5 c 128,-1,39
 378 -27 378 -27 310 -27 c 0,12,13
EndSplineSet
Substitution2: "Single Substitution lookup 29 subtable" ordfeminine
Substitution2: "'aalt' Access All Alternates in Latin lookup 0 subtable" ordfeminine
EndChar

StartChar: ae
Encoding: 230 230 257
Width: 697
VWidth: 2441
GlyphClass: 1
Flags: HW
LayerCount: 2
Fore
SplineSet
190 112 m 0,0,1
 236 112 236 112 255.5 171 c 128,-1,2
 275 230 275 230 279 325 c 128,-1,3
 283 420 283 420 283 532 c 1,4,5
 184 525 184 525 145.5 476 c 128,-1,6
 107 427 107 427 107 298 c 0,7,8
 107 195 107 195 127.5 153.5 c 128,-1,9
 148 112 148 112 190 112 c 0,0,1
395 678 m 1,10,-1
 576 691 l 1,11,12
 576 845 576 845 559 924.5 c 128,-1,13
 542 1004 542 1004 497 1004 c 0,14,15
 447 1004 447 1004 421 919 c 128,-1,16
 395 834 395 834 395 678 c 1,10,-1
179 -27 m 0,17,18
 78 -27 78 -27 33 68 c 128,-1,19
 -12 163 -12 163 -12 300 c 0,20,21
 -12 488 -12 488 58 572.5 c 128,-1,22
 128 657 128 657 283 674 c 1,23,24
 283 833 283 833 262 918.5 c 128,-1,25
 241 1004 241 1004 179 1004 c 0,26,27
 119 1004 119 1004 73 916 c 1,28,-1
 21 1020 l 1,29,30
 81 1139 81 1139 188 1140 c 0,31,32
 240 1140 240 1140 283 1100 c 128,-1,33
 326 1060 326 1060 348 999 c 1,34,35
 368 1060 368 1060 411.5 1100 c 128,-1,36
 455 1140 455 1140 499 1140 c 0,37,38
 598 1140 598 1140 641.5 1020.5 c 128,-1,39
 685 901 685 901 685 654 c 2,40,-1
 685 564 l 1,41,-1
 395 550 l 1,42,-1
 395 427 l 2,43,44
 395 285 395 285 429 195 c 128,-1,45
 463 105 463 105 530 105 c 0,46,47
 563 105 563 105 590 129.5 c 128,-1,48
 617 154 617 154 635 193 c 1,49,-1
 692 88 l 1,50,51
 663 34 663 34 620.5 3.5 c 128,-1,52
 578 -27 578 -27 526 -27 c 0,53,54
 470 -27 470 -27 418 13.5 c 128,-1,55
 366 54 366 54 341 122 c 1,56,57
 318 54 318 54 275.5 13.5 c 128,-1,58
 233 -27 233 -27 179 -27 c 0,17,18
EndSplineSet
EndChar

StartChar: b
Encoding: 98 98 259
Width: 760
VWidth: 2441
GlyphClass: 2
Flags: HW
AnchorPoint: "Anchor-2" 542 0 basechar 0
AnchorPoint: "Anchor-0" 542 1116 basechar 0
LayerCount: 2
Fore
SplineSet
379 124 m 0,0,1
 433 124 433 124 480.5 155 c 128,-1,2
 528 186 528 186 556 278.5 c 128,-1,3
 584 371 584 371 584 559 c 0,4,5
 584 729 584 729 559.5 824.5 c 128,-1,6
 535 920 535 920 489.5 958.5 c 128,-1,7
 444 997 444 997 386 997 c 0,8,9
 295 997 295 997 234.5 893 c 128,-1,10
 174 789 174 789 174 554 c 0,11,12
 174 337 174 337 221.5 230.5 c 128,-1,13
 269 124 269 124 379 124 c 0,0,1
398 -27 m 0,14,15
 328 -27 328 -27 265 19.5 c 128,-1,16
 202 66 202 66 171 147 c 1,17,-1
 139 0 l 1,18,-1
 32 0 l 1,19,-1
 32 1624 l 1,20,-1
 191 1624 l 1,21,-1
 191 1607 l 1,22,23
 181 1593 181 1593 177.5 1575.5 c 128,-1,24
 174 1558 174 1558 174 1516 c 2,25,-1
 174 945 l 1,26,27
 211 1045 211 1045 281 1093.5 c 128,-1,28
 351 1142 351 1142 412 1142 c 0,29,30
 507 1142 507 1142 578.5 1089.5 c 128,-1,31
 650 1037 650 1037 689 913 c 128,-1,32
 728 789 728 789 728 569 c 0,33,34
 728 343 728 343 679 213 c 128,-1,35
 630 83 630 83 554.5 28 c 128,-1,36
 479 -27 479 -27 398 -27 c 0,14,15
EndSplineSet
EndChar

StartChar: c
Encoding: 99 99 261
Width: 749
VWidth: 2441
GlyphClass: 2
Flags: HW
AnchorPoint: "Anchor-2" 428 0 basechar 0
AnchorPoint: "Anchor-0" 428 1116 basechar 0
LayerCount: 2
Fore
SplineSet
425 -27 m 0,0,1
 241 -27 241 -27 136.5 127 c 128,-1,2
 32 281 32 281 32 557 c 0,3,4
 32 757 32 757 85.5 886.5 c 128,-1,5
 139 1016 139 1016 228 1076.5 c 128,-1,6
 317 1137 317 1137 423 1137 c 0,7,8
 628 1137 628 1137 717 957 c 1,9,-1
 640 850 l 1,10,-1
 628 830 l 1,11,-1
 613 840 l 1,12,13
 611 859 611 859 606 881.5 c 128,-1,14
 601 904 601 904 577 935 c 1,15,16
 514 1001 514 1001 412 1001 c 0,17,18
 354 1001 354 1001 300.5 957 c 128,-1,19
 247 913 247 913 210.5 816.5 c 128,-1,20
 174 720 174 720 174 561 c 0,21,22
 174 331 174 331 244.5 222.5 c 128,-1,23
 315 114 315 114 430 114 c 0,24,25
 491 114 491 114 542 144.5 c 128,-1,26
 593 175 593 175 638 240 c 1,27,-1
 706 114 l 1,28,29
 650 41 650 41 578 7 c 128,-1,30
 506 -27 506 -27 425 -27 c 0,0,1
EndSplineSet
EndChar

StartChar: d
Encoding: 100 100 268
Width: 760
VWidth: 2441
GlyphClass: 2
Flags: HW
AnchorPoint: "Anchor-4" 574 1340 basechar 0
AnchorPoint: "Anchor-2" 386 0 basechar 0
AnchorPoint: "Anchor-1" 763 1116 basechar 0
AnchorPoint: "Anchor-0" 386 1116 basechar 0
LayerCount: 2
Fore
SplineSet
369 119 m 0,0,1
 467 119 467 119 516 227 c 128,-1,2
 565 335 565 335 565 564 c 0,3,4
 565 786 565 786 513.5 892.5 c 128,-1,5
 462 999 462 999 367 999 c 0,6,7
 267 999 267 999 217 909.5 c 128,-1,8
 167 820 167 820 167 596 c 0,9,10
 167 412 167 412 192.5 308.5 c 128,-1,11
 218 205 218 205 264.5 162 c 128,-1,12
 311 119 311 119 369 119 c 0,0,1
346 -24 m 0,13,14
 265 -24 265 -24 192.5 28.5 c 128,-1,15
 120 81 120 81 76 210.5 c 128,-1,16
 32 340 32 340 32 569 c 0,17,18
 32 793 32 793 77.5 919 c 128,-1,19
 123 1045 123 1045 197.5 1093.5 c 128,-1,20
 272 1142 272 1142 357 1142 c 0,21,22
 523 1142 523 1142 572 962 c 1,23,-1
 572 1624 l 1,24,-1
 728 1624 l 1,25,-1
 728 1607 l 1,26,27
 714 1593 714 1593 710.5 1575.5 c 128,-1,28
 707 1558 707 1558 707 1516 c 2,29,-1
 709 173 l 2,30,31
 709 129 709 129 710 86.5 c 128,-1,32
 711 44 711 44 726 0 c 1,33,-1
 589 0 l 1,34,35
 575 35 575 35 570 73.5 c 128,-1,36
 565 112 565 112 565 156 c 1,37,38
 533 77 533 77 477 26.5 c 128,-1,39
 421 -24 421 -24 346 -24 c 0,13,14
EndSplineSet
EndChar

StartChar: eth
Encoding: 240 240 269
Width: 768
VWidth: 2441
GlyphClass: 1
Flags: HW
LayerCount: 2
Fore
SplineSet
395 110 m 0,0,1
 452 110 452 110 498.5 148 c 128,-1,2
 545 186 545 186 574 285 c 128,-1,3
 603 384 603 384 603 566 c 0,4,5
 603 803 603 803 535.5 904.5 c 128,-1,6
 469.304347826 1004.03864734 469.304347826 1004.03864734 392.048845947 1004.03864734 c 0,0,0
 390.526570048 1004.03864734 390.526570048 1004.03864734 389 1004 c 0,7,8
 298 1004 298 1004 234.5 905 c 128,-1,9
 171 806 171 806 171 566 c 0,10,11
 171 322 171 322 235 216 c 128,-1,12
 299 110 299 110 395 110 c 0,0,1
395 -30 m 0,13,14
 299 -30 299 -30 216 31.5 c 128,-1,15
 133 93 133 93 82.5 220 c 128,-1,16
 32 347 32 347 32 545 c 0,17,18
 32 848 32 848 132.5 994 c 128,-1,19
 233 1140 233 1140 370 1140 c 0,20,21
 432 1140 432 1140 482.5 1117 c 128,-1,22
 533 1094 533 1094 571 1037 c 1,23,24
 548 1118 548 1118 514 1197.5 c 128,-1,25
 480 1277 480 1277 432 1347 c 1,26,-1
 233 1267 l 1,27,-1
 191 1377 l 1,28,-1
 361 1445 l 1,29,30
 325 1491 325 1491 283 1530.5 c 128,-1,31
 241 1570 241 1570 193 1601 c 1,32,-1
 342 1640 l 1,33,34
 381 1608 381 1608 416.5 1571.5 c 128,-1,35
 452 1535 452 1535 487 1489 c 1,36,-1
 662 1560 l 1,37,-1
 701 1453 l 1,38,-1
 555 1396 l 1,39,40
 649 1240 649 1240 692.5 1055.5 c 128,-1,41
 736 871 736 871 736 617 c 0,42,43
 736 268 736 268 649 119 c 128,-1,44
 562 -30 562 -30 395 -30 c 0,13,14
EndSplineSet
EndChar

StartChar: dcaron
Encoding: 271 271 270
Width: 790
VWidth: 2441
GlyphClass: 1
Flags: HW
LayerCount: 2
Fore
SplineSet
278 119 m 0,0,1
 338 119 338 119 375.5 218 c 128,-1,2
 413 317 413 317 413 564 c 0,3,4
 413 804 413 804 376.5 901.5 c 128,-1,5
 340 999 340 999 284 999 c 0,6,7
 237 999 237 999 205 964.5 c 128,-1,8
 173 930 173 930 159 843.5 c 128,-1,9
 145 757 145 757 145 596 c 0,10,11
 145 396 145 396 162.5 293.5 c 128,-1,12
 180 191 180 191 211 155 c 128,-1,13
 242 119 242 119 278 119 c 0,0,1
256 -24 m 0,14,15
 194 -24 194 -24 143 22 c 128,-1,16
 92 68 92 68 62 196 c 128,-1,17
 32 324 32 324 32 569 c 0,18,19
 32 804 32 804 62 928.5 c 128,-1,20
 92 1053 92 1053 145 1097.5 c 128,-1,21
 198 1142 198 1142 265 1142 c 0,22,23
 389 1142 389 1142 415 969 c 1,24,-1
 415 1624 l 1,25,-1
 552 1624 l 1,26,-1
 552 1607 l 1,27,28
 539 1593 539 1593 535.5 1575.5 c 128,-1,29
 532 1558 532 1558 532 1516 c 2,30,-1
 532 173 l 2,31,32
 532 129 532 129 533.5 86.5 c 128,-1,33
 535 44 535 44 545 0 c 1,34,-1
 432 0 l 1,35,36
 423 32 423 32 417 68.5 c 128,-1,37
 411 105 411 105 411 149 c 1,38,39
 389 76 389 76 349.5 26 c 128,-1,40
 310 -24 310 -24 256 -24 c 0,14,15
665 1631 m 0,41,42
 692 1631 692 1631 714 1597 c 128,-1,43
 736 1563 736 1563 736 1504 c 0,44,45
 736 1429 736 1429 706 1332 c 128,-1,46
 676 1235 676 1235 627 1140 c 1,47,-1
 573 1181 l 1,48,49
 598 1225 598 1225 620 1277.5 c 128,-1,50
 642 1330 642 1330 642 1382 c 0,51,52
 642 1406 642 1406 629 1424 c 128,-1,53
 616 1442 616 1442 603 1466.5 c 128,-1,54
 590 1491 590 1491 590 1533 c 128,-1,55
 590 1575 590 1575 610.5 1603 c 128,-1,56
 631 1631 631 1631 665 1631 c 0,41,42
EndSplineSet
EndChar

StartChar: e
Encoding: 101 101 274
Width: 742
VWidth: 2441
GlyphClass: 2
Flags: HW
AnchorPoint: "Anchor-3" 503 24 basechar 0
AnchorPoint: "Anchor-2" 440 0 basechar 0
AnchorPoint: "Anchor-0" 391 1116 basechar 0
LayerCount: 2
Fore
SplineSet
175 666 m 1,0,-1
 566 666 l 1,1,2
 566 1013 566 1013 382 1013 c 0,3,4
 296 1013 296 1013 244 938.5 c 128,-1,5
 192 864 192 864 175 666 c 1,0,-1
415 -24 m 0,6,7
 231 -24 231 -24 131.5 114 c 128,-1,8
 32 252 32 252 32 554 c 0,9,10
 32 859 32 859 129 1000.5 c 128,-1,11
 226 1142 226 1142 391 1142 c 0,12,13
 489 1142 489 1142 559 1092 c 128,-1,14
 629 1042 629 1042 669.5 926.5 c 128,-1,15
 710 811 710 811 710 613 c 0,16,17
 710 574 710 574 706 535 c 1,18,-1
 170 535 l 1,19,20
 175 298 175 298 240 205 c 128,-1,21
 305 112 305 112 417 112 c 0,22,23
 483 112 483 112 528 140 c 128,-1,24
 573 168 573 168 608 219 c 1,25,-1
 688 132 l 1,26,27
 639 59 639 59 571 17.5 c 128,-1,28
 503 -24 503 -24 415 -24 c 0,6,7
EndSplineSet
EndChar

StartChar: uni029A
Encoding: 666 666 296
Width: 765
VWidth: 2441
GlyphClass: 1
Flags: HW
LayerCount: 2
Fore
SplineSet
362 117 m 0,0,1
 472 117 472 117 530.5 218 c 128,-1,2
 589 319 589 319 589 561 c 0,3,4
 589 796 589 796 530.5 900 c 128,-1,5
 472 1004 472 1004 372 1004 c 0,6,7
 299 1004 299 1004 262 957.5 c 128,-1,8
 225 911 225 911 225 827 c 0,9,10
 225 759 225 759 259.5 714 c 128,-1,11
 294 669 294 669 372 669 c 0,12,13
 382 669 382 669 392 669 c 128,-1,14
 402 669 402 669 411 671 c 1,15,-1
 411 522 l 1,16,17
 394 524 394 524 380.5 526.5 c 128,-1,18
 367 529 367 529 350 529 c 0,19,20
 277 529 277 529 228 479 c 128,-1,21
 179 429 179 429 179 335 c 0,22,23
 179 230 179 230 229 173.5 c 128,-1,24
 279 117 279 117 362 117 c 0,0,1
362 -19 m 0,25,26
 215 -17 215 -17 123.5 84.5 c 128,-1,27
 32 186 32 186 32 349 c 0,28,29
 32 452 32 452 75 523 c 128,-1,30
 118 594 118 594 187 615 c 1,31,32
 80 701 80 701 78 840 c 0,33,34
 78 984 78 984 165.5 1062 c 128,-1,35
 253 1140 253 1140 374 1140 c 0,36,37
 549 1140 549 1140 641 994 c 128,-1,38
 733 848 733 848 733 559 c 0,39,40
 733 271 733 271 635 125 c 128,-1,41
 538.324324324 -19.027027027 538.324324324 -19.027027027 366.715668371 -19.027027027 c 0,0,0
 364.364864865 -19.027027027 364.364864865 -19.027027027 362 -19 c 0,25,26
EndSplineSet
EndChar

StartChar: f
Encoding: 102 102 300
Width: 768
VWidth: 2441
GlyphClass: 1
Flags: HW
LayerCount: 2
Fore
SplineSet
189 991 m 1,0,-1
 32 991 l 1,1,-1
 32 1116 l 1,2,-1
 189 1116 l 1,3,-1
 189 1209 l 2,4,5
 189 1433 189 1433 275.5 1535.5 c 128,-1,6
 362 1638 362 1638 484 1638 c 0,7,8
 555 1638 555 1638 625 1600.5 c 128,-1,9
 695 1563 695 1563 736 1484 c 1,10,-1
 664 1372 l 1,11,-1
 650 1351 l 1,12,-1
 636 1360 l 1,13,14
 634 1379 634 1379 631.5 1402.5 c 128,-1,15
 629 1426 629 1426 607 1458 c 1,16,17
 557 1512 557 1512 489 1512 c 0,18,19
 416 1512 416 1512 368 1439.5 c 128,-1,20
 320 1367 320 1367 320 1209 c 2,21,-1
 320 1116 l 1,22,-1
 562 1116 l 1,23,-1
 562 991 l 1,24,-1
 320 991 l 1,25,-1
 320 0 l 1,26,-1
 189 0 l 1,27,-1
 189 991 l 1,0,-1
EndSplineSet
EndChar

StartChar: g
Encoding: 103 103 301
Width: 762
VWidth: 2298
GlyphClass: 2
Flags: HW
AnchorPoint: "Anchor-2" 347 -225 basechar 0
AnchorPoint: "Anchor-0" 317 1120 basechar 0
LayerCount: 2
Fore
SplineSet
152 28 m 0,0,1
 152 -46 152 -46 205 -85.5 c 128,-1,2
 258 -125 258 -125 351 -125 c 0,3,4
 449 -125 449 -125 490.5 -82.5 c 128,-1,5
 532 -40 532 -40 532 30 c 0,6,7
 532 102 532 102 502.5 136.5 c 128,-1,8
 473 171 473 171 371 171 c 0,9,10
 271 171 271 171 206 194 c 1,11,12
 175 161 175 161 163.5 124.5 c 128,-1,13
 152 88 152 88 152 28 c 0,0,1
317 590 m 0,14,15
 384 590 384 590 417 651 c 128,-1,16
 450 712 450 712 450 812 c 128,-1,17
 450 912 450 912 417 972.5 c 128,-1,18
 384 1033 384 1033 317 1033 c 0,19,20
 252 1033 252 1033 218.5 972 c 128,-1,21
 185 911 185 911 185 812 c 0,22,23
 185 712 185 712 218.5 651 c 128,-1,24
 252 590 252 590 317 590 c 0,14,15
317 464 m 0,25,26
 263 464 263 464 218 488 c 1,27,28
 194 445 194 445 193 403 c 0,29,30
 193 351 193 351 233.5 327.5 c 128,-1,31
 274 304 274 304 395 304 c 0,32,33
 547 304 547 304 599.5 233 c 128,-1,34
 652 162 652 162 652 53 c 0,35,36
 652 -23 652 -23 622.5 -92 c 128,-1,37
 593 -161 593 -161 527 -203.5 c 128,-1,38
 461 -246 461 -246 349 -246 c 0,39,40
 204 -246 204 -246 118 -182 c 128,-1,41
 32 -118 32 -118 32 10 c 0,42,43
 32 91 32 91 63 147.5 c 128,-1,44
 94 204 94 204 139 231 c 1,45,46
 85 279 85 279 85 366 c 0,47,48
 85 414 85 414 103 458.5 c 128,-1,49
 121 503 121 503 150 546 c 1,50,51
 74 641 74 641 73 812 c 0,52,53
 73 966 73 966 138.5 1062 c 128,-1,54
 204 1158 204 1158 317 1158 c 0,55,56
 433 1158 433 1158 498 1058 c 1,57,58
 537 1108 537 1108 580 1130.5 c 0,59,60
 613.947368421 1148.26315789 613.947368421 1148.26315789 657.867036011 1148.26315789 c 0,61,62
 669.578947368 1148.26315789 669.578947368 1148.26315789 682 1147 c 1,63,-1
 697 1019 l 1,64,65
 678.6 1021.4 678.6 1021.4 661.16 1021.4 c 0,66,67
 635 1021.4 635 1021.4 611 1016 c 0,68,69
 571 1007 571 1007 537 977 c 1,70,71
 560.04 905.96 560.04 905.96 560.04 819.2528 c 0,72,73
 560.04 815.64 560.04 815.64 560 812 c 0,74,75
 560 658 560 658 494.5 561 c 128,-1,76
 429 464 429 464 317 464 c 0,25,26
EndSplineSet
EndChar

StartChar: h
Encoding: 104 104 308
Width: 692
VWidth: 2441
GlyphClass: 2
Flags: HW
AnchorPoint: "Anchor-4" 137 1340 basechar 0
AnchorPoint: "Anchor-2" 342 0 basechar 0
AnchorPoint: "Anchor-0" 118 1624 basechar 0
LayerCount: 2
Fore
SplineSet
32 1624 m 1,0,-1
 188 1624 l 1,1,-1
 188 1607 l 1,2,3
 174 1593 174 1593 170.5 1575.5 c 128,-1,4
 167 1558 167 1558 167 1516 c 2,5,-1
 167 932 l 1,6,7
 213 1035 213 1035 277.5 1088.5 c 128,-1,8
 342 1142 342 1142 416 1142 c 0,9,10
 533 1142 533 1142 596.5 1040.5 c 128,-1,11
 660 939 660 939 660 676 c 2,12,-1
 660 0 l 1,13,-1
 526 0 l 1,14,-1
 526 671 l 2,15,16
 526 846 526 846 490.5 923.5 c 128,-1,17
 455 1001 455 1001 391 1001 c 0,18,19
 337 1001 337 1001 286 957 c 128,-1,20
 235 913 235 913 201 832.5 c 128,-1,21
 167 752 167 752 167 643 c 2,22,-1
 167 0 l 1,23,-1
 32 0 l 1,24,-1
 32 1624 l 1,0,-1
EndSplineSet
EndChar

StartChar: i
Encoding: 105 105 313
Width: 584
VWidth: 2441
GlyphClass: 2
Flags: HW
AnchorPoint: "Anchor-3" 460 0 basechar 0
AnchorPoint: "Anchor-2" 295 0 basechar 0
AnchorPoint: "Anchor-0" 295 1477 basechar 0
LayerCount: 2
Fore
SplineSet
32 0 m 1,0,-1
 32 137 l 1,1,-1
 232 137 l 1,2,-1
 232 979 l 1,3,-1
 42 979 l 1,4,-1
 42 1116 l 1,5,-1
 369 1116 l 1,6,-1
 369 137 l 1,7,-1
 552 137 l 1,8,-1
 552 0 l 1,9,-1
 32 0 l 1,0,-1
293 1367 m 0,10,11
 254 1367 254 1367 224.5 1399 c 128,-1,12
 195 1431 195 1431 195 1475 c 0,13,14
 195 1521 195 1521 224 1552.5 c 128,-1,15
 253 1584 253 1584 293 1584 c 0,16,17
 335 1584 335 1584 364 1551.5 c 128,-1,18
 393 1519 393 1519 393 1475 c 128,-1,19
 393 1431 393 1431 364 1399 c 128,-1,20
 335 1367 335 1367 293 1367 c 0,10,11
EndSplineSet
Substitution2: "'locl' Localized Forms in Latin lookup 18 subtable" i.loclTRK
Substitution2: "'locl' Localized Forms in Latin lookup 17 subtable" i.loclTRK
Substitution2: "'locl' Localized Forms in Latin lookup 16 subtable" i.loclTRK
Substitution2: "'locl' Localized Forms in Latin lookup 15 subtable" i.loclTRK
Substitution2: "'locl' Localized Forms in Latin lookup 14 subtable" i.loclTRK
Substitution2: "Single Substitution lookup 4 subtable" dotlessi
Substitution2: "Single Substitution lookup 3 subtable" dotlessi
AlternateSubs2: "'aalt' Access All Alternates in Latin lookup 1 subtable" dotlessi i.loclTRK
EndChar

StartChar: dotlessi
Encoding: 305 305 314
Width: 584
VWidth: 2441
GlyphClass: 2
Flags: HW
AnchorPoint: "Anchor-3" 460 0 basechar 0
AnchorPoint: "Anchor-2" 295 0 basechar 0
AnchorPoint: "Anchor-0" 295 1116 basechar 0
LayerCount: 2
Fore
SplineSet
32 0 m 1,0,-1
 32 137 l 1,1,-1
 232 137 l 1,2,-1
 232 979 l 1,3,-1
 42 979 l 1,4,-1
 42 1116 l 1,5,-1
 369 1116 l 1,6,-1
 369 137 l 1,7,-1
 552 137 l 1,8,-1
 552 0 l 1,9,-1
 32 0 l 1,0,-1
EndSplineSet
EndChar

StartChar: j
Encoding: 106 106 329
Width: 614
VWidth: 2363
GlyphClass: 2
Flags: HW
AnchorPoint: "Anchor-2" 371 -282 basechar 0
AnchorPoint: "Anchor-0" 493 1487 basechar 0
LayerCount: 2
Fore
SplineSet
271 -246 m 0,0,1
 205 -246 205 -246 141 -217 c 128,-1,2
 77 -188 77 -188 32 -131 c 1,3,-1
 104 -8 l 1,4,-1
 115 9 l 1,5,-1
 129 3 l 1,6,7
 136 -14 136 -14 139 -34.5 c 128,-1,8
 142 -55 142 -55 166 -84 c 1,9,10
 208 -120 208 -120 271 -120 c 0,11,12
 339 -120 339 -120 381.5 -46 c 128,-1,13
 424 28 424 28 424 181 c 2,14,-1
 424 1032 l 1,15,-1
 153 1032 l 1,16,-1
 153 1157 l 1,17,-1
 549 1157 l 1,18,-1
 549 190 l 2,19,20
 549 27 549 27 514.5 -69 c 128,-1,21
 480 -165 480 -165 418 -205.5 c 128,-1,22
 356 -246 356 -246 271 -246 c 0,0,1
490 1387 m 0,23,24
 454 1387 454 1387 427.5 1415.5 c 128,-1,25
 401 1444 401 1444 401 1484 c 0,26,27
 401 1526 401 1526 427 1555 c 128,-1,28
 453 1584 453 1584 490 1584 c 0,29,30
 528 1584 528 1584 555 1554.5 c 128,-1,31
 582 1525 582 1525 582 1484 c 0,32,33
 582 1444 582 1444 555 1415.5 c 128,-1,34
 528 1387 528 1387 490 1387 c 0,23,24
EndSplineSet
Substitution2: "Single Substitution lookup 4 subtable" uni0237
Substitution2: "Single Substitution lookup 3 subtable" uni0237
Substitution2: "'aalt' Access All Alternates in Latin lookup 0 subtable" uni0237
EndChar

StartChar: uni0237
Encoding: 567 567 330
Width: 566
VWidth: 2286
GlyphClass: 2
Flags: HW
AnchorPoint: "Anchor-2" 361 -281 basechar 0
AnchorPoint: "Anchor-0" 479 1116 basechar 0
LayerCount: 2
Fore
SplineSet
264 -246 m 0,0,1
 200 -246 200 -246 137.5 -218 c 128,-1,2
 75 -190 75 -190 32 -134 c 1,3,-1
 102 -15 l 1,4,-1
 112 2 l 1,5,-1
 126 -5 l 1,6,7
 132 -22 132 -22 135 -41 c 128,-1,8
 138 -60 138 -60 162 -89 c 1,9,10
 203 -124 203 -124 264 -124 c 0,11,12
 330 -124 330 -124 371 -52 c 128,-1,13
 412 20 412 20 412 168 c 2,14,-1
 412 995 l 1,15,-1
 149 995 l 1,16,-1
 149 1116 l 1,17,-1
 534 1116 l 1,18,-1
 534 177 l 2,19,20
 534 19 534 19 500 -74 c 128,-1,21
 466 -167 466 -167 406 -206.5 c 128,-1,22
 346 -246 346 -246 264 -246 c 0,0,1
EndSplineSet
EndChar

StartChar: k
Encoding: 107 107 332
Width: 768
VWidth: 2441
GlyphClass: 2
Flags: HW
AnchorPoint: "Anchor-2" 348 0 basechar 0
AnchorPoint: "Anchor-0" 101 1624 basechar 0
LayerCount: 2
Fore
SplineSet
264 542 m 1,0,-1
 170 408 l 1,1,-1
 167 0 l 1,2,-1
 32 0 l 1,3,-1
 32 1624 l 1,4,-1
 189 1624 l 1,5,-1
 189 1607 l 1,6,7
 175 1593 175 1593 171 1575.5 c 128,-1,8
 167 1558 167 1558 167 1516 c 2,9,-1
 167 601 l 1,10,-1
 538 1121 l 1,11,12
 582 1109 582 1109 637 1109 c 2,13,-1
 681 1109 l 1,14,-1
 360 654 l 1,15,-1
 736 0 l 1,16,-1
 577 -10 l 1,17,-1
 264 542 l 1,0,-1
EndSplineSet
EndChar

StartChar: kgreenlandic
Encoding: 312 312 334
Width: 768
VWidth: 2441
GlyphClass: 2
Flags: HW
AnchorPoint: "Anchor-2" 352 0 basechar 0
AnchorPoint: "Anchor-0" 107 1116 basechar 0
LayerCount: 2
Fore
SplineSet
264 542 m 1,0,-1
 170 408 l 1,1,-1
 167 0 l 1,2,-1
 32 0 l 1,3,-1
 32 1116 l 1,4,-1
 189 1116 l 1,5,-1
 189 1099 l 1,6,7
 175 1085 175 1085 171 1067.5 c 128,-1,8
 167 1050 167 1050 167 1009 c 2,9,-1
 167 601 l 1,10,-1
 538 1121 l 1,11,12
 582 1109 582 1109 637 1109 c 2,13,-1
 681 1109 l 1,14,-1
 360 654 l 1,15,-1
 736 0 l 1,16,-1
 577 -10 l 1,17,-1
 264 542 l 1,0,-1
EndSplineSet
EndChar

StartChar: l
Encoding: 108 108 335
Width: 647
VWidth: 2441
GlyphClass: 2
Flags: HW
AnchorPoint: "Anchor-4" 324 559 basechar 0
AnchorPoint: "Anchor-2" 324 0 basechar 0
AnchorPoint: "Anchor-1" 717 1116 basechar 0
AnchorPoint: "Anchor-0" 324 1624 basechar 0
LayerCount: 2
Fore
SplineSet
32 0 m 1,0,-1
 32 137 l 1,1,-1
 256 137 l 1,2,-1
 256 1487 l 1,3,-1
 42 1487 l 1,4,-1
 42 1624 l 1,5,-1
 393 1624 l 1,6,-1
 393 137 l 1,7,-1
 615 137 l 1,8,-1
 615 0 l 1,9,-1
 32 0 l 1,0,-1
EndSplineSet
EndChar

StartChar: ldot
Encoding: 320 320 339
Width: 723
VWidth: 2441
GlyphClass: 1
Flags: HW
LayerCount: 2
Fore
SplineSet
582 689 m 128,-1,1
 536 689 536 689 504 724 c 128,-1,2
 472 759 472 759 472 811 c 0,3,4
 472 860 472 860 504.5 895 c 128,-1,5
 537 930 537 930 582 930 c 0,6,7
 626 930 626 930 658.5 894.5 c 128,-1,8
 691 859 691 859 691 811 c 0,9,10
 691 762 691 762 659.5 725.5 c 128,-1,0
 628 689 628 689 582 689 c 128,-1,1
32 0 m 1,11,-1
 34 137 l 1,12,-1
 230 137 l 1,13,-1
 230 1487 l 1,14,-1
 45 1487 l 1,15,-1
 45 1624 l 1,16,-1
 367 1624 l 1,17,-1
 367 137 l 1,18,-1
 619 137 l 1,19,-1
 619 0 l 1,20,-1
 32 0 l 1,11,-1
EndSplineSet
EndChar

StartChar: uni01C9
Encoding: 457 457 341
Width: 750
VWidth: 2368
GlyphClass: 1
Flags: HW
LayerCount: 2
Fore
SplineSet
387 -246 m 0,0,1
 318 -246 318 -246 262.5 -215 c 128,-1,2
 207 -184 207 -184 170 -128 c 1,3,-1
 245 5 l 1,4,5
 256 -10 256 -10 258.5 -22.5 c 128,-1,6
 261 -35 261 -35 272 -52 c 128,-1,7
 283 -69 283 -69 321 -95 c 0,8,9
 353 -115 353 -115 394 -115 c 0,10,11
 470 -115 470 -115 512.5 -48.5 c 128,-1,12
 555 18 555 18 555 182 c 2,13,-1
 555 1035 l 1,14,-1
 336 1035 l 1,15,-1
 336 1160 l 1,16,-1
 680 1160 l 1,17,-1
 680 190 l 2,18,19
 680 27 680 27 643 -67.5 c 128,-1,20
 606 -162 606 -162 539 -203 c 128,-1,21
 472 -244 472 -244 387 -246 c 0,0,1
600 1390 m 128,-1,23
 564 1390 564 1390 537 1418.5 c 128,-1,24
 510 1447 510 1447 510 1488 c 0,25,26
 510 1530 510 1530 536 1559 c 128,-1,27
 562 1588 562 1588 600 1588 c 0,28,29
 636 1588 636 1588 662.5 1558 c 128,-1,30
 689 1528 689 1528 689 1488 c 128,-1,31
 689 1448 689 1448 662.5 1419 c 128,-1,22
 636 1390 636 1390 600 1390 c 128,-1,23
29 141 m 1,32,-1
 32 267 l 1,33,-1
 127 267 l 1,34,-1
 127 1498 l 1,35,-1
 40 1498 l 1,36,-1
 40 1624 l 1,37,-1
 251 1624 l 1,38,-1
 251 267 l 1,39,-1
 439 267 l 1,40,-1
 439 141 l 1,41,-1
 29 141 l 1,32,-1
EndSplineSet
EndChar

StartChar: lslash
Encoding: 322 322 343
Width: 649
VWidth: 2441
GlyphClass: 1
Flags: HW
LayerCount: 2
Fore
SplineSet
32 0 m 1,0,-1
 34 137 l 1,1,-1
 256 137 l 1,2,-1
 256 683 l 1,3,-1
 130 617 l 1,4,-1
 130 778 l 1,5,-1
 256 845 l 1,6,-1
 256 1487 l 1,7,-1
 44 1487 l 1,8,-1
 44 1624 l 1,9,-1
 396 1624 l 1,10,-1
 396 906 l 1,11,-1
 545 986 l 1,12,-1
 545 818 l 1,13,-1
 396 743 l 1,14,-1
 396 137 l 1,15,-1
 617 137 l 1,16,-1
 617 0 l 1,17,-1
 32 0 l 1,0,-1
EndSplineSet
EndChar

StartChar: m
Encoding: 109 109 344
Width: 768
VWidth: 2441
GlyphClass: 2
Flags: HW
AnchorPoint: "Anchor-2" 380 0 basechar 0
AnchorPoint: "Anchor-0" 550 1116 basechar 0
LayerCount: 2
Fore
SplineSet
32 0 m 1,0,-1
 32 1116 l 1,1,-1
 158 1116 l 1,2,-1
 158 1006 l 1,3,4
 181 1067 181 1067 217 1104.5 c 128,-1,5
 253 1142 253 1142 297 1142 c 0,6,7
 346 1142 346 1142 380.5 1096 c 128,-1,8
 415 1050 415 1050 424 979 c 1,9,10
 444 1052 444 1052 490 1097 c 128,-1,11
 536 1142 536 1142 592 1142 c 0,12,13
 667 1142 667 1142 703.5 1064 c 0,14,15
 736.395061728 993.703703704 736.395061728 993.703703704 736.395061728 881.983996342 c 0,16,17
 736.395061728 869.740740741 736.395061728 869.740740741 736 857 c 1,18,-1
 736 0 l 1,19,-1
 610 0 l 1,20,-1
 610 792 l 2,21,22
 610 895 610 895 604 941.5 c 128,-1,23
 598 988 598 988 585 1003 c 128,-1,24
 572 1018 572 1018 552 1018 c 0,25,26
 521 1018 521 1018 498 974 c 128,-1,27
 475 930 475 930 461.5 865.5 c 128,-1,28
 448 801 448 801 448 737 c 2,29,-1
 448 0 l 1,30,-1
 320 0 l 1,31,-1
 320 776 l 2,32,33
 320 915 320 915 307.5 964 c 128,-1,34
 295 1013 295 1013 255 1013 c 0,35,36
 224 1013 224 1013 191 941 c 128,-1,37
 158 869 158 869 158 745 c 2,38,-1
 158 0 l 1,39,-1
 32 0 l 1,0,-1
EndSplineSet
EndChar

StartChar: n
Encoding: 110 110 346
Width: 695
VWidth: 2441
GlyphClass: 2
Flags: HW
AnchorPoint: "Anchor-2" 362 0 basechar 0
AnchorPoint: "Anchor-0" 372 1116 basechar 0
LayerCount: 2
Fore
SplineSet
32 0 m 1,0,-1
 32 1116 l 1,1,-1
 167 1116 l 1,2,-1
 167 932 l 1,3,4
 260 1142 260 1142 425 1142 c 0,5,6
 498 1142 498 1142 550.5 1103.5 c 128,-1,7
 603 1065 603 1065 633 966 c 128,-1,8
 663 867 663 867 663 691 c 2,9,-1
 663 0 l 1,10,-1
 528 0 l 1,11,-1
 528 685 l 2,12,13
 528 860 528 860 491.5 930.5 c 128,-1,14
 455 1001 455 1001 391 1001 c 0,15,16
 340 1001 340 1001 287.5 959.5 c 128,-1,17
 235 918 235 918 201 841 c 128,-1,18
 167 764 167 764 167 657 c 2,19,-1
 167 0 l 1,20,-1
 32 0 l 1,0,-1
EndSplineSet
EndChar

StartChar: eng
Encoding: 331 331 352
Width: 625
VWidth: 2288
GlyphClass: 1
Flags: HW
LayerCount: 2
Fore
SplineSet
330 -246 m 0,0,1
 248 -246 248 -246 186 -182 c 1,2,-1
 237 -50 l 1,3,4
 245 -52 245 -52 251.5 -68.5 c 128,-1,5
 258 -85 258 -85 274.5 -100 c 128,-1,6
 291 -115 291 -115 334 -115 c 0,7,8
 408 -115 408 -115 442 -25.5 c 128,-1,9
 476 64 476 64 476 230 c 2,10,-1
 476 726 l 2,11,12
 476 843 476 843 460 905.5 c 128,-1,13
 444 968 444 968 417 993 c 128,-1,14
 390 1018 390 1018 353 1018 c 0,15,16
 306 1018 306 1018 260.5 978 c 128,-1,17
 215 938 215 938 185 867 c 128,-1,18
 155 796 155 796 155 701 c 2,19,-1
 155 133 l 1,20,-1
 32 133 l 1,21,-1
 32 1119 l 1,22,-1
 155 1119 l 1,23,-1
 155 957 l 1,24,25
 237 1142 237 1142 375 1142 c 0,26,27
 435 1142 435 1142 484.5 1106.5 c 128,-1,28
 534 1071 534 1071 563.5 981.5 c 128,-1,29
 593 892 593 892 593 730 c 2,30,-1
 593 254 l 2,31,32
 593 -20 593 -20 520 -133 c 128,-1,33
 447 -246 447 -246 330 -246 c 0,0,1
EndSplineSet
EndChar

StartChar: o
Encoding: 111 111 355
Width: 768
VWidth: 2441
GlyphClass: 2
Flags: HW
AnchorPoint: "Anchor-4" 385 559 basechar 0
AnchorPoint: "Anchor-3" 445 24 basechar 0
AnchorPoint: "Anchor-2" 385 0 basechar 0
AnchorPoint: "Anchor-1" 566 1065 basechar 0
AnchorPoint: "Anchor-0" 385 1116 basechar 0
LayerCount: 2
Fore
SplineSet
385 117 m 0,0,1
 480 117 480 117 537.5 227 c 128,-1,2
 595 337 595 337 595 561 c 0,3,4
 595 787 595 787 537.5 895.5 c 128,-1,5
 480 1004 480 1004 385 1004 c 128,-1,6
 290 1004 290 1004 231.5 896.5 c 128,-1,7
 173 789 173 789 173 561 c 0,8,9
 173 337 173 337 230 227 c 128,-1,10
 287 117 287 117 385 117 c 0,0,1
385 -19 m 128,-1,12
 230 -19 230 -19 131 123.5 c 128,-1,13
 32 266 32 266 32 559 c 0,14,15
 32 855 32 855 131 997.5 c 128,-1,16
 230 1140 230 1140 385 1140 c 128,-1,17
 540 1140 540 1140 638 997.5 c 128,-1,18
 736 855 736 855 736 559 c 0,19,20
 736 266 736 266 638 123.5 c 128,-1,11
 540 -19 540 -19 385 -19 c 128,-1,12
EndSplineSet
Substitution2: "Single Substitution lookup 29 subtable" ordmasculine
Substitution2: "'aalt' Access All Alternates in Latin lookup 0 subtable" ordmasculine
EndChar

StartChar: oslash
Encoding: 248 248 383
Width: 768
VWidth: 2441
GlyphClass: 2
Flags: HW
AnchorPoint: "Anchor-4" 385 559 basechar 0
AnchorPoint: "Anchor-3" 445 24 basechar 0
AnchorPoint: "Anchor-2" 385 0 basechar 0
AnchorPoint: "Anchor-1" 566 1065 basechar 0
AnchorPoint: "Anchor-0" 385 1116 basechar 0
LayerCount: 2
Fore
SplineSet
385 117 m 0,0,1
 480 117 480 117 537.5 227 c 128,-1,2
 595 337 595 337 595 561 c 0,3,4
 595 754 595 754 550 867 c 1,5,-1
 280 159 l 1,6,7
 323 117 323 117 385 117 c 0,0,1
173 561 m 0,8,9
 173 380 173 380 211 271 c 1,10,-1
 478 969 l 1,11,12
 437 1004 437 1004 385 1004 c 0,13,14
 290 1004 290 1004 231.5 895.5 c 128,-1,15
 173 787 173 787 173 561 c 0,8,9
168 -130 m 1,16,-1
 75 -91 l 1,17,-1
 147 100 l 1,18,19
 92 170 92 170 62 285.5 c 128,-1,20
 32 401 32 401 32 559 c 0,21,22
 32 855 32 855 129.5 997.5 c 128,-1,23
 227 1140 227 1140 385 1140 c 0,24,25
 464 1140 464 1140 528 1104 c 1,26,-1
 588 1258 l 1,27,-1
 682 1216 l 1,28,-1
 614 1030 l 1,29,30
 671 960 671 960 703.5 842.5 c 128,-1,31
 736 725 736 725 736 559 c 0,32,33
 736 266 736 266 638.5 123.5 c 128,-1,34
 541 -19 541 -19 385 -19 c 0,35,36
 297 -19 297 -19 227 24 c 1,37,-1
 168 -130 l 1,16,-1
EndSplineSet
EndChar

StartChar: oe
Encoding: 339 339 389
Width: 691
VWidth: 2441
GlyphClass: 1
Flags: HW
LayerCount: 2
Fore
SplineSet
208 114 m 0,0,1
 237 114 237 114 256.5 143.5 c 128,-1,2
 276 173 276 173 276 217 c 0,3,4
 276 222 276 222 275 235.5 c 128,-1,5
 274 249 274 249 272 273 c 0,6,7
 262 359 262 359 259 437 c 128,-1,8
 256 515 256 515 256 581 c 0,9,10
 256 723 256 723 263 795 c 128,-1,11
 270 867 270 867 270 883 c 0,12,13
 270 929 270 929 252.5 964 c 128,-1,14
 235 999 235 999 206 999 c 0,15,16
 163 999 163 999 126 908.5 c 128,-1,17
 89 818 89 818 89 583 c 0,18,19
 89 327 89 327 121 220.5 c 128,-1,20
 153 114 153 114 208 114 c 0,0,1
365 678 m 1,21,-1
 579 678 l 1,22,23
 579 851 579 851 556 931 c 128,-1,24
 533 1011 533 1011 472 1011 c 0,25,26
 417 1011 417 1011 391 924 c 128,-1,27
 365 837 365 837 365 678 c 1,21,-1
508 -30 m 128,-1,29
 408 -30 408 -30 338 61 c 1,30,31
 279 -27 279 -27 196 -27 c 0,32,33
 159 -27 159 -27 122 -3 c 128,-1,34
 85 21 85 21 53 84 c 128,-1,35
 21 147 21 147 1.5 261.5 c 128,-1,36
 -18 376 -18 376 -18 557 c 0,37,38
 -18 779 -18 779 12 905.5 c 128,-1,39
 42 1032 42 1032 92.5 1084.5 c 128,-1,40
 143 1137 143 1137 206 1137 c 0,41,42
 292 1137 292 1137 343 1035 c 1,43,44
 395.490384615 1137.00961538 395.490384615 1137.00961538 484.272651627 1137.00961538 c 0,0,0
 485.134615385 1137.00961538 485.134615385 1137.00961538 486 1137 c 0,45,46
 576 1137 576 1137 627.5 1036 c 128,-1,47
 679 935 679 935 679 691 c 2,48,-1
 679 540 l 1,49,-1
 363 540 l 1,50,51
 367 367 367 367 381.5 273 c 128,-1,52
 396 179 396 179 425.5 143 c 128,-1,53
 455 107 455 107 496 107 c 0,54,55
 541 107 541 107 575.5 134 c 128,-1,56
 610 161 610 161 634 207 c 1,57,-1
 686 103 l 1,58,28
 608 -30 608 -30 508 -30 c 128,-1,29
EndSplineSet
EndChar

StartChar: p
Encoding: 112 112 390
Width: 687
VWidth: 2304
GlyphClass: 2
Flags: HW
AnchorPoint: "Anchor-2" 355 119 basechar 0
AnchorPoint: "Anchor-0" 355 1118 basechar 0
LayerCount: 2
Fore
SplineSet
345 222 m 0,0,1
 393 222 393 222 434.5 250.5 c 128,-1,2
 476 279 476 279 502 365 c 128,-1,3
 528 451 528 451 528 620 c 0,4,5
 528 841 528 841 484.5 925 c 128,-1,6
 441 1009 441 1009 355 1012 c 0,7,8
 353.34 1012.04 353.34 1012.04 351.6898 1012.04 c 0,9,10
 270.83 1012.04 270.83 1012.04 213.5 916 c 0,11,12
 155 818 155 818 155 585 c 0,13,14
 157 389 157 389 208.5 305.5 c 128,-1,15
 260 222 260 222 345 222 c 0,0,1
32 -246 m 1,16,-1
 32 1118 l 1,17,-1
 155 1118 l 1,18,-1
 155 947 l 1,19,20
 180 1037 180 1037 236 1088.5 c 128,-1,21
 292 1140 292 1140 366 1140 c 0,22,23
 447 1140 447 1140 511.5 1096 c 128,-1,24
 576 1052 576 1052 615.5 941 c 128,-1,25
 655 830 655 830 655 626 c 0,26,27
 655 430 655 430 615.5 313 c 128,-1,28
 576 196 576 196 509.5 144 c 128,-1,29
 443 92 443 92 362 92 c 0,30,31
 297 92 297 92 242 134 c 128,-1,32
 187 176 187 176 155 250 c 1,33,-1
 155 -246 l 1,34,-1
 32 -246 l 1,16,-1
EndSplineSet
EndChar

StartChar: thorn
Encoding: 254 254 391
Width: 705
VWidth: 2374
GlyphClass: 1
Flags: HW
LayerCount: 2
Fore
SplineSet
353 235 m 0,0,1
 402 235 402 235 445 264.5 c 128,-1,2
 488 294 488 294 515 382 c 128,-1,3
 542 470 542 470 542 644 c 0,4,5
 542 871 542 871 497 957.5 c 128,-1,6
 452 1044 452 1044 364 1046 c 0,7,8
 362.31372549 1046.03921569 362.31372549 1046.03921569 360.637447136 1046.03921569 c 0,0,0
 276.823529412 1046.03921569 276.823529412 1046.03921569 218 948 c 128,-1,9
 158 848 158 848 158 608 c 0,10,11
 160 406 160 406 212.5 320.5 c 128,-1,12
 265 235 265 235 353 235 c 0,0,1
32 1624 m 1,13,-1
 178 1624 l 1,14,-1
 178 1608 l 1,15,16
 165 1595 165 1595 161.5 1579 c 128,-1,17
 158 1563 158 1563 158 1525 c 2,18,-1
 158 981 l 1,19,20
 183 1073 183 1073 241.5 1125.5 c 128,-1,21
 300 1178 300 1178 375 1178 c 0,22,23
 458 1178 458 1178 525 1133 c 128,-1,24
 592 1088 592 1088 632.5 974 c 128,-1,25
 673 860 673 860 673 650 c 0,26,27
 673 448 673 448 632.5 328 c 128,-1,28
 592 208 592 208 523 155 c 128,-1,29
 454 102 454 102 371 102 c 0,30,31
 304 102 304 102 247.5 144.5 c 128,-1,32
 191 187 191 187 158 264 c 1,33,-1
 158 -246 l 1,34,-1
 32 -246 l 1,35,-1
 32 1624 l 1,13,-1
EndSplineSet
EndChar

StartChar: q
Encoding: 113 113 392
Width: 686
VWidth: 2305
GlyphClass: 1
Flags: HW
LayerCount: 2
Fore
SplineSet
343 230 m 0,0,1
 422 230 422 230 475.5 329 c 128,-1,2
 529 428 529 428 529 647 c 0,3,4
 529 853 529 853 478.5 938 c 128,-1,5
 428 1023 428 1023 353 1023 c 0,6,7
 263 1023 263 1023 210 932 c 128,-1,8
 157 841 157 841 157 629 c 0,9,10
 157 230 157 230 343 230 c 0,0,1
531 -246 m 1,11,-1
 531 261 l 1,12,13
 469.473684211 97.9064327485 469.473684211 97.9064327485 330.692520776 97.9064327485 c 0,0,0
 327.368421053 97.9064327485 327.368421053 97.9064327485 324 98 c 0,14,15
 191 100 191 100 111.5 234 c 128,-1,16
 32 368 32 368 32 622 c 0,17,18
 32 821 32 821 73.5 936 c 128,-1,19
 115 1051 115 1051 185 1098.5 c 128,-1,20
 255 1146 255 1146 339 1146 c 0,21,22
 416 1146 416 1146 464 1097 c 128,-1,23
 512 1048 512 1048 535 968 c 1,24,-1
 535 1119 l 1,25,-1
 654 1119 l 1,26,-1
 654 -246 l 1,27,-1
 531 -246 l 1,11,-1
EndSplineSet
EndChar

StartChar: r
Encoding: 114 114 393
Width: 687
VWidth: 2441
GlyphClass: 2
Flags: HW
AnchorPoint: "Anchor-2" 325 0 basechar 0
AnchorPoint: "Anchor-0" 372 1118 basechar 0
LayerCount: 2
Fore
SplineSet
32 1116 m 1,0,-1
 181 1116 l 1,1,-1
 179 923 l 1,2,3
 214 1033 214 1033 288 1087.5 c 128,-1,4
 362 1142 362 1142 442 1142 c 0,5,6
 572 1142 572 1142 655 1020 c 1,7,-1
 601 883 l 1,8,-1
 593 859 l 1,9,-1
 577 867 l 1,10,11
 567 886 567 886 563.5 909 c 128,-1,12
 560 932 560 932 533 962 c 1,13,14
 482 1006 482 1006 433 1006 c 0,15,16
 375 1006 375 1006 316 961 c 128,-1,17
 257 916 257 916 218 824 c 128,-1,18
 179 732 179 732 179 591 c 2,19,-1
 179 -2 l 1,20,-1
 32 -2 l 1,21,-1
 32 1116 l 1,0,-1
EndSplineSet
EndChar

StartChar: uni027B
Encoding: 635 635 399
Width: 733
VWidth: 2281
GlyphClass: 1
Flags: HW
LayerCount: 2
Fore
SplineSet
578 -246 m 0,0,1
 535 -246 535 -246 488 -220.5 c 128,-1,2
 441 -195 441 -195 410 -132 c 128,-1,3
 379 -69 379 -69 379 46 c 2,4,-1
 381 293 l 1,5,6
 353 201 353 201 300.5 155.5 c 128,-1,7
 248 110 248 110 183 110 c 0,8,9
 136 110 136 110 98.5 130.5 c 128,-1,10
 61 151 61 151 22 205 c 1,11,-1
 67 325 l 1,12,-1
 74 347 l 1,13,-1
 82 343 l 1,14,15
 88 326 88 326 91.5 309.5 c 128,-1,16
 95 293 95 293 113 273 c 0,17,18
 143 243 143 243 192 243 c 0,19,20
 261 243 261 243 320 327 c 128,-1,21
 379 411 379 411 379 596 c 2,22,-1
 379 1118 l 1,23,-1
 506 1118 l 1,24,-1
 506 46 l 2,25,26
 506 -32 506 -32 530.5 -73 c 128,-1,27
 555 -114 555 -114 596 -114 c 0,28,29
 611 -114 611 -114 626 -109 c 128,-1,30
 641 -104 641 -104 654 -92 c 0,31,32
 667 -82 667 -82 669 -68.5 c 128,-1,33
 671 -55 671 -55 680 -51 c 1,34,-1
 718 -178 l 1,35,36
 666 -246 666 -246 578 -246 c 0,0,1
EndSplineSet
EndChar

StartChar: uni024D
Encoding: 589 589 402
Width: 768
VWidth: 2441
GlyphClass: 2
Flags: HW
AnchorPoint: "Anchor-2" 417 0 basechar 0
AnchorPoint: "Anchor-0" 462 1118 basechar 0
LayerCount: 2
Fore
SplineSet
32 420 m 1,0,-1
 32 557 l 1,1,-1
 133 557 l 1,2,-1
 133 1116 l 1,3,-1
 277 1116 l 1,4,-1
 275 923 l 1,5,6
 308 1033 308 1033 380.5 1087.5 c 128,-1,7
 453 1142 453 1142 530 1142 c 0,8,9
 656 1142 656 1142 736 1020 c 1,10,-1
 683 883 l 1,11,-1
 676 859 l 1,12,-1
 660 867 l 1,13,14
 651 886 651 886 647.5 909 c 128,-1,15
 644 932 644 932 617 962 c 1,16,17
 567 1006 567 1006 521 1006 c 0,18,19
 465 1006 465 1006 408 961 c 128,-1,20
 351 916 351 916 313 824 c 128,-1,21
 275 732 275 732 275 591 c 2,22,-1
 275 557 l 1,23,-1
 478 557 l 1,24,-1
 478 420 l 1,25,-1
 275 420 l 1,26,-1
 275 -2 l 1,27,-1
 133 -2 l 1,28,-1
 133 420 l 1,29,-1
 32 420 l 1,0,-1
EndSplineSet
EndChar

StartChar: s
Encoding: 115 115 403
Width: 723
VWidth: 2441
GlyphClass: 1
Flags: HW
LayerCount: 2
Fore
SplineSet
361 -24 m 0,0,1
 247 -24 247 -24 167.5 13.5 c 128,-1,2
 88 51 88 51 32 112 c 1,3,-1
 102 256 l 1,4,-1
 112 278 l 1,5,-1
 127 271 l 1,6,7
 134 252 134 252 139 229.5 c 128,-1,8
 144 207 144 207 166 179 c 1,9,10
 205 144 205 144 252.5 124.5 c 128,-1,11
 300 105 300 105 363 105 c 0,12,13
 451 105 451 105 501.5 157.5 c 128,-1,14
 552 210 552 210 552 300 c 0,15,16
 552 370 552 370 513.5 415.5 c 128,-1,17
 475 461 475 461 371 510 c 0,18,19
 232 573 232 573 151 650 c 128,-1,20
 70 727 70 727 70 857 c 0,21,22
 70 983 70 983 144.5 1062.5 c 128,-1,23
 219 1142 219 1142 371 1142 c 0,24,25
 488 1142 488 1142 561.5 1103.5 c 128,-1,26
 635 1065 635 1065 683 981 c 1,27,-1
 608 864 l 1,28,-1
 596 843 l 1,29,-1
 580 852 l 1,30,31
 575 871 575 871 573 894.5 c 128,-1,32
 571 918 571 918 549 952 c 1,33,34
 514 987 514 987 469 1003.5 c 128,-1,35
 424 1020 424 1020 378 1020 c 0,36,37
 295 1020 295 1020 252.5 977.5 c 128,-1,38
 210 935 210 935 210 871 c 0,39,40
 210 798 210 798 251.5 752 c 128,-1,41
 293 706 293 706 422 645 c 0,42,43
 517 596 517 596 577.5 555.5 c 128,-1,44
 638 515 638 515 664.5 461.5 c 128,-1,45
 691 408 691 408 691 324 c 0,46,47
 691 156 691 156 604 66 c 128,-1,48
 517 -24 517 -24 361 -24 c 0,0,1
EndSplineSet
EndChar

StartChar: germandbls
Encoding: 223 223 414
Width: 768
VWidth: 2441
GlyphClass: 1
Flags: HW
LayerCount: 2
Fore
SplineSet
428 -24 m 0,0,1
 380 -24 380 -24 331.5 -8.5 c 128,-1,2
 283 7 283 7 246 42 c 1,3,-1
 304 175 l 1,4,5
 355 117 355 117 428 117 c 0,6,7
 476 117 476 117 514 164.5 c 128,-1,8
 552 212 552 212 575 292.5 c 128,-1,9
 598 373 598 373 598 471 c 0,10,11
 598 606 598 606 545 699 c 128,-1,12
 492 792 492 792 357 792 c 2,13,-1
 306 792 l 1,14,-1
 306 925 l 1,15,-1
 369 925 l 2,16,17
 429 925 429 925 475 993.5 c 128,-1,18
 521 1062 521 1062 521 1197 c 0,19,20
 521 1321 521 1321 476.5 1407.5 c 128,-1,21
 432 1494 432 1494 352 1494 c 0,22,23
 263 1494 263 1494 217.5 1367 c 128,-1,24
 172 1240 172 1240 172 1037 c 2,25,-1
 172 0 l 1,26,-1
 32 0 l 1,27,-1
 32 1032 l 2,28,29
 32 1251 32 1251 71.5 1383.5 c 128,-1,30
 111 1516 111 1516 180 1574.5 c 128,-1,31
 249 1633 249 1633 336 1633 c 0,32,33
 478 1633 478 1633 569.5 1518.5 c 128,-1,34
 661 1404 661 1404 661 1204 c 0,35,36
 661 1099 661 1099 628.5 1011 c 128,-1,37
 596 923 596 923 534 876 c 1,38,39
 628 834 628 834 682 729.5 c 128,-1,40
 736 625 736 625 736 442 c 0,41,42
 736 218 736 218 649.5 97 c 128,-1,43
 563 -24 563 -24 428 -24 c 0,0,1
EndSplineSet
EndChar

StartChar: t
Encoding: 116 116 415
Width: 718
VWidth: 2441
GlyphClass: 2
Flags: HW
AnchorPoint: "Anchor-4" 276 762 basechar 0
AnchorPoint: "Anchor-2" 369 0 basechar 0
AnchorPoint: "Anchor-1" 442 1116 basechar 0
AnchorPoint: "Anchor-0" 318 1428 basechar 0
LayerCount: 2
Fore
SplineSet
437 -24 m 0,0,1
 337 -24 337 -24 282.5 35.5 c 128,-1,2
 228 95 228 95 208 233 c 0,3,4
 192 343.4 192 343.4 192 515.88 c 0,5,6
 192 559 192 559 193 606 c 2,7,-1
 204 955 l 1,8,-1
 32 955 l 1,9,-1
 32 1091 l 1,10,-1
 206 1091 l 1,11,-1
 216 1402 l 1,12,-1
 360 1423 l 1,13,-1
 384 1428 l 1,14,-1
 386 1411 l 1,15,16
 374 1392 374 1392 365.5 1375 c 128,-1,17
 357 1358 357 1358 355 1316 c 2,18,-1
 342 1091 l 1,19,-1
 609 1091 l 1,20,-1
 609 955 l 1,21,-1
 344 955 l 1,22,-1
 332 594 l 2,23,24
 329.56097561 529.12195122 329.56097561 529.12195122 329.56097561 473.851279001 c 0,25,26
 329.56097561 302.512195122 329.56097561 302.512195122 353 223.5 c 0,27,28
 384 119 384 119 460 119 c 0,29,30
 516 119 516 119 562.5 153.5 c 128,-1,31
 609 188 609 188 647 224 c 1,32,-1
 686 91 l 1,33,34
 628 28 628 28 565.5 2 c 128,-1,35
 503 -24 503 -24 437 -24 c 0,0,1
EndSplineSet
EndChar

StartChar: tbar
Encoding: 359 359 416
Width: 726
VWidth: 2441
GlyphClass: 2
Flags: HW
AnchorPoint: "Anchor-4" 284 762 basechar 0
AnchorPoint: "Anchor-2" 377 0 basechar 0
AnchorPoint: "Anchor-1" 449 1116 basechar 0
AnchorPoint: "Anchor-0" 325 1428 basechar 0
LayerCount: 2
Fore
SplineSet
444 -24 m 0,0,1
 349 -24 349 -24 294 29.5 c 128,-1,2
 239 83 239 83 218.5 206 c 0,3,4
 199.822222222 318.066666667 199.822222222 318.066666667 199.822222222 503.184197531 c 0,5,6
 199.822222222 521.244444444 199.822222222 521.244444444 200 540 c 1,7,-1
 32 540 l 1,8,-1
 32 676 l 1,9,-1
 202 676 l 1,10,-1
 211 955 l 1,11,-1
 39 955 l 1,12,-1
 39 1091 l 1,13,-1
 213 1091 l 1,14,-1
 223 1402 l 1,15,-1
 367 1423 l 1,16,-1
 391 1428 l 1,17,-1
 393 1411 l 1,18,19
 381 1392 381 1392 373 1375 c 128,-1,20
 365 1358 365 1358 362 1316 c 2,21,-1
 349 1091 l 1,22,-1
 616 1091 l 1,23,-1
 616 955 l 1,24,-1
 351 955 l 1,25,-1
 342 676 l 1,26,-1
 593 676 l 1,27,-1
 593 540 l 1,28,-1
 337 540 l 1,29,30
 336.324324324 507.972972973 336.324324324 507.972972973 336.324324324 478.593864134 c 0,31,32
 336.324324324 290.567567568 336.324324324 290.567567568 364 211 c 0,33,34
 396 119 396 119 467 119 c 0,35,36
 523 119 523 119 569.5 153.5 c 128,-1,37
 616 188 616 188 654 224 c 1,38,-1
 694 91 l 1,39,40
 636 28 636 28 573 2 c 128,-1,41
 510 -24 510 -24 444 -24 c 0,0,1
EndSplineSet
EndChar

StartChar: u
Encoding: 117 117 423
Width: 711
VWidth: 2441
GlyphClass: 2
Flags: HW
AnchorPoint: "Anchor-3" 570 0 basechar 0
AnchorPoint: "Anchor-2" 313 0 basechar 0
AnchorPoint: "Anchor-1" 657 1116 basechar 0
AnchorPoint: "Anchor-0" 344 1116 basechar 0
LayerCount: 2
Fore
SplineSet
303 -27 m 0,0,1
 217 -27 217 -27 156 18 c 128,-1,2
 95 63 95 63 63.5 177 c 128,-1,3
 32 291 32 291 32 494 c 2,4,-1
 34 1116 l 1,5,-1
 176 1116 l 1,6,-1
 176 494 l 2,7,8
 176 324 176 324 197 241.5 c 128,-1,9
 218 159 218 159 253 134.5 c 128,-1,10
 288 110 288 110 332 110 c 0,11,12
 407 110 407 110 464 205 c 128,-1,13
 521 300 521 300 521 501 c 2,14,-1
 521 1116 l 1,15,-1
 663 1116 l 1,16,-1
 663 173 l 2,17,18
 663 129 663 129 665 86.5 c 128,-1,19
 667 44 667 44 679 0 c 1,20,-1
 545 0 l 1,21,22
 533 42 533 42 529.5 78 c 128,-1,23
 526 114 526 114 526 156 c 1,24,25
 494 73 494 73 439 23 c 128,-1,26
 384 -27 384 -27 303 -27 c 0,0,1
EndSplineSet
EndChar

StartChar: v
Encoding: 118 118 446
Width: 768
VWidth: 2441
GlyphClass: 2
Flags: HW
AnchorPoint: "Anchor-2" 388 0 basechar 0
AnchorPoint: "Anchor-0" 388 1116 basechar 0
LayerCount: 2
Fore
SplineSet
327 0 m 1,0,-1
 32 1116 l 1,1,-1
 173 1116 l 1,2,-1
 396 259 l 1,3,-1
 509 654 l 2,4,5
 548 789 548 789 569.5 903.5 c 128,-1,6
 591 1018 591 1018 604 1116 c 1,7,-1
 736 1116 l 1,8,9
 722 1013 722 1013 695.5 891 c 128,-1,10
 669 769 669 769 627 627 c 2,11,-1
 449 0 l 1,12,-1
 327 0 l 1,0,-1
EndSplineSet
EndChar

StartChar: w
Encoding: 119 119 447
Width: 749
VWidth: 2441
GlyphClass: 2
Flags: HW
AnchorPoint: "Anchor-2" 373 0 basechar 0
AnchorPoint: "Anchor-0" 373 1116 basechar 0
LayerCount: 2
Fore
SplineSet
153 -2 m 1,0,-1
 19 1116 l 1,1,-1
 133 1116 l 1,2,-1
 232 259 l 1,3,-1
 331 952 l 1,4,-1
 430 952 l 1,5,-1
 554 261 l 1,6,7
 585 594 585 594 596 791 c 128,-1,8
 607 988 607 988 607 1079 c 2,9,-1
 607 1116 l 1,10,-1
 723 1116 l 1,11,12
 702 832 702 832 676 553.5 c 128,-1,13
 650 275 650 275 615 -2 c 1,14,-1
 486 -2 l 1,15,-1
 382 664 l 1,16,-1
 275 -2 l 1,17,-1
 153 -2 l 1,0,-1
EndSplineSet
EndChar

StartChar: x
Encoding: 120 120 452
Width: 761
VWidth: 2441
GlyphClass: 2
Flags: HW
AnchorPoint: "Anchor-2" 378 0 basechar 0
AnchorPoint: "Anchor-0" 378 1116 basechar 0
LayerCount: 2
Fore
SplineSet
32 0 m 1,0,-1
 300 566 l 1,1,-1
 37 1116 l 1,2,-1
 181 1116 l 1,3,-1
 375 718 l 1,4,-1
 561 1116 l 1,5,-1
 696 1116 l 1,6,-1
 449 573 l 1,7,-1
 729 0 l 1,8,-1
 580 0 l 1,9,-1
 375 420 l 1,10,-1
 181 0 l 1,11,-1
 32 0 l 1,0,-1
EndSplineSet
EndChar

StartChar: y
Encoding: 121 121 453
Width: 705
VWidth: 2286
GlyphClass: 2
Flags: HW
AnchorPoint: "Anchor-2" 559 129 basechar 0
AnchorPoint: "Anchor-0" 382 1116 basechar 0
LayerCount: 2
Fore
SplineSet
191 -246 m 0,0,1
 94 -246 94 -246 32 -162 c 1,2,-1
 79 -56 l 1,3,-1
 90 -35 l 1,4,-1
 103 -44 l 1,5,6
 109 -61 109 -61 117 -78 c 128,-1,7
 125 -95 125 -95 151 -116 c 1,8,9
 175 -124 175 -124 199 -126 c 0,10,11
 259 -126 259 -126 285.5 -58 c 128,-1,12
 312 10 312 10 343 142 c 1,13,-1
 343 144 l 1,14,-1
 67 1116 l 1,15,-1
 196 1116 l 1,16,-1
 397 378 l 1,17,-1
 475 723 l 2,18,19
 499 822 499 822 519 919.5 c 128,-1,20
 539 1017 539 1017 547 1116 c 1,21,-1
 673 1116 l 1,22,23
 662 1017 662 1017 638.5 915 c 128,-1,24
 615 813 615 813 591 712 c 2,25,-1
 418 18 l 2,26,27
 381 -126 381 -126 323 -186 c 128,-1,28
 265 -246 265 -246 191 -246 c 0,0,1
EndSplineSet
EndChar

StartChar: z
Encoding: 122 122 463
Width: 747
VWidth: 2441
GlyphClass: 2
Flags: HW
AnchorPoint: "Anchor-2" 410 0 basechar 0
AnchorPoint: "Anchor-0" 410 1116 basechar 0
LayerCount: 2
Fore
SplineSet
32 110 m 1,0,-1
 508 974 l 1,1,-1
 68 974 l 1,2,-1
 68 1116 l 1,3,-1
 673 1116 l 1,4,-1
 673 1006 l 1,5,-1
 207 139 l 1,6,-1
 608 139 l 2,7,8
 650 139 650 139 666.5 144 c 128,-1,9
 683 149 683 149 698 163 c 1,10,-1
 715 163 l 1,11,-1
 715 0 l 1,12,-1
 32 0 l 1,13,-1
 32 110 l 1,0,-1
EndSplineSet
EndChar

StartChar: u.i
Encoding: 65539 -1 468
Width: 679
VWidth: 2441
GlyphClass: 2
Flags: HW
AnchorPoint: "Anchor-3" 558 0 basechar 0
AnchorPoint: "Anchor-2" 316 0 basechar 0
AnchorPoint: "Anchor-1" 616 1116 basechar 0
AnchorPoint: "Anchor-0" 325 1116 basechar 0
LayerCount: 2
Fore
SplineSet
288 -27 m 0,0,1
 207 -27 207 -27 150.5 18 c 128,-1,2
 94 63 94 63 63 177 c 128,-1,3
 32 291 32 291 32 494 c 2,4,-1
 34 1116 l 1,5,-1
 169 1116 l 1,6,-1
 169 494 l 2,7,8
 169 324 169 324 188.5 241.5 c 128,-1,9
 208 159 208 159 242 134.5 c 128,-1,10
 276 110 276 110 318 110 c 0,11,12
 388 110 388 110 442 205 c 128,-1,13
 496 300 496 300 496 501 c 2,14,-1
 496 1116 l 1,15,-1
 630 1116 l 1,16,-1
 630 173 l 2,17,18
 630 129 630 129 632.5 86.5 c 128,-1,19
 635 44 635 44 647 0 c 1,20,-1
 518 0 l 1,21,22
 506 42 506 42 504 78 c 128,-1,23
 502 114 502 114 502 156 c 1,24,25
 472 73 472 73 419.5 23 c 128,-1,26
 367 -27 367 -27 288 -27 c 0,0,1
EndSplineSet
EndChar

StartChar: r.serif
Encoding: 65540 -1 469
Width: 758
VWidth: 2441
GlyphClass: 1
Flags: HW
LayerCount: 2
Fore
SplineSet
32 -2 m 1,0,-1
 32 130 l 1,1,-1
 132 130 l 1,2,-1
 132 979 l 1,3,-1
 37 979 l 1,4,-1
 37 1116 l 1,5,-1
 281 1116 l 1,6,-1
 276 918 l 1,7,8
 313 1018 313 1018 376.5 1079 c 128,-1,9
 440 1140 440 1140 526 1140 c 0,10,11
 643 1140 643 1140 726 1020 c 1,12,-1
 670 852 l 1,13,14
 653 857 653 857 643 880.5 c 128,-1,15
 633 904 633 904 620 930.5 c 128,-1,16
 607 957 607 957 580 977 c 128,-1,17
 553 997 553 997 499 997 c 128,-1,18
 445 997 445 997 393.5 935.5 c 128,-1,19
 342 874 342 874 309 775 c 128,-1,20
 276 676 276 676 276 561 c 2,21,-1
 276 130 l 1,22,-1
 430 130 l 1,23,-1
 430 -2 l 1,24,-1
 32 -2 l 1,0,-1
EndSplineSet
EndChar

StartChar: ordfeminine
Encoding: 170 170 470
Width: 661
VWidth: 2441
GlyphClass: 1
Flags: HW
LayerCount: 2
Fore
SplineSet
32 513 m 1,0,-1
 629 513 l 1,1,-1
 629 389 l 1,2,-1
 32 389 l 1,3,-1
 32 513 l 1,0,-1
186 888 m 0,4,5
 186 815 186 815 215 781 c 128,-1,6
 244 747 244 747 291 747 c 0,7,8
 454 747 454 747 464 1057 c 1,9,10
 415 1064 415 1064 371 1065 c 0,11,12
 283 1065 283 1065 234.5 1025.5 c 128,-1,13
 186 986 186 986 186 888 c 0,4,5
273 632 m 0,14,15
 178 632 178 632 124 703 c 128,-1,16
 70 774 70 774 70 879 c 0,17,18
 70 1040 70 1040 153.5 1109.5 c 128,-1,19
 237 1179 237 1179 366 1179 c 0,20,21
 405 1179 405 1179 461 1169 c 1,22,23
 456 1313 456 1313 423.5 1363.5 c 128,-1,24
 391 1414 391 1414 312 1414 c 0,25,26
 231 1414 231 1414 166 1338 c 1,27,-1
 109 1431 l 1,28,29
 194.173076923 1533.00961538 194.173076923 1533.00961538 319.561482988 1533.00961538 c 0,0,0
 320.778846154 1533.00961538 320.778846154 1533.00961538 322 1533 c 0,30,31
 405 1533 405 1533 461 1498 c 128,-1,32
 517 1463 517 1463 545 1372 c 128,-1,33
 573 1281 573 1281 573 1113 c 2,34,-1
 573 652 l 1,35,-1
 459 652 l 1,36,-1
 459 771 l 1,37,38
 424 685 424 685 374 658.5 c 128,-1,39
 324 632 324 632 273 632 c 0,14,15
EndSplineSet
EndChar

StartChar: ordmasculine
Encoding: 186 186 471
Width: 661
VWidth: 2441
GlyphClass: 1
Flags: HW
LayerCount: 2
Fore
SplineSet
32 513 m 1,0,-1
 629 513 l 1,1,-1
 629 389 l 1,2,-1
 32 389 l 1,3,-1
 32 513 l 1,0,-1
331 755 m 0,4,5
 399 755 399 755 438.5 835.5 c 128,-1,6
 478 916 478 916 478 1084 c 0,7,8
 478 1259 478 1259 438 1337.5 c 128,-1,9
 398 1416 398 1416 331 1416 c 0,10,11
 265 1416 265 1416 224 1338 c 128,-1,12
 183 1260 183 1260 183 1084 c 0,13,14
 183 916 183 916 222 835.5 c 128,-1,15
 261 755 261 755 331 755 c 0,4,5
331 638 m 0,16,17
 212 638 212 638 136.5 744 c 128,-1,18
 61 850 61 850 61 1081 c 0,19,20
 61 1318 61 1318 136.5 1425.5 c 128,-1,21
 212 1533 212 1533 331 1533 c 0,22,23
 448 1533 448 1533 523 1425.5 c 128,-1,24
 598 1318 598 1318 598 1081 c 0,25,26
 598 849 598 849 523 743.5 c 128,-1,27
 448 638 448 638 331 638 c 0,16,17
EndSplineSet
EndChar

StartChar: uni2124
Encoding: 8484 8484 473
Width: 768
VWidth: 2441
GlyphClass: 1
Flags: HW
LayerCount: 2
Fore
SplineSet
648 1416 m 1,0,-1
 549 1416 l 1,1,-1
 121 103 l 1,2,-1
 220 103 l 1,3,-1
 648 1416 l 1,0,-1
736 1521 m 1,4,-1
 736 1402 l 1,5,-1
 315 103 l 1,6,-1
 626 103 l 2,7,8
 667 103 667 103 684.5 107.5 c 128,-1,9
 702 112 702 112 716 126 c 1,10,-1
 734 126 l 1,11,-1
 734 0 l 1,12,-1
 32 0 l 1,13,-1
 32 119 l 1,14,-1
 459 1416 l 1,15,-1
 34 1416 l 1,16,-1
 34 1521 l 1,17,-1
 736 1521 l 1,4,-1
EndSplineSet
EndChar

StartChar: zero
Encoding: 48 48 474
Width: 735
VWidth: 2441
GlyphClass: 1
Flags: HW
LayerCount: 2
Fore
SplineSet
368 114 m 0,0,1
 459 114 459 114 509 270.5 c 128,-1,2
 559 427 559 427 559 752 c 0,3,4
 559 869 559 869 552 967 c 1,5,-1
 210 345 l 1,6,7
 258 114 258 114 368 114 c 0,0,1
176 752 m 0,8,9
 176 613 176 613 186 501 c 1,10,-1
 533 1132 l 1,11,12
 484 1388 484 1388 368 1389 c 0,13,14
 282 1389 282 1389 229 1225.5 c 128,-1,15
 176 1062 176 1062 176 752 c 0,8,9
368 -27 m 128,-1,17
 209 -27 209 -27 120.5 164.5 c 128,-1,18
 32 356 32 356 32 752 c 0,19,20
 32 1136 32 1136 121 1333.5 c 128,-1,21
 210 1531 210 1531 368 1531 c 0,22,23
 527 1531 527 1531 615 1333 c 128,-1,24
 703 1135 703 1135 703 752 c 0,25,26
 703 356 703 356 615 164.5 c 128,-1,16
 527 -27 527 -27 368 -27 c 128,-1,17
EndSplineSet
Substitution2: "'ss02' Style Set 2 in Latin lookup 36 subtable" zero.ss02
Substitution2: "'zero' Slashed Zero in Latin lookup 33 subtable" zero.zero
Substitution2: "'frac' Diagonal Fractions in Latin lookup 24 subtable" zero.numr
Substitution2: "'dnom' Denominators in Latin lookup 22 subtable" zero.dnom
Substitution2: "'numr' Numerators in Latin lookup 21 subtable" zero.numr
Substitution2: "'sups' Superscript in Latin lookup 20 subtable" uni2070
Substitution2: "'subs' Subscript in Latin lookup 19 subtable" uni2080
AlternateSubs2: "'aalt' Access All Alternates in Latin lookup 1 subtable" zero.zero zero.ss02 uni2080 zero.dnom zero.numr uni2070
EndChar

StartChar: one
Encoding: 49 49 475
Width: 447
VWidth: 2441
GlyphClass: 1
Flags: HW
LayerCount: 2
Fore
SplineSet
270 0 m 1,0,-1
 270 1296 l 1,1,-1
 58 1206 l 1,2,-1
 32 1316 l 1,3,-1
 319 1523 l 1,4,-1
 415 1523 l 1,5,-1
 415 0 l 1,6,-1
 270 0 l 1,0,-1
EndSplineSet
Substitution2: "'frac' Diagonal Fractions in Latin lookup 24 subtable" one.numr
Substitution2: "'dnom' Denominators in Latin lookup 22 subtable" one.dnom
Substitution2: "'numr' Numerators in Latin lookup 21 subtable" one.numr
Substitution2: "'sups' Superscript in Latin lookup 20 subtable" uni00B9
Substitution2: "'subs' Subscript in Latin lookup 19 subtable" uni2081
AlternateSubs2: "'aalt' Access All Alternates in Latin lookup 1 subtable" uni2081 one.dnom one.numr uni00B9
EndChar

StartChar: two
Encoding: 50 50 476
Width: 721
VWidth: 2441
GlyphClass: 1
Flags: HW
LayerCount: 2
Fore
SplineSet
61 132 m 1,0,1
 215 356 215 356 320 520.5 c 128,-1,2
 425 685 425 685 481 822.5 c 128,-1,3
 537 960 537 960 537 1101 c 0,4,5
 537.083333333 1107.625 537.083333333 1107.625 537.083333333 1114.0859375 c 0,0,0
 537.083333333 1262.6875 537.083333333 1262.6875 493 1324.5 c 128,-1,6
 447 1389 447 1389 379 1389 c 0,7,8
 318 1389 318 1389 273 1361 c 128,-1,9
 228 1333 228 1333 188 1262 c 0,10,11
 171 1225 171 1225 169 1208 c 128,-1,12
 167 1191 167 1191 176 1172 c 1,13,-1
 169 1158 l 1,14,-1
 146 1165 l 1,15,-1
 32 1225 l 1,16,17
 83 1367 83 1367 169.5 1449 c 128,-1,18
 256 1531 256 1531 377 1531 c 0,19,20
 524 1531 524 1531 603 1420 c 128,-1,21
 682 1309 682 1309 682 1097 c 0,22,23
 682 936 682 936 619.5 784 c 128,-1,24
 557 632 557 632 455.5 474.5 c 128,-1,25
 354 317 354 317 237 142 c 1,26,-1
 582 142 l 2,27,28
 621 142 621 142 639 146.5 c 128,-1,29
 657 151 657 151 671 166 c 1,30,-1
 689 166 l 1,31,-1
 689 0 l 1,32,-1
 61 0 l 1,33,-1
 61 132 l 1,0,1
EndSplineSet
Substitution2: "'frac' Diagonal Fractions in Latin lookup 24 subtable" two.numr
Substitution2: "'dnom' Denominators in Latin lookup 22 subtable" two.dnom
Substitution2: "'numr' Numerators in Latin lookup 21 subtable" two.numr
Substitution2: "'sups' Superscript in Latin lookup 20 subtable" uni00B2
Substitution2: "'subs' Subscript in Latin lookup 19 subtable" uni2082
AlternateSubs2: "'aalt' Access All Alternates in Latin lookup 1 subtable" uni2082 two.dnom two.numr uni00B2
EndChar

StartChar: three
Encoding: 51 51 477
Width: 693
VWidth: 2441
GlyphClass: 1
Flags: HW
LayerCount: 2
Fore
SplineSet
337 -27 m 0,0,1
 237 -27 237 -27 162.5 24 c 128,-1,2
 88 75 88 75 32 163 c 1,3,-1
 137 259 l 1,4,-1
 154 275 l 1,5,-1
 167 263 l 1,6,7
 165 242 165 242 169.5 223.5 c 128,-1,8
 174 205 174 205 195 170 c 1,9,10
 222 143 222 143 255 127.5 c 128,-1,11
 288 112 288 112 332 112 c 0,12,13
 425 112 425 112 471.5 196.5 c 128,-1,14
 518 281 518 281 518 424 c 0,15,16
 518 597 518 597 442.5 671 c 128,-1,17
 381.77173913 730.52173913 381.77173913 730.52173913 278.019612476 730.52173913 c 0,0,0
 252.782608696 730.52173913 252.782608696 730.52173913 225 727 c 1,18,-1
 225 857 l 1,19,20
 339 857 339 857 393 900 c 128,-1,21
 447 943 447 943 464 1012 c 128,-1,22
 481 1081 481 1081 481 1160 c 0,23,24
 481 1274 481 1274 442 1332.5 c 128,-1,25
 403 1391 403 1391 340 1391 c 0,26,27
 242 1391 242 1391 167 1272 c 1,28,-1
 67 1347 l 1,29,30
 179 1531 179 1531 344 1531 c 0,31,32
 474 1531 474 1531 551 1432 c 128,-1,33
 628 1333 628 1333 628 1153 c 0,34,35
 628 1034 628 1034 587.5 941 c 128,-1,36
 547 848 547 848 462 808 c 1,37,38
 553 766 553 766 607 669.5 c 128,-1,39
 661 573 661 573 661 417 c 0,40,41
 661 219 661 219 576 96 c 128,-1,42
 491 -27 491 -27 337 -27 c 0,0,1
EndSplineSet
Substitution2: "'frac' Diagonal Fractions in Latin lookup 24 subtable" three.numr
Substitution2: "'dnom' Denominators in Latin lookup 22 subtable" three.dnom
Substitution2: "'numr' Numerators in Latin lookup 21 subtable" three.numr
Substitution2: "'sups' Superscript in Latin lookup 20 subtable" uni00B3
Substitution2: "'subs' Subscript in Latin lookup 19 subtable" uni2083
AlternateSubs2: "'aalt' Access All Alternates in Latin lookup 1 subtable" uni2083 three.dnom three.numr uni00B3
EndChar

StartChar: four
Encoding: 52 52 478
Width: 831
VWidth: 2441
GlyphClass: 1
Flags: HW
LayerCount: 2
Fore
SplineSet
184 517 m 1,0,-1
 470 517 l 1,1,-1
 470 1153 l 1,2,-1
 184 517 l 1,0,-1
470 0 m 1,3,-1
 470 378 l 1,4,-1
 32 378 l 1,5,-1
 32 498 l 1,6,-1
 496 1523 l 1,7,-1
 615 1523 l 1,8,-1
 615 515 l 1,9,-1
 736 515 l 1,10,-1
 736 376 l 1,11,-1
 615 376 l 1,12,-1
 615 0 l 1,13,-1
 470 0 l 1,3,-1
EndSplineSet
Substitution2: "'frac' Diagonal Fractions in Latin lookup 24 subtable" four.numr
Substitution2: "'dnom' Denominators in Latin lookup 22 subtable" four.dnom
Substitution2: "'numr' Numerators in Latin lookup 21 subtable" four.numr
Substitution2: "'sups' Superscript in Latin lookup 20 subtable" uni2074
Substitution2: "'subs' Subscript in Latin lookup 19 subtable" uni2084
AlternateSubs2: "'aalt' Access All Alternates in Latin lookup 1 subtable" uni2084 four.dnom four.numr uni2074
EndChar

StartChar: five
Encoding: 53 53 479
Width: 723
VWidth: 2441
GlyphClass: 1
Flags: HW
LayerCount: 2
Fore
SplineSet
356 -27 m 0,0,1
 258 -27 258 -27 172 27 c 128,-1,2
 86 81 86 81 32 193 c 1,3,-1
 137 275 l 1,4,-1
 156 291 l 1,5,-1
 167 278 l 1,6,7
 165 259 165 259 169.5 239 c 128,-1,8
 174 219 174 219 195 188 c 0,9,10
 258 113 258 113 359 112 c 0,11,12
 440 112 440 112 493.5 208.5 c 128,-1,13
 547 305 547 305 547 484 c 0,14,15
 547 668 547 668 492 760 c 128,-1,16
 437 852 437 852 351 852 c 0,17,18
 239 852 239 852 162 715 c 1,19,-1
 76 747 l 1,20,-1
 111 1521 l 1,21,-1
 649 1521 l 1,22,-1
 649 1377 l 1,23,-1
 239 1377 l 1,24,-1
 223 927 l 1,25,26
 262 954 262 954 302 968.5 c 128,-1,27
 342 983 342 983 386 983 c 0,28,29
 528 983 528 983 609.5 854 c 128,-1,30
 691 725 691 725 691 478 c 128,-1,31
 691 231 691 231 600.5 102 c 128,-1,32
 510 -27 510 -27 356 -27 c 0,0,1
EndSplineSet
Substitution2: "'frac' Diagonal Fractions in Latin lookup 24 subtable" five.numr
Substitution2: "'dnom' Denominators in Latin lookup 22 subtable" five.dnom
Substitution2: "'numr' Numerators in Latin lookup 21 subtable" five.numr
Substitution2: "'sups' Superscript in Latin lookup 20 subtable" uni2075
Substitution2: "'subs' Subscript in Latin lookup 19 subtable" uni2085
AlternateSubs2: "'aalt' Access All Alternates in Latin lookup 1 subtable" uni2085 five.dnom five.numr uni2075
EndChar

StartChar: six
Encoding: 54 54 480
Width: 702
VWidth: 2441
GlyphClass: 1
Flags: HW
LayerCount: 2
Fore
SplineSet
369 119 m 0,0,1
 437 119 437 119 482.5 213.5 c 128,-1,2
 528 308 528 308 528 480 c 0,3,4
 528 664 528 664 480.5 748 c 128,-1,5
 433 832 433 832 367 832 c 0,6,7
 306 832 306 832 258.5 779.5 c 128,-1,8
 211 727 211 727 176 643 c 1,9,10
 172.923076923 604.846153846 172.923076923 604.846153846 172.923076923 566.881656805 c 0,0,0
 172.923076923 481.461538462 172.923076923 481.461538462 188.5 397 c 128,-1,11
 211 275 211 275 258.5 197 c 128,-1,12
 306 119 306 119 369 119 c 0,0,1
365 -24 m 0,13,14
 206 -24 206 -24 119 158 c 128,-1,15
 32 340 32 340 32 694 c 0,16,17
 32 1126 32 1126 131 1332 c 128,-1,18
 230 1538 230 1538 409 1538 c 0,19,20
 490 1538 490 1538 548.5 1501.5 c 128,-1,21
 607 1465 607 1465 647 1396 c 1,22,-1
 567 1277 l 1,23,-1
 555 1260 l 1,24,-1
 542 1267 l 1,25,26
 540 1284 540 1284 537.5 1303.5 c 128,-1,27
 535 1323 535 1323 514 1353 c 1,28,29
 472.976744186 1394.02325581 472.976744186 1394.02325581 415.734991888 1394.02325581 c 0,0,0
 414.372093023 1394.02325581 414.372093023 1394.02325581 413 1394 c 0,30,31
 376 1394 376 1394 337 1374.5 c 128,-1,32
 298 1355 298 1355 263 1297.5 c 128,-1,33
 228 1240 228 1240 203.5 1132.5 c 128,-1,34
 179 1025 179 1025 179 852 c 1,35,36
 216 913 216 913 269.5 947 c 128,-1,37
 323 981 323 981 391 981 c 0,38,39
 508 981 508 981 589 844.5 c 128,-1,40
 670 708 670 708 670 484 c 0,41,42
 670 258 670 258 586 117 c 128,-1,43
 502 -24 502 -24 365 -24 c 0,13,14
EndSplineSet
Substitution2: "'frac' Diagonal Fractions in Latin lookup 24 subtable" six.numr
Substitution2: "'dnom' Denominators in Latin lookup 22 subtable" six.dnom
Substitution2: "'numr' Numerators in Latin lookup 21 subtable" six.numr
Substitution2: "'sups' Superscript in Latin lookup 20 subtable" uni2076
Substitution2: "'subs' Subscript in Latin lookup 19 subtable" uni2086
AlternateSubs2: "'aalt' Access All Alternates in Latin lookup 1 subtable" uni2086 six.dnom six.numr uni2076
EndChar

StartChar: seven
Encoding: 55 55 481
Width: 666
VWidth: 2441
GlyphClass: 1
Flags: HW
LayerCount: 2
Fore
SplineSet
149 0 m 1,0,1
 224 349 224 349 299.5 693 c 128,-1,2
 375 1037 375 1037 466 1374 c 1,3,-1
 32 1374 l 1,4,-1
 32 1521 l 1,5,-1
 634 1521 l 1,6,-1
 634 1435 l 1,7,8
 536 1083 536 1083 455.5 724.5 c 128,-1,9
 375 366 375 366 305 0 c 1,10,-1
 149 0 l 1,0,1
EndSplineSet
Substitution2: "'frac' Diagonal Fractions in Latin lookup 24 subtable" seven.numr
Substitution2: "'dnom' Denominators in Latin lookup 22 subtable" seven.dnom
Substitution2: "'numr' Numerators in Latin lookup 21 subtable" seven.numr
Substitution2: "'sups' Superscript in Latin lookup 20 subtable" uni2077
Substitution2: "'subs' Subscript in Latin lookup 19 subtable" uni2087
AlternateSubs2: "'aalt' Access All Alternates in Latin lookup 1 subtable" uni2087 seven.dnom seven.numr uni2077
EndChar

StartChar: eight
Encoding: 56 56 482
Width: 716
VWidth: 2441
GlyphClass: 1
Flags: HW
LayerCount: 2
Fore
SplineSet
359 117 m 0,0,1
 447 117 447 117 494.5 195 c 128,-1,2
 542 273 542 273 542 393 c 0,3,4
 542 637 542 637 344 737 c 1,5,6
 265 693 265 693 220.5 607.5 c 128,-1,7
 176 522 176 522 176 401 c 0,8,9
 176 282 176 282 227 199.5 c 128,-1,10
 278 117 278 117 359 117 c 0,0,1
381 886 m 1,11,12
 444 937 444 937 477 1012.5 c 128,-1,13
 510 1088 510 1088 510 1174 c 0,14,15
 510 1272 510 1272 472.5 1337 c 128,-1,16
 435 1402 435 1402 361 1402 c 0,17,18
 288 1402 288 1402 254 1338 c 128,-1,19
 220 1274 220 1274 220 1181 c 0,20,21
 220 1069 220 1069 261 1008 c 128,-1,22
 302 947 302 947 381 886 c 1,11,12
356 -24 m 128,-1,24
 205 -24 205 -24 118.5 89.5 c 128,-1,25
 32 203 32 203 32 384 c 0,26,27
 32 528 32 528 87 640 c 128,-1,28
 142 752 142 752 239 818 c 1,29,30
 166 869 166 869 124.5 962 c 128,-1,31
 83 1055 83 1055 83 1165 c 0,32,33
 83 1331 83 1331 154 1435.5 c 128,-1,34
 225 1540 225 1540 367 1540 c 0,35,36
 514 1540 514 1540 580.5 1439 c 128,-1,37
 647 1338 647 1338 647 1179 c 0,38,39
 647 1069 647 1069 607 969 c 128,-1,40
 567 869 567 869 489 811 c 1,41,42
 582 750 582 750 633 644 c 128,-1,43
 684 538 684 538 684 393 c 0,44,45
 684 205 684 205 595.5 90.5 c 128,-1,23
 507 -24 507 -24 356 -24 c 128,-1,24
EndSplineSet
Substitution2: "'frac' Diagonal Fractions in Latin lookup 24 subtable" eight.numr
Substitution2: "'dnom' Denominators in Latin lookup 22 subtable" eight.dnom
Substitution2: "'numr' Numerators in Latin lookup 21 subtable" eight.numr
Substitution2: "'sups' Superscript in Latin lookup 20 subtable" uni2078
Substitution2: "'subs' Subscript in Latin lookup 19 subtable" uni2088
AlternateSubs2: "'aalt' Access All Alternates in Latin lookup 1 subtable" uni2088 eight.dnom eight.numr uni2078
EndChar

StartChar: nine
Encoding: 57 57 483
Width: 699
VWidth: 2441
GlyphClass: 1
Flags: HW
LayerCount: 2
Fore
SplineSet
169 1037 m 0,0,1
 169 893 169 893 221.5 806.5 c 128,-1,2
 274 720 274 720 344 720 c 0,3,4
 463 720 463 720 530 818 c 1,5,6
 528 1123 528 1123 484 1257 c 128,-1,7
 440 1391 440 1391 342 1391 c 0,8,9
 267 1391 267 1391 218 1306 c 128,-1,10
 169 1221 169 1221 169 1037 c 0,0,1
306 -24 m 1,11,12
 143 -24 143 -24 47 105 c 1,13,-1
 120 222 l 1,14,-1
 132 244 l 1,15,-1
 145 237 l 1,16,17
 152 216 152 216 158 194.5 c 128,-1,18
 164 173 164 173 188 144 c 1,19,20
 232 112 232 112 293 112 c 0,21,22
 374 112 374 112 423 190 c 128,-1,23
 472 268 472 268 496.5 394 c 128,-1,24
 521 520 521 520 528 662 c 1,25,26
 491 623 491 623 446.5 602 c 128,-1,27
 402 581 402 581 342 581 c 0,28,29
 207 581 207 581 119.5 706.5 c 128,-1,30
 32 832 32 832 32 1035 c 0,31,32
 32 1272 32 1272 121.5 1401.5 c 128,-1,33
 211 1531 211 1531 337 1531 c 0,34,35
 500 1531 500 1531 583.5 1366.5 c 128,-1,36
 667 1202 667 1202 667 886 c 0,37,38
 667 406 667 406 577 193.5 c 128,-1,39
 487 -19 487 -19 306 -24 c 1,11,12
EndSplineSet
Substitution2: "'frac' Diagonal Fractions in Latin lookup 24 subtable" nine.numr
Substitution2: "'dnom' Denominators in Latin lookup 22 subtable" nine.dnom
Substitution2: "'numr' Numerators in Latin lookup 21 subtable" nine.numr
Substitution2: "'sups' Superscript in Latin lookup 20 subtable" uni2079
Substitution2: "'subs' Subscript in Latin lookup 19 subtable" uni2089
AlternateSubs2: "'aalt' Access All Alternates in Latin lookup 1 subtable" uni2089 nine.dnom nine.numr uni2079
EndChar

StartChar: zero.zero
Encoding: 65541 -1 484
Width: 735
VWidth: 2441
GlyphClass: 1
Flags: HW
LayerCount: 2
Fore
SplineSet
366 657 m 0,0,1
 324 657 324 657 295 688.5 c 128,-1,2
 266 720 266 720 266 764 c 0,3,4
 266 810 266 810 295.5 842 c 128,-1,5
 325 874 325 874 366 874 c 0,6,7
 408 874 408 874 438 842.5 c 128,-1,8
 468 811 468 811 468 764 c 0,9,10
 468 720 468 720 439 688.5 c 128,-1,11
 410 657 410 657 366 657 c 0,0,1
368 114 m 0,12,13
 459 114 459 114 509 270.5 c 128,-1,14
 559 427 559 427 559 752 c 0,15,16
 559 1062 559 1062 509 1225.5 c 128,-1,17
 459 1389 459 1389 368 1389 c 0,18,19
 282 1389 282 1389 229 1225.5 c 128,-1,20
 176 1062 176 1062 176 752 c 0,21,22
 176 428 176 428 229 271 c 128,-1,23
 282 114 282 114 368 114 c 0,12,13
368 -27 m 128,-1,25
 209 -27 209 -27 120.5 164.5 c 128,-1,26
 32 356 32 356 32 752 c 0,27,28
 32 1136 32 1136 121 1333.5 c 128,-1,29
 210 1531 210 1531 368 1531 c 0,30,31
 527 1531 527 1531 615 1333 c 128,-1,32
 703 1135 703 1135 703 752 c 0,33,34
 703 356 703 356 615 164.5 c 128,-1,24
 527 -27 527 -27 368 -27 c 128,-1,25
EndSplineSet
EndChar

StartChar: zero.ss02
Encoding: 65542 -1 485
Width: 735
VWidth: 2441
GlyphClass: 1
Flags: HW
LayerCount: 2
Fore
SplineSet
368 114 m 0,0,1
 459 114 459 114 509 270.5 c 128,-1,2
 559 427 559 427 559 752 c 0,3,4
 559 1062 559 1062 509 1225.5 c 128,-1,5
 459 1389 459 1389 368 1389 c 0,6,7
 282 1389 282 1389 229 1225.5 c 128,-1,8
 176 1062 176 1062 176 752 c 0,9,10
 176 428 176 428 229 271 c 128,-1,11
 282 114 282 114 368 114 c 0,0,1
368 -27 m 128,-1,13
 209 -27 209 -27 120.5 164.5 c 128,-1,14
 32 356 32 356 32 752 c 0,15,16
 32 1136 32 1136 121 1333.5 c 128,-1,17
 210 1531 210 1531 368 1531 c 0,18,19
 527 1531 527 1531 615 1333 c 128,-1,20
 703 1135 703 1135 703 752 c 0,21,22
 703 356 703 356 615 164.5 c 128,-1,12
 527 -27 527 -27 368 -27 c 128,-1,13
EndSplineSet
EndChar

StartChar: uni2070
Encoding: 8304 8304 516
Width: 532
VWidth: 2441
GlyphClass: 1
Flags: HW
LayerCount: 2
Fore
SplineSet
266 689 m 0,0,1
 327 689 327 689 360 781.5 c 128,-1,2
 393 874 393 874 393 1067 c 0,3,4
 393 1133 393 1133 388 1186 c 1,5,-1
 161 823 l 1,6,7
 193 689 193 689 266 689 c 0,0,1
139 1067 m 0,8,9
 139 992 139 992 144 930 c 1,10,-1
 374 1302 l 1,11,12
 342.220689655 1445.00689655 342.220689655 1445.00689655 267.046183115 1445.00689655 c 0,13,14
 266.524137931 1445.00689655 266.524137931 1445.00689655 266 1445 c 0,15,16
 208 1445 208 1445 173.5 1349 c 128,-1,17
 139 1253 139 1253 139 1067 c 0,8,9
266 583 m 128,-1,19
 156 583 156 583 94 701.5 c 128,-1,20
 32 820 32 820 32 1067 c 0,21,22
 32 1309 32 1309 94 1429.5 c 128,-1,23
 156 1550 156 1550 266 1550 c 128,-1,24
 376 1550 376 1550 438 1429.5 c 128,-1,25
 500 1309 500 1309 500 1067 c 0,26,27
 500 820 500 820 438 701.5 c 128,-1,18
 376 583 376 583 266 583 c 128,-1,19
EndSplineSet
Substitution2: "'ss02' Style Set 2 in Latin lookup 36 subtable" uni2070.ss02
Substitution2: "'zero' Slashed Zero in Latin lookup 33 subtable" uni2070.zero
AlternateSubs2: "'aalt' Access All Alternates in Latin lookup 1 subtable" uni2070.ss02 uni2070.zero
EndChar

StartChar: uni00B9
Encoding: 185 185 517
Width: 338
VWidth: 2441
GlyphClass: 1
Flags: HW
LayerCount: 2
Fore
SplineSet
194 601 m 1,0,-1
 194 1386 l 1,1,-1
 57 1330 l 1,2,-1
 32 1416 l 1,3,-1
 228 1545 l 1,4,-1
 306 1545 l 1,5,-1
 306 601 l 1,6,-1
 194 601 l 1,0,-1
EndSplineSet
EndChar

StartChar: uni00B2
Encoding: 178 178 518
Width: 521
VWidth: 2441
GlyphClass: 1
Flags: HW
LayerCount: 2
Fore
SplineSet
51 691 m 1,0,1
 156 833 156 833 228 932.5 c 128,-1,2
 300 1032 300 1032 337 1114.5 c 128,-1,3
 374 1197 374 1197 377 1284 c 0,4,5
 377 1367 377 1367 347 1406 c 128,-1,6
 317 1445 317 1445 272 1445 c 0,7,8
 211 1445 211 1445 169 1409 c 1,9,10
 150 1374 150 1374 144.5 1356 c 128,-1,11
 139 1338 139 1338 144 1318 c 1,12,-1
 137 1307 l 1,13,-1
 114 1316 l 1,14,-1
 32 1363 l 1,15,16
 69 1451 69 1451 127.5 1500.5 c 128,-1,17
 186 1550 186 1550 272 1550 c 0,18,19
 370 1550 370 1550 428 1480.5 c 128,-1,20
 486 1411 486 1411 486 1279 c 0,21,22
 486 1181 486 1181 447 1092.5 c 128,-1,23
 408 1004 408 1004 342 909.5 c 128,-1,24
 276 815 276 815 198 706 c 1,25,-1
 381 706 l 2,26,27
 423 706 423 706 439.5 710.5 c 128,-1,28
 456 715 456 715 471 730 c 1,29,-1
 489 730 l 1,30,-1
 489 601 l 1,31,-1
 51 601 l 1,32,-1
 51 691 l 1,0,1
EndSplineSet
EndChar

StartChar: uni00B3
Encoding: 179 179 519
Width: 504
VWidth: 2441
GlyphClass: 1
Flags: HW
LayerCount: 2
Fore
SplineSet
242 583 m 0,0,1
 176 583 176 583 122.5 615 c 128,-1,2
 69 647 69 647 32 701 c 1,3,-1
 102 771 l 1,4,-1
 123 789 l 1,5,-1
 132 774 l 1,6,7
 132 755 132 755 141.5 740 c 128,-1,8
 151 725 151 725 181 696 c 1,9,10
 205 684 205 684 237 683 c 0,11,12
 361 683 361 683 361 864 c 0,13,14
 361 969 361 969 309.5 1012 c 0,15,16
 269.955357143 1045.01785714 269.955357143 1045.01785714 207.121332908 1045.01785714 c 0,17,18
 188.125 1045.01785714 188.125 1045.01785714 167 1042 c 1,19,-1
 167 1140 l 1,20,21
 277 1140 277 1140 307 1191 c 128,-1,22
 337 1242 337 1242 337 1316 c 0,23,24
 337 1382 337 1382 311.5 1416.5 c 128,-1,25
 286 1451 286 1451 244 1451 c 0,26,27
 176 1451 176 1451 127 1379 c 1,28,-1
 51 1435 l 1,29,30
 130 1549 130 1549 247 1550 c 0,31,32
 338 1550 338 1550 393.5 1489 c 128,-1,33
 449 1428 449 1428 449 1316 c 0,34,35
 449 1241 449 1241 421 1183 c 128,-1,36
 393 1125 393 1125 340 1104 c 1,37,38
 398 1077 398 1077 435 1017 c 128,-1,39
 472 957 472 957 472 859 c 0,40,41
 472 735 472 735 412 659 c 128,-1,42
 352 583 352 583 242 583 c 0,0,1
EndSplineSet
EndChar

StartChar: uni2074
Encoding: 8308 8308 520
Width: 562
VWidth: 2441
GlyphClass: 1
Flags: HW
LayerCount: 2
Fore
SplineSet
149 932 m 1,0,-1
 337 932 l 1,1,-1
 337 1289 l 1,2,-1
 149 932 l 1,0,-1
335 601 m 1,3,-1
 335 830 l 1,4,-1
 32 830 l 1,5,-1
 32 916 l 1,6,-1
 359 1545 l 1,7,-1
 444 1545 l 1,8,-1
 444 932 l 1,9,-1
 530 932 l 1,10,-1
 530 827 l 1,11,-1
 444 827 l 1,12,-1
 444 601 l 1,13,-1
 335 601 l 1,3,-1
EndSplineSet
EndChar

StartChar: uni2075
Encoding: 8309 8309 521
Width: 523
VWidth: 2441
GlyphClass: 1
Flags: HW
LayerCount: 2
Fore
SplineSet
256 583 m 0,0,1
 188 583 188 583 127.5 617.5 c 128,-1,2
 67 652 67 652 32 725 c 1,3,-1
 111 783 l 1,4,-1
 130 799 l 1,5,-1
 139 783 l 1,6,7
 137 764 137 764 146.5 748 c 128,-1,8
 156 732 156 732 183 703 c 1,9,10
 215 686 215 686 256 685 c 0,11,12
 310 685 310 685 345.5 742 c 128,-1,13
 381 799 381 799 381 901 c 0,14,15
 381 1008 381 1008 345.5 1063 c 128,-1,16
 310 1118 310 1118 254 1118 c 0,17,18
 179 1118 179 1118 130 1037 c 1,19,-1
 62 1060 l 1,20,-1
 83 1543 l 1,21,-1
 459 1543 l 1,22,-1
 459 1440 l 1,23,-1
 183 1440 l 1,24,-1
 174 1179 l 1,25,26
 225 1216 225 1216 284 1216 c 0,27,28
 379 1216 379 1216 435 1135.5 c 128,-1,29
 491 1055 491 1055 491 901 c 128,-1,30
 491 747 491 747 427 665 c 128,-1,31
 363 583 363 583 256 583 c 0,0,1
EndSplineSet
EndChar

StartChar: uni2076
Encoding: 8310 8310 522
Width: 509
VWidth: 2441
GlyphClass: 1
Flags: HW
LayerCount: 2
Fore
SplineSet
269 691 m 128,-1,1
 311 691 311 691 341.5 745 c 128,-1,2
 372 799 372 799 372 901 c 0,3,4
 372 1006 372 1006 340.5 1056 c 128,-1,5
 309 1106 309 1106 267 1106 c 0,6,7
 228 1106 228 1106 197.5 1077 c 128,-1,8
 167 1048 167 1048 144 999 c 1,9,10
 142.75 978.75 142.75 978.75 142.75 959.1875 c 0,11,12
 142.75 900.5 142.75 900.5 154 848 c 0,13,14
 169 778 169 778 198 734.5 c 128,-1,0
 227 691 227 691 269 691 c 128,-1,1
264 587 m 0,15,16
 152 587 152 587 92 699 c 128,-1,17
 32 811 32 811 32 1030 c 0,18,19
 32 1296 32 1296 103 1426 c 128,-1,20
 174 1556 174 1556 295 1556 c 0,21,22
 400 1556 400 1556 467 1465 c 1,23,-1
 405 1382 l 1,24,-1
 393 1365 l 1,25,-1
 381 1374 l 1,26,27
 379 1391 379 1391 372 1406 c 128,-1,28
 365 1421 365 1421 337 1442 c 0,29,30
 330 1444 330 1444 320.5 1445.5 c 128,-1,31
 311 1447 311 1447 300 1447 c 0,32,33
 270 1447 270 1447 235 1425.5 c 128,-1,34
 200 1404 200 1404 173 1335.5 c 128,-1,35
 146 1267 146 1267 142 1132 c 1,36,37
 193 1211 193 1211 286 1211 c 0,38,39
 367 1211 367 1211 422 1129.5 c 128,-1,40
 477 1048 477 1048 477 904 c 0,41,42
 477 762 477 762 419.5 674.5 c 128,-1,43
 362 587 362 587 264 587 c 0,15,16
EndSplineSet
EndChar

StartChar: uni2077
Encoding: 8311 8311 523
Width: 487
VWidth: 2441
GlyphClass: 1
Flags: HW
LayerCount: 2
Fore
SplineSet
108 601 m 1,0,1
 159 816 159 816 211.5 1022 c 128,-1,2
 264 1228 264 1228 325 1435 c 1,3,-1
 32 1435 l 1,4,-1
 32 1543 l 1,5,-1
 455 1543 l 1,6,-1
 455 1475 l 1,7,8
 323 1046 323 1046 230 601 c 1,9,-1
 108 601 l 1,0,1
EndSplineSet
EndChar

StartChar: uni2078
Encoding: 8312 8312 524
Width: 521
VWidth: 2441
GlyphClass: 1
Flags: HW
LayerCount: 2
Fore
SplineSet
261 691 m 0,0,1
 317 691 317 691 349 732.5 c 128,-1,2
 381 774 381 774 381 848 c 0,3,4
 381 990 381 990 247 1048 c 1,5,6
 201 1021 201 1021 170 972 c 128,-1,7
 139 923 139 923 139 852 c 0,8,9
 139 779 139 779 173 735 c 128,-1,10
 207 691 207 691 261 691 c 0,0,1
276 1155 m 1,11,12
 359 1216 359 1216 359 1326 c 0,13,14
 359 1382 359 1382 333 1417.5 c 128,-1,15
 307 1453 307 1453 261 1453 c 128,-1,16
 215 1453 215 1453 192 1417.5 c 128,-1,17
 169 1382 169 1382 169 1330 c 0,18,19
 169 1262 169 1262 198 1224.5 c 128,-1,20
 227 1187 227 1187 276 1155 c 1,11,12
258 587 m 0,21,22
 153 587 153 587 92.5 656 c 128,-1,23
 32 725 32 725 32 837 c 0,24,25
 32 928 32 928 68.5 997.5 c 128,-1,26
 105 1067 105 1067 169 1109 c 1,27,28
 66.9903846154 1178.32692308 66.9903846154 1178.32692308 66.9903846154 1318.27588757 c 0,29,30
 66.9903846154 1425.9877451 66.9903846154 1425.9877451 118 1491 c 128,-1,31
 169 1556 169 1556 267 1556 c 0,32,33
 367 1556 367 1556 415.5 1492 c 128,-1,34
 464 1428 464 1428 464 1330 c 0,35,36
 464 1260 464 1260 437 1198.5 c 128,-1,37
 410 1137 410 1137 359 1101 c 1,38,39
 489 1022 489 1022 489 845 c 0,40,41
 489 728 489 728 427 657.5 c 128,-1,42
 365 587 365 587 258 587 c 0,21,22
EndSplineSet
EndChar

StartChar: uni2079
Encoding: 8313 8313 525
Width: 509
VWidth: 2441
GlyphClass: 1
Flags: HW
LayerCount: 2
Fore
SplineSet
137 1240 m 0,0,1
 137 1154 137 1154 171 1104.5 c 128,-1,2
 205 1055 205 1055 254 1055 c 0,3,4
 329 1055 329 1055 374 1111 c 1,5,6
 372 1297 372 1297 342.5 1372 c 128,-1,7
 313 1447 313 1447 251 1447 c 0,8,9
 200 1447 200 1447 168.5 1397 c 128,-1,10
 137 1347 137 1347 137 1240 c 0,0,1
225 587 m 0,11,12
 108 587 108 587 39 669 c 1,13,-1
 98 755 l 1,14,-1
 111 774 l 1,15,-1
 125 764 l 1,16,17
 130 745 130 745 140.5 730 c 128,-1,18
 151 715 151 715 183 691 c 0,19,20
 188 689 188 689 198 687 c 128,-1,21
 208 685 208 685 218 685 c 0,22,23
 291 685 291 685 326.5 779.5 c 128,-1,24
 362 874 362 874 372 1001 c 1,25,26
 321 952 321 952 249 952 c 0,27,28
 156 952 156 952 94 1030.5 c 128,-1,29
 32 1109 32 1109 32 1242 c 0,30,31
 32 1389 32 1389 96 1469.5 c 128,-1,32
 160 1550 160 1550 249 1550 c 0,33,34
 363 1550 363 1550 420 1447.5 c 128,-1,35
 477 1345 477 1345 477 1146 c 0,36,37
 477 853 477 853 413 721 c 128,-1,38
 349 589 349 589 225 587 c 0,11,12
EndSplineSet
EndChar

StartChar: fraction
Encoding: 8260 8260 526
Width: 697
VWidth: 2441
GlyphClass: 1
Flags: HW
LayerCount: 2
Fore
SplineSet
120 -103 m 1,0,-1
 32 -54 l 1,1,-1
 574 1624 l 1,2,-1
 665 1572 l 1,3,-1
 120 -103 l 1,0,-1
EndSplineSet
EndChar

StartChar: onehalf
Encoding: 189 189 527
Width: 735
VWidth: 2441
GlyphClass: 1
Flags: HW
LayerCount: 2
Fore
SplineSet
407 -170 m 1,0,-1
 407 -93 l 1,1,2
 480 19 480 19 529.5 97 c 128,-1,3
 579 175 579 175 604.5 237.5 c 128,-1,4
 630 300 630 300 630 368 c 0,5,6
 630 429 630 429 611.5 459 c 128,-1,7
 593 489 593 489 560 489 c 0,8,9
 528 489 528 489 503.5 468 c 128,-1,10
 479 447 479 447 460 393 c 1,11,-1
 395 432 l 1,12,13
 421 500 421 500 462 540.5 c 128,-1,14
 503 581 503 581 562 581 c 0,15,16
 631 581 631 581 672.5 526 c 128,-1,17
 714 471 714 471 714 366 c 0,18,19
 714 249 714 249 658.5 150 c 128,-1,20
 603 51 603 51 521 -81 c 1,21,-1
 716 -81 l 1,22,-1
 716 -170 l 1,23,-1
 407 -170 l 1,0,-1
172 -103 m 1,24,-1
 95 -54 l 1,25,-1
 571 1624 l 1,26,-1
 650 1572 l 1,27,-1
 172 -103 l 1,24,-1
121 927 m 1,28,-1
 121 1540 l 1,29,-1
 29 1494 l 1,30,-1
 12 1572 l 1,31,-1
 147 1675 l 1,32,-1
 209 1675 l 1,33,-1
 209 927 l 1,34,-1
 121 927 l 1,28,-1
EndSplineSet
EndChar

StartChar: onequarter
Encoding: 188 188 528
Width: 712
VWidth: 2441
GlyphClass: 1
Flags: HW
LayerCount: 2
Fore
SplineSet
447 98 m 1,0,-1
 564 98 l 1,1,-1
 564 359 l 1,2,-1
 447 98 l 1,0,-1
562 -170 m 1,3,-1
 562 7 l 1,4,-1
 360 7 l 1,5,-1
 360 83 l 1,6,-1
 584 576 l 1,7,-1
 646 576 l 1,8,-1
 646 98 l 1,9,-1
 704 98 l 1,10,-1
 704 5 l 1,11,-1
 646 5 l 1,12,-1
 646 -170 l 1,13,-1
 562 -170 l 1,3,-1
157 -103 m 1,14,-1
 81 -54 l 1,15,-1
 550 1624 l 1,16,-1
 628 1572 l 1,17,-1
 157 -103 l 1,14,-1
107 927 m 1,18,-1
 107 1540 l 1,19,-1
 16 1494 l 1,20,-1
 0 1572 l 1,21,-1
 133 1675 l 1,22,-1
 193 1675 l 1,23,-1
 193 927 l 1,24,-1
 107 927 l 1,18,-1
EndSplineSet
EndChar

StartChar: threequarters
Encoding: 190 190 529
Width: 691
VWidth: 2441
GlyphClass: 1
Flags: HW
LayerCount: 2
Fore
SplineSet
548 98 m 1,0,-1
 548 359 l 1,1,-1
 434 98 l 1,2,-1
 548 98 l 1,0,-1
546 7 m 1,3,-1
 350 7 l 1,4,-1
 350 83 l 1,5,-1
 567 576 l 1,6,-1
 628 576 l 1,7,-1
 628 98 l 1,8,-1
 684 98 l 1,9,-1
 684 5 l 1,10,-1
 628 5 l 1,11,-1
 628 -170 l 1,12,-1
 546 -170 l 1,13,-1
 546 7 l 1,3,-1
152 -103 m 1,14,-1
 78 -54 l 1,15,-1
 534 1624 l 1,16,-1
 610 1572 l 1,17,-1
 152 -103 l 1,14,-1
123 916 m 0,18,19
 78 916 78 916 41.5 940 c 128,-1,20
 5 964 5 964 -20 1006 c 1,21,-1
 29 1067 l 1,22,-1
 46 1084 l 1,23,-1
 52 1076 l 1,24,25
 51.5 1072.625 51.5 1072.625 51.5 1069.15625 c 0,0,0
 51.5 1044.875 51.5 1044.875 76 1016 c 0,26,27
 92 1002 92 1002 119 1001 c 0,28,29
 197 1001 197 1001 197 1135 c 0,30,31
 197 1218 197 1218 165.5 1249.5 c 128,-1,32
 141 1274 141 1274 96.8395061728 1274 c 0,0,0
 84.2222222222 1274 84.2222222222 1274 70 1272 c 1,33,-1
 70 1358 l 1,34,35
 73.5662650602 1357.90361446 73.5662650602 1357.90361446 77.0082740601 1357.90361446 c 0,0,0
 144.987951807 1357.90361446 144.987951807 1357.90361446 164.5 1395.5 c 128,-1,36
 185 1435 185 1435 185 1489 c 0,37,38
 185 1540 185 1540 167.5 1565.5 c 128,-1,39
 150 1591 150 1591 123 1591 c 0,40,41
 78 1591 78 1591 48 1535 c 1,42,-1
 -6 1587 l 1,43,44
 19 1633 19 1633 54 1656.5 c 128,-1,45
 89 1680 89 1680 126 1680 c 0,46,47
 187 1680 187 1680 226 1631 c 128,-1,48
 265 1582 265 1582 265 1491 c 0,49,50
 265 1365 265 1365 193 1326 c 1,51,52
 230 1305 230 1305 254.5 1258 c 128,-1,53
 279 1211 279 1211 279 1132 c 0,54,55
 279 1032 279 1032 238 974 c 128,-1,56
 197 916 197 916 123 916 c 0,18,19
EndSplineSet
EndChar

StartChar: uni2070.ss02
Encoding: 65566 -1 533
Width: 532
VWidth: 2441
GlyphClass: 1
Flags: HW
LayerCount: 2
Fore
SplineSet
266 689 m 0,0,1
 327 689 327 689 360 781.5 c 128,-1,2
 393 874 393 874 393 1067 c 0,3,4
 393 1253 393 1253 360.5 1349 c 128,-1,5
 328 1445 328 1445 266 1445 c 0,6,7
 208 1445 208 1445 173.5 1349 c 128,-1,8
 139 1253 139 1253 139 1067 c 0,9,10
 139 874 139 874 173.5 781.5 c 128,-1,11
 208 689 208 689 266 689 c 0,0,1
266 583 m 128,-1,13
 156 583 156 583 94 701.5 c 128,-1,14
 32 820 32 820 32 1067 c 0,15,16
 32 1309 32 1309 94 1429.5 c 128,-1,17
 156 1550 156 1550 266 1550 c 128,-1,18
 376 1550 376 1550 438 1429.5 c 128,-1,19
 500 1309 500 1309 500 1067 c 0,20,21
 500 820 500 820 438 701.5 c 128,-1,12
 376 583 376 583 266 583 c 128,-1,13
EndSplineSet
EndChar

StartChar: uni2070.zero
Encoding: 65570 -1 537
Width: 532
VWidth: 2441
GlyphClass: 1
Flags: HW
LayerCount: 2
Fore
SplineSet
270 1032 m 128,-1,1
 246 1032 246 1032 228 1052 c 128,-1,2
 210 1072 210 1072 210 1099 c 128,-1,3
 210 1126 210 1126 228.5 1145.5 c 128,-1,4
 247 1165 247 1165 270 1165 c 0,5,6
 294 1165 294 1165 313 1145 c 128,-1,7
 332 1125 332 1125 332 1099 c 0,8,9
 332 1072 332 1072 313 1052 c 128,-1,0
 294 1032 294 1032 270 1032 c 128,-1,1
266 689 m 0,10,11
 327 689 327 689 360 781.5 c 128,-1,12
 393 874 393 874 393 1067 c 0,13,14
 393 1253 393 1253 360.5 1349 c 128,-1,15
 328 1445 328 1445 266 1445 c 0,16,17
 208 1445 208 1445 173.5 1349 c 128,-1,18
 139 1253 139 1253 139 1067 c 0,19,20
 139 874 139 874 173.5 781.5 c 128,-1,21
 208 689 208 689 266 689 c 0,10,11
266 583 m 128,-1,23
 156 583 156 583 94 701.5 c 128,-1,24
 32 820 32 820 32 1067 c 0,25,26
 32 1309 32 1309 94 1429.5 c 128,-1,27
 156 1550 156 1550 266 1550 c 128,-1,28
 376 1550 376 1550 438 1429.5 c 128,-1,29
 500 1309 500 1309 500 1067 c 0,30,31
 500 820 500 820 438 701.5 c 128,-1,22
 376 583 376 583 266 583 c 128,-1,23
EndSplineSet
EndChar

StartChar: period
Encoding: 46 46 538
Width: 281
VWidth: 2607
GlyphClass: 1
Flags: HW
LayerCount: 2
Fore
SplineSet
142 136 m 0,0,1
 96 136 96 136 64 173 c 128,-1,2
 32 210 32 210 32 259 c 128,-1,3
 32 308 32 308 63.5 343 c 128,-1,4
 95 378 95 378 142 378 c 0,5,6
 186 378 186 378 217.5 343 c 128,-1,7
 249 308 249 308 249 259 c 128,-1,8
 249 210 249 210 217.5 173 c 128,-1,9
 186 136 186 136 142 136 c 0,0,1
EndSplineSet
EndChar

StartChar: comma
Encoding: 44 44 539
Width: 318
VWidth: 2607
GlyphClass: 1
Flags: HW
LayerCount: 2
Fore
SplineSet
98 -244 m 1,0,-1
 32 -183 l 1,1,2
 81 -120 81 -120 112.5 -55 c 128,-1,3
 144 10 144 10 144 56 c 0,4,5
 144 91 144 91 122 115 c 128,-1,6
 100 139 100 139 78 168.5 c 128,-1,7
 56 198 56 198 56 241 c 0,8,9
 56 302 56 302 88 340 c 128,-1,10
 120 378 120 378 163 378 c 0,11,12
 209 378 209 378 247.5 334 c 128,-1,13
 286 290 286 290 286 201 c 0,14,15
 286 103 286 103 237.5 -3 c 128,-1,16
 189 -109 189 -109 98 -244 c 1,0,-1
EndSplineSet
EndChar

StartChar: colon
Encoding: 58 58 540
Width: 285
VWidth: 2716
GlyphClass: 1
Flags: HW
LayerCount: 2
Fore
SplineSet
142 245 m 128,-1,1
 96 245 96 245 64 281 c 128,-1,2
 32 317 32 317 32 368 c 0,3,4
 32 417 32 417 65 452 c 128,-1,5
 98 487 98 487 142 487 c 128,-1,6
 186 487 186 487 219.5 452 c 128,-1,7
 253 417 253 417 253 368 c 128,-1,8
 253 319 253 319 220.5 282 c 128,-1,0
 188 245 188 245 142 245 c 128,-1,1
142 1046 m 128,-1,10
 98 1046 98 1046 65 1082 c 128,-1,11
 32 1118 32 1118 32 1167 c 128,-1,12
 32 1216 32 1216 65 1252 c 128,-1,13
 98 1288 98 1288 142 1288 c 128,-1,14
 186 1288 186 1288 219.5 1251 c 128,-1,15
 253 1214 253 1214 253 1167 c 0,16,17
 253 1118 253 1118 219.5 1082 c 128,-1,9
 186 1046 186 1046 142 1046 c 128,-1,10
EndSplineSet
EndChar

StartChar: semicolon
Encoding: 59 59 541
Width: 318
VWidth: 2716
GlyphClass: 1
Flags: HW
LayerCount: 2
Fore
SplineSet
98 -135 m 1,0,-1
 32 -74 l 1,1,2
 81 -11 81 -11 112.5 54 c 128,-1,3
 144 119 144 119 144 165 c 0,4,5
 144 200 144 200 122 224 c 128,-1,6
 100 248 100 248 78 277.5 c 128,-1,7
 56 307 56 307 56 350 c 0,8,9
 56 411 56 411 87.5 449 c 128,-1,10
 119 487 119 487 163 487 c 0,11,12
 209 487 209 487 247.5 443 c 128,-1,13
 286 399 286 399 286 310 c 0,14,15
 286 212 286 212 237.5 106 c 128,-1,16
 189 0 189 0 98 -135 c 1,0,-1
163 1046 m 128,-1,18
 119 1046 119 1046 86 1082 c 128,-1,19
 53 1118 53 1118 53 1167 c 128,-1,20
 53 1216 53 1216 86 1252 c 128,-1,21
 119 1288 119 1288 163 1288 c 128,-1,22
 207 1288 207 1288 240.5 1251 c 128,-1,23
 274 1214 274 1214 274 1167 c 0,24,25
 274 1118 274 1118 240.5 1082 c 128,-1,17
 207 1046 207 1046 163 1046 c 128,-1,18
EndSplineSet
EndChar

StartChar: ellipsis
Encoding: 8230 8230 542
Width: 751
VWidth: 2441
GlyphClass: 1
Flags: HW
LayerCount: 2
Fore
SplineSet
107 -30 m 0,0,1
 66 -30 66 -30 38.5 7 c 128,-1,2
 11 44 11 44 11 93 c 128,-1,3
 11 142 11 142 38.5 177 c 128,-1,4
 66 212 66 212 107 212 c 0,5,6
 146 212 146 212 174.5 177 c 128,-1,7
 203 142 203 142 203 93 c 128,-1,8
 203 44 203 44 174.5 7 c 128,-1,9
 146 -30 146 -30 107 -30 c 0,0,1
361 -30 m 0,10,11
 320 -30 320 -30 292.5 7 c 128,-1,12
 265 44 265 44 265 93 c 128,-1,13
 265 142 265 142 292.5 177 c 128,-1,14
 320 212 320 212 361 212 c 0,15,16
 400 212 400 212 428 177 c 128,-1,17
 456 142 456 142 456 93 c 128,-1,18
 456 44 456 44 428 7 c 128,-1,19
 400 -30 400 -30 361 -30 c 0,10,11
618 -30 m 0,20,21
 579 -30 579 -30 550 7 c 128,-1,22
 521 44 521 44 521 93 c 128,-1,23
 521 142 521 142 550 177 c 128,-1,24
 579 212 579 212 618 212 c 0,25,26
 659 212 659 212 687 177 c 128,-1,27
 715 142 715 142 715 93 c 128,-1,28
 715 44 715 44 687 7 c 128,-1,29
 659 -30 659 -30 618 -30 c 0,20,21
EndSplineSet
EndChar

StartChar: exclam
Encoding: 33 33 543
Width: 286
VWidth: 2441
GlyphClass: 1
Flags: HW
LayerCount: 2
Fore
SplineSet
142 -30 m 0,0,1
 98 -30 98 -30 65 7 c 128,-1,2
 32 44 32 44 32 93 c 128,-1,3
 32 142 32 142 65 178.5 c 128,-1,4
 98 215 98 215 142 215 c 0,5,6
 188 215 188 215 221 178.5 c 128,-1,7
 254 142 254 142 254 93 c 128,-1,8
 254 44 254 44 221 7 c 128,-1,9
 188 -30 188 -30 142 -30 c 0,0,1
95 473 m 1,10,-1
 46 1479 l 2,11,12
 46 1549 46 1549 72 1590 c 128,-1,13
 98 1631 98 1631 144 1631 c 0,14,15
 188 1631 188 1631 216 1590.5 c 0,16,17
 242.133333333 1552.7 242.133333333 1552.7 242.133333333 1468.29555556 c 0,18,19
 242.133333333 1462.26666667 242.133333333 1462.26666667 242 1456 c 2,20,-1
 191 473 l 1,21,-1
 95 473 l 1,10,-1
EndSplineSet
EndChar

StartChar: question
Encoding: 63 63 545
Width: 699
VWidth: 2441
GlyphClass: 1
Flags: HW
LayerCount: 2
Fore
SplineSet
372 -30 m 0,0,1
 328 -30 328 -30 295 7 c 128,-1,2
 262 44 262 44 262 93 c 128,-1,3
 262 142 262 142 295 177 c 128,-1,4
 328 212 328 212 372 212 c 0,5,6
 418 212 418 212 449.5 177 c 128,-1,7
 481 142 481 142 481 93 c 128,-1,8
 481 44 481 44 449.5 7 c 128,-1,9
 418 -30 418 -30 372 -30 c 0,0,1
300 538 m 2,10,11
 300 648 300 648 323.5 718.5 c 128,-1,12
 347 789 347 789 381.5 840.5 c 128,-1,13
 416 892 416 892 451 943 c 128,-1,14
 486 994 486 994 509.5 1061 c 128,-1,15
 533 1128 533 1128 533 1230 c 0,16,17
 533 1340 533 1340 487.5 1412 c 128,-1,18
 442 1484 442 1484 360 1484 c 0,19,20
 243 1484 243 1484 171 1379 c 1,21,22
 154 1344 154 1344 150 1326.5 c 128,-1,23
 146 1309 146 1309 155 1289 c 1,24,-1
 146 1274 l 1,25,-1
 125 1286 l 1,26,-1
 32 1372 l 1,27,28
 88 1489 88 1489 162.5 1556.5 c 128,-1,29
 237 1624 237 1624 365 1624 c 0,30,31
 502 1624 502 1624 584.5 1531 c 128,-1,32
 667 1438 667 1438 667 1242 c 0,33,34
 667 1123 667 1123 644 1045 c 128,-1,35
 621 967 621 967 585 911 c 128,-1,36
 549 855 549 855 515 806 c 128,-1,37
 481 757 481 757 457 694.5 c 128,-1,38
 433 632 433 632 433 538 c 2,39,-1
 433 437 l 1,40,-1
 300 437 l 1,41,-1
 300 538 l 2,10,11
EndSplineSet
EndChar

StartChar: periodcentered
Encoding: 183 183 547
Width: 283
VWidth: 2441
GlyphClass: 1
Flags: HW
LayerCount: 2
Fore
SplineSet
142 689 m 128,-1,1
 96 689 96 689 64 724 c 128,-1,2
 32 759 32 759 32 811 c 0,3,4
 32 860 32 860 65 895 c 128,-1,5
 98 930 98 930 142 930 c 128,-1,6
 186 930 186 930 218.5 894.5 c 128,-1,7
 251 859 251 859 251 811 c 0,8,9
 251 762 251 762 219.5 725.5 c 128,-1,0
 188 689 188 689 142 689 c 128,-1,1
EndSplineSet
Substitution2: "Single Substitution lookup 11 subtable" periodcentered.loclCAT
Substitution2: "Single Substitution lookup 10 subtable" periodcentered.loclCAT
Substitution2: "'aalt' Access All Alternates in Latin lookup 0 subtable" periodcentered.loclCAT
EndChar

StartChar: bullet
Encoding: 8226 8226 548
Width: 364
VWidth: 2441
GlyphClass: 1
Flags: HW
LayerCount: 2
Fore
SplineSet
181 552 m 0,0,1
 120 552 120 552 76 602 c 128,-1,2
 32 652 32 652 32 718 c 0,3,4
 32 788 32 788 76.5 837 c 128,-1,5
 121 886 121 886 181 886 c 0,6,7
 242 886 242 886 287 836 c 128,-1,8
 332 786 332 786 332 718 c 0,9,10
 332 652 332 652 288 602 c 128,-1,11
 244 552 244 552 181 552 c 0,0,1
EndSplineSet
EndChar

StartChar: asterisk
Encoding: 42 42 549
Width: 768
VWidth: 2441
GlyphClass: 1
Flags: HW
LayerCount: 2
Fore
SplineSet
196 300 m 1,0,-1
 94 396 l 1,1,-1
 314 771 l 1,2,-1
 32 901 l 1,3,-1
 82 1042 l 1,4,-1
 337 876 l 1,5,-1
 314 1309 l 1,6,-1
 459 1309 l 1,7,-1
 427 876 l 1,8,-1
 691 1037 l 1,9,-1
 736 901 l 1,10,-1
 447 771 l 1,11,-1
 667 396 l 1,12,-1
 565 303 l 1,13,-1
 380 689 l 1,14,-1
 196 300 l 1,0,-1
EndSplineSet
Substitution2: "'ss01' Style Set 1 in Latin lookup 35 subtable" asterisk.ss01
Substitution2: "'salt' Stylistic Alternatives in Latin lookup 34 subtable" asterisk.ss01
Substitution2: "'aalt' Access All Alternates in Latin lookup 0 subtable" asterisk.ss01
EndChar

StartChar: uni2E12
Encoding: 11794 11794 550
Width: 272
VWidth: 2212
GlyphClass: 1
Flags: HW
LayerCount: 2
Fore
SplineSet
32 -246 m 1,0,-1
 32 -135 l 1,1,2
 82 -135 82 -135 110 -78.5 c 128,-1,3
 138 -22 138 -22 138 47 c 0,4,5
 138 117 138 117 111 174.5 c 128,-1,6
 84 232 84 232 32 232 c 1,7,-1
 32 340 l 1,8,9
 119 340 119 340 179.5 263.5 c 128,-1,10
 240 187 240 187 240 45 c 0,11,12
 240 -92 240 -92 180.5 -169 c 128,-1,13
 121 -246 121 -246 32 -246 c 1,0,-1
EndSplineSet
EndChar

StartChar: numbersign
Encoding: 35 35 551
Width: 768
VWidth: 2441
GlyphClass: 1
Flags: HW
LayerCount: 2
Fore
SplineSet
291 578 m 1,0,-1
 452 578 l 1,1,-1
 484 999 l 1,2,-1
 322 999 l 1,3,-1
 291 578 l 1,0,-1
410 24 m 1,4,-1
 443 473 l 1,5,-1
 280 473 l 1,6,-1
 246 35 l 1,7,-1
 146 32 l 1,8,-1
 177 468 l 1,9,-1
 32 468 l 1,10,-1
 39 573 l 1,11,-1
 186 573 l 1,12,-1
 218 997 l 1,13,-1
 54 997 l 1,14,-1
 56 1104 l 1,15,-1
 226 1104 l 1,16,-1
 258 1523 l 1,17,-1
 363 1528 l 1,18,-1
 331 1109 l 1,19,-1
 493 1109 l 1,20,-1
 523 1519 l 1,21,-1
 631 1521 l 1,22,-1
 600 1113 l 1,23,-1
 736 1113 l 1,24,-1
 727 1004 l 1,25,-1
 591 1004 l 1,26,-1
 557 587 l 1,27,-1
 707 587 l 1,28,-1
 698 480 l 1,29,-1
 550 480 l 1,30,-1
 514 35 l 1,31,-1
 410 24 l 1,4,-1
EndSplineSet
EndChar

StartChar: slash
Encoding: 47 47 552
Width: 730
VWidth: 2441
GlyphClass: 1
Flags: HW
LayerCount: 2
Fore
SplineSet
158 -103 m 1,0,-1
 32 -46 l 1,1,-1
 568 1624 l 1,2,-1
 698 1563 l 1,3,-1
 158 -103 l 1,0,-1
EndSplineSet
Substitution2: "'frac' Diagonal Fractions in Latin lookup 23 subtable" fraction
Substitution2: "'aalt' Access All Alternates in Latin lookup 0 subtable" fraction
EndChar

StartChar: backslash
Encoding: 92 92 553
Width: 730
VWidth: 2441
GlyphClass: 1
Flags: HW
LayerCount: 2
Fore
SplineSet
571 -103 m 1,0,-1
 32 1563 l 1,1,-1
 158 1624 l 1,2,-1
 698 -46 l 1,3,-1
 571 -103 l 1,0,-1
EndSplineSet
EndChar

StartChar: asterisk.ss01
Encoding: 65572 -1 555
Width: 768
VWidth: 2441
GlyphClass: 1
Flags: HW
LayerCount: 2
Fore
SplineSet
196 447 m 1,0,-1
 94 542 l 1,1,-1
 314 918 l 1,2,-1
 32 1048 l 1,3,-1
 82 1189 l 1,4,-1
 337 1023 l 1,5,-1
 314 1456 l 1,6,-1
 459 1456 l 1,7,-1
 427 1023 l 1,8,-1
 691 1184 l 1,9,-1
 736 1048 l 1,10,-1
 447 918 l 1,11,-1
 667 542 l 1,12,-1
 565 449 l 1,13,-1
 380 834 l 1,14,-1
 196 447 l 1,0,-1
EndSplineSet
EndChar

StartChar: parenleft
Encoding: 40 40 556
Width: 591
VWidth: 2449
GlyphClass: 1
Flags: HW
LayerCount: 2
Fore
SplineSet
510 -246 m 1,0,1
 368 -151 368 -151 259.5 9 c 128,-1,2
 151 169 151 169 91.5 370.5 c 128,-1,3
 32 572 32 572 32 789 c 128,-1,4
 32 1006 32 1006 91.5 1202.5 c 128,-1,5
 151 1399 151 1399 256 1554 c 128,-1,6
 361 1709 361 1709 500 1802 c 1,7,-1
 552 1676 l 1,8,9
 442 1590 442 1590 355 1450 c 128,-1,10
 268 1310 268 1310 219 1137.5 c 128,-1,11
 170 965 170 965 170 782 c 0,12,13
 170 598 170 598 219 425 c 128,-1,14
 268 252 268 252 356 110.5 c 128,-1,15
 444 -31 444 -31 559 -118 c 1,16,-1
 510 -246 l 1,0,1
EndSplineSet
EndChar

StartChar: parenright
Encoding: 41 41 557
Width: 591
VWidth: 2449
GlyphClass: 1
Flags: HW
LayerCount: 2
Fore
SplineSet
81 -246 m 1
 223 -151 223 -151 330 9 c 0
 438 169 438 169 499 370 c 0
 559 571 559 571 559 789 c 0
 559 1006 559 1006 499 1202 c 0
 439 1399 439 1399 335 1554 c 0
 230 1709 230 1709 90 1802 c 1
 39 1676 l 1
 149 1590 149 1590 236 1449 c 0
 323 1308 323 1308 371 1137 c 0
 419.02 968.44 419.02 968.44 419.02 789.3156 c 0,0,0
 419.02 785.66 419.02 785.66 419 782 c 0
 419 598 419 598 371 425 c 0
 322 252 322 252 235 111 c 0
 147 -31 147 -31 32 -118 c 1
 81 -246 l 1
EndSplineSet
EndChar

StartChar: braceleft
Encoding: 123 123 558
Width: 681
VWidth: 2486
GlyphClass: 1
Flags: HW
LayerCount: 2
Fore
SplineSet
586 -187 m 2,0,1
 464 -187 464 -187 378.5 -151.5 c 128,-1,2
 293 -116 293 -116 251.5 -23.5 c 128,-1,3
 213.648351648 60.8681318681 213.648351648 60.8681318681 213.648351648 211.372660307 c 0,0,0
 213.648351648 225.879120879 213.648351648 225.879120879 214 241 c 2,4,-1
 219 485 l 2,5,6
 219 646 219 646 180.5 702 c 128,-1,7
 142 758 142 758 65 758 c 2,8,-1
 32 758 l 1,9,-1
 32 895 l 1,10,-1
 65 895 l 2,11,12
 144 895 144 895 184.5 956 c 128,-1,13
 225 1017 225 1017 225 1156 c 1,14,-1
 219 1331 l 1,15,16
 219 1543 219 1543 303.5 1650 c 128,-1,17
 388 1757 388 1757 542 1757 c 2,18,-1
 649 1757 l 1,19,-1
 649 1622 l 1,20,-1
 522 1622 l 2,21,22
 361 1622 361 1622 361 1359 c 1,23,-1
 366 1187 l 1,24,25
 366 919 366 919 212 826 c 1,26,27
 361 756 361 756 361 448 c 2,28,-1
 359 243 l 2,29,30
 359 77 359 77 406.5 11 c 128,-1,31
 454 -55 454 -55 561 -55 c 2,32,-1
 647 -55 l 1,33,-1
 647 -187 l 1,34,-1
 586 -187 l 2,0,1
EndSplineSet
EndChar

StartChar: braceright
Encoding: 125 125 559
Width: 681
VWidth: 2486
GlyphClass: 1
Flags: HW
LayerCount: 2
Fore
SplineSet
95 -187 m 2
 217 -187 217 -187 303 -152 c 0
 389 -116 389 -116 430 -23 c 0
 467.531914894 60.1063829787 467.531914894 60.1063829787 467.531914894 205.499773653 c 0,0,0
 467.531914894 222.808510638 467.531914894 222.808510638 467 241 c 2
 462 485 l 2
 462 646 462 646 500 702 c 0
 539 758 539 758 616 758 c 2
 649 758 l 1
 649 895 l 1
 616 895 l 2
 537 895 537 895 497 956 c 0
 457.906976744 1014.1627907 457.906976744 1014.1627907 457.906976744 1143.2385073 c 0,0,0
 457.906976744 1149.53488372 457.906976744 1149.53488372 458 1156 c 2
 462 1331 l 1
 462 1543 462 1543 378 1651 c 0
 293 1757 293 1757 139 1757 c 2
 32 1757 l 1
 32 1622 l 1
 160 1622 l 2
 321 1622 321 1622 320 1359 c 1
 316 1187 l 1
 316 919 316 919 469 826 c 1
 320 756 320 756 320 448 c 1
 323 243 l 2
 323 77 323 77 275 10 c 0
 227.71641791 -55.0149253731 227.71641791 -55.0149253731 123.180886612 -55.0149253731 c 0,0,0
 121.597014925 -55.0149253731 121.597014925 -55.0149253731 120 -55 c 2
 34 -55 l 1
 34 -187 l 1
 95 -187 l 2
EndSplineSet
EndChar

StartChar: bracketleft
Encoding: 91 91 560
Width: 567
VWidth: 2516
GlyphClass: 1
Flags: HW
LayerCount: 2
Fore
SplineSet
32 -142 m 1,0,-1
 32 1711 l 1,1,-1
 533 1711 l 1,2,-1
 533 1569 l 1,3,-1
 167 1569 l 1,4,-1
 167 -8 l 1,5,-1
 535 -8 l 1,6,-1
 535 -142 l 1,7,-1
 32 -142 l 1,0,-1
EndSplineSet
EndChar

StartChar: bracketright
Encoding: 93 93 561
Width: 567
VWidth: 2516
GlyphClass: 1
Flags: HW
LayerCount: 2
Fore
SplineSet
535 -142 m 1
 535 1711 l 1
 34 1711 l 1
 34 1569 l 1
 400 1569 l 1
 400 -8 l 1
 32 -8 l 1
 32 -142 l 1
 535 -142 l 1
EndSplineSet
EndChar

StartChar: hyphen
Encoding: 45 45 562
Width: 542
VWidth: 2441
GlyphClass: 1
Flags: HW
LayerCount: 2
Fore
SplineSet
32 699 m 1,0,-1
 32 850 l 1,1,-1
 510 850 l 1,2,-1
 510 699 l 1,3,-1
 32 699 l 1,0,-1
EndSplineSet
EndChar

StartChar: endash
Encoding: 8211 8211 564
Width: 679
VWidth: 2441
GlyphClass: 1
Flags: HW
LayerCount: 2
Fore
SplineSet
32 699 m 1,0,-1
 32 850 l 1,1,-1
 647 850 l 1,2,-1
 647 699 l 1,3,-1
 32 699 l 1,0,-1
EndSplineSet
EndChar

StartChar: emdash
Encoding: 8212 8212 565
Width: 713
VWidth: 2441
GlyphClass: 1
Flags: HW
LayerCount: 2
Fore
SplineSet
-4 699 m 1,0,-1
 -4 850 l 1,1,-1
 700 850 l 1,2,-1
 700 699 l 1,3,-1
 -4 699 l 1,0,-1
EndSplineSet
EndChar

StartChar: underscore
Encoding: 95 95 569
Width: 768
VWidth: 2441
GlyphClass: 1
Flags: HW
LayerCount: 2
Fore
SplineSet
32 -193 m 1,0,-1
 32 -51 l 1,1,-1
 736 -51 l 1,2,-1
 736 -193 l 1,3,-1
 32 -193 l 1,0,-1
EndSplineSet
EndChar

StartChar: quotedblleft
Encoding: 8220 8220 572
Width: 668
VWidth: 2441
GlyphClass: 1
Flags: HW
LayerCount: 2
Fore
SplineSet
219 1558 m 1,0,-1
 284 1496 l 1,1,2
 233 1433 233 1433 199.5 1366 c 128,-1,3
 166 1299 166 1299 166 1245 c 0,4,5
 166 1210 166 1210 189 1186 c 128,-1,6
 212 1162 212 1162 235 1135.5 c 128,-1,7
 258 1109 258 1109 258 1067 c 0,8,9
 258 1009 258 1009 229 972 c 128,-1,10
 200 935 200 935 154 935 c 0,11,12
 105 935 105 935 68.5 983.5 c 128,-1,13
 32 1032 32 1032 32 1111 c 0,14,15
 32 1209 32 1209 76.5 1316 c 128,-1,16
 121 1423 121 1423 219 1558 c 1,0,-1
573 1558 m 1,17,-1
 636 1496 l 1,18,19
 582 1433 582 1433 551 1366 c 128,-1,20
 520 1299 520 1299 520 1245 c 0,21,22
 520 1210 520 1210 543 1186 c 128,-1,23
 566 1162 566 1162 589.5 1135.5 c 128,-1,24
 613 1109 613 1109 613 1067 c 0,25,26
 613 1009 613 1009 583.5 972 c 128,-1,27
 554 935 554 935 508 935 c 0,28,29
 459 935 459 935 422.5 983.5 c 128,-1,30
 386 1032 386 1032 386 1111 c 0,31,32
 386 1209 386 1209 430.5 1316 c 128,-1,33
 475 1423 475 1423 573 1558 c 1,17,-1
EndSplineSet
EndChar

StartChar: quoteleft
Encoding: 8216 8216 574
Width: 316
VWidth: 2441
GlyphClass: 1
Flags: HW
LayerCount: 2
Fore
SplineSet
220 1558 m 1,0,-1
 284 1496 l 1,1,2
 233 1433 233 1433 200 1366 c 128,-1,3
 167 1299 167 1299 167 1245 c 0,4,5
 167 1210 167 1210 190 1186 c 128,-1,6
 213 1162 213 1162 235.5 1135.5 c 128,-1,7
 258 1109 258 1109 258 1067 c 0,8,9
 258 1009 258 1009 229 972 c 128,-1,10
 200 935 200 935 154 935 c 0,11,12
 105 935 105 935 68.5 983.5 c 128,-1,13
 32 1032 32 1032 32 1111 c 0,14,15
 32 1209 32 1209 77 1316 c 128,-1,16
 122 1423 122 1423 220 1558 c 1,0,-1
EndSplineSet
EndChar

StartChar: quoteright
Encoding: 8217 8217 575
Width: 318
VWidth: 2441
GlyphClass: 1
Flags: HW
LayerCount: 2
Fore
SplineSet
99 935 m 1,0,-1
 32 997 l 1,1,2
 86 1060 86 1060 118 1128.5 c 128,-1,3
 150 1197 150 1197 150 1250 c 0,4,5
 150 1285 150 1285 127 1307.5 c 128,-1,6
 104 1330 104 1330 80.5 1357 c 128,-1,7
 57 1384 57 1384 57 1426 c 0,8,9
 57 1484 57 1484 87.5 1521 c 128,-1,10
 118 1558 118 1558 164 1558 c 128,-1,11
 210 1558 210 1558 248 1510.5 c 128,-1,12
 286 1463 286 1463 286 1382 c 0,13,14
 286 1287 286 1287 240 1178.5 c 128,-1,15
 194 1070 194 1070 99 935 c 1,0,-1
EndSplineSet
EndChar

StartChar: guillemotleft
Encoding: 171 171 576
Width: 726
VWidth: 2441
GlyphClass: 1
Flags: HW
LayerCount: 2
Fore
SplineSet
610 149 m 1,0,-1
 344 561 l 1,1,-1
 344 617 l 1,2,-1
 601 976 l 1,3,-1
 684 876 l 1,4,-1
 477 589 l 1,5,-1
 694 247 l 1,6,-1
 610 149 l 1,0,-1
303 149 m 1,7,-1
 32 561 l 1,8,-1
 32 617 l 1,9,-1
 293 976 l 1,10,-1
 374 876 l 1,11,-1
 167 589 l 1,12,-1
 386 247 l 1,13,-1
 303 149 l 1,7,-1
EndSplineSet
EndChar

StartChar: guilsinglleft
Encoding: 8249 8249 578
Width: 416
VWidth: 2441
GlyphClass: 1
Flags: HW
LayerCount: 2
Fore
SplineSet
300 149 m 1,0,-1
 32 561 l 1,1,-1
 32 617 l 1,2,-1
 291 976 l 1,3,-1
 372 879 l 1,4,-1
 163 589 l 1,5,-1
 384 244 l 1,6,-1
 300 149 l 1,0,-1
EndSplineSet
EndChar

StartChar: guilsinglright
Encoding: 8250 8250 579
Width: 416
VWidth: 2441
GlyphClass: 1
Flags: HW
LayerCount: 2
Fore
SplineSet
114 149 m 1,0,-1
 32 244 l 1,1,-1
 254 589 l 1,2,-1
 42 879 l 1,3,-1
 124 976 l 1,4,-1
 384 617 l 1,5,-1
 384 561 l 1,6,-1
 114 149 l 1,0,-1
EndSplineSet
EndChar

StartChar: quotedbl
Encoding: 34 34 580
Width: 490
VWidth: 2441
GlyphClass: 1
Flags: HW
LayerCount: 2
Fore
SplineSet
32 1624 m 1
 183 1624 l 1
 183 1477 183 1477 181 1389 c 0
 179 1301 179 1301 175 1241 c 0
 171 1181 171 1181 166 1127 c 0
 160 1072 160 1072 155 994 c 1
 62 994 l 1
 57 1073 57 1073 51 1127 c 0
 45 1182 45 1182 40 1240 c 0
 36 1298 36 1298 34 1388 c 0
 32 1477 32 1477 32 1624 c 1
306 1624 m 1
 458 1624 l 1
 458 1477 458 1477 455 1389 c 0
 453 1301 453 1301 448 1241 c 0
 444 1181 444 1181 438 1127 c 0
 432 1072 432 1072 428 994 c 1
 335 994 l 1
 330 1073 330 1073 324 1127 c 0
 318 1182 318 1182 315 1240 c 0
 311 1298 311 1298 309 1388 c 0
 306 1477 306 1477 306 1624 c 1
EndSplineSet
Substitution2: "'ss03' Style Set 3 in Latin lookup 37 subtable" quotedbl.ss03
Substitution2: "'aalt' Access All Alternates in Latin lookup 0 subtable" quotedbl.ss03
EndChar

StartChar: quotesingle
Encoding: 39 39 581
Width: 215
VWidth: 2441
GlyphClass: 1
Flags: HW
LayerCount: 2
Fore
SplineSet
32 1624 m 1,0,-1
 183 1624 l 1,1,2
 183 1477 183 1477 181 1389.5 c 128,-1,3
 179 1302 179 1302 175 1241.5 c 128,-1,4
 171 1181 171 1181 164.5 1126.5 c 128,-1,5
 158 1072 158 1072 154 994 c 1,6,-1
 61 994 l 1,7,8
 56 1073 56 1073 50 1127 c 128,-1,9
 44 1181 44 1181 40.5 1240 c 128,-1,10
 37 1299 37 1299 34.5 1388 c 128,-1,11
 32 1477 32 1477 32 1624 c 1,0,-1
EndSplineSet
Substitution2: "'ss03' Style Set 3 in Latin lookup 37 subtable" quotesingle.ss03
Substitution2: "'aalt' Access All Alternates in Latin lookup 0 subtable" quotesingle.ss03
EndChar

StartChar: quotesingle.ss03
Encoding: 65574 -1 583
Width: 257
VWidth: 2441
GlyphClass: 1
Flags: HW
LayerCount: 2
Fore
SplineSet
127 999 m 1,0,-1
 32 1018 l 1,1,2
 69 1184 69 1184 72.5 1295.5 c 128,-1,3
 76 1407 76 1407 76 1491 c 0,4,5
 76 1623 76 1623 151 1624 c 0,6,7
 224 1624 224 1624 225 1496 c 0,8,9
 225 1438 225 1438 215 1373.5 c 128,-1,10
 205 1309 205 1309 183.5 1221.5 c 128,-1,11
 162 1134 162 1134 127 999 c 1,0,-1
EndSplineSet
EndChar

StartChar: hyphen_greater.dlig
Encoding: 65575 -1 584
Width: 768
VWidth: 2441
GlyphClass: 1
Flags: HW
LayerCount: 2
Fore
SplineSet
32 708 m 1,0,-1
 32 852 l 1,1,-1
 512 852 l 1,2,-1
 512 708 l 1,3,-1
 32 708 l 1,0,-1
335 91 m 1,4,-1
 335 266 l 1,5,-1
 668 778 l 1,6,-1
 336 1260 l 1,7,-1
 336 1433 l 1,8,-1
 736 840 l 1,9,-1
 736 722 l 1,10,-1
 335 91 l 1,4,-1
EndSplineSet
Ligature2: "'dlig' Discretionary Ligatures in Latin lookup 32 subtable" hyphen greater
EndChar

StartChar: exclam_equal_equal.dlig
Encoding: 65576 -1 585
Width: 737
VWidth: 2409
GlyphClass: 1
Flags: HW
LayerCount: 2
Fore
SplineSet
12 64 m 1,0,-1
 12 208 l 1,1,-1
 305 208 l 1,2,-1
 335 515 l 1,3,-1
 97 515 l 1,4,-1
 97 658 l 1,5,-1
 348 658 l 1,6,-1
 378 967 l 1,7,-1
 12 967 l 1,8,-1
 12 1111 l 1,9,-1
 393 1111 l 1,10,-1
 423 1419 l 1,11,-1
 462 1371 l 1,12,-1
 436 1111 l 1,13,-1
 716 1111 l 1,14,-1
 716 967 l 1,15,-1
 422 967 l 1,16,-1
 392 658 l 1,17,-1
 631 658 l 1,18,-1
 631 515 l 1,19,-1
 378 515 l 1,20,-1
 348 208 l 1,21,-1
 716 208 l 1,22,-1
 716 64 l 1,23,-1
 334 64 l 1,24,-1
 304 -246 l 1,25,-1
 265 -203 l 1,26,-1
 291 64 l 1,27,-1
 12 64 l 1,0,-1
EndSplineSet
Ligature2: "'dlig' Discretionary Ligatures in Latin lookup 32 subtable" exclam equal equal
EndChar

StartChar: uni20B5
Encoding: 8373 8373 594
Width: 768
VWidth: 2441
GlyphClass: 2
Flags: HW
AnchorPoint: "Anchor-2" 426 0 basechar 0
AnchorPoint: "Anchor-0" 410 1521 basechar 0
LayerCount: 2
Fore
SplineSet
168 764 m 0,0,1
 168 512 168 512 219.5 354 c 128,-1,2
 271 196 271 196 354 144 c 1,3,-1
 354 1377 l 1,4,5
 267 1333 267 1333 217.5 1181.5 c 128,-1,6
 168 1030 168 1030 168 764 c 0,0,1
354 -173 m 1,7,-1
 354 -14 l 1,8,9
 262 10 262 10 189.5 95.5 c 128,-1,10
 117 181 117 181 74.5 342 c 128,-1,11
 32 503 32 503 32 752 c 0,12,13
 32 1023 32 1023 78 1184 c 128,-1,14
 124 1345 124 1345 197.5 1423.5 c 128,-1,15
 271 1502 271 1502 354 1523 c 1,16,-1
 354 1647 l 1,17,-1
 473 1647 l 1,18,-1
 473 1531 l 1,19,20
 668 1504 668 1504 736 1274 c 1,21,-1
 635 1197 l 1,22,-1
 616 1179 l 1,23,-1
 607 1193 l 1,24,25
 609 1212 609 1212 608 1233.5 c 128,-1,26
 607 1255 607 1255 591 1291 c 1,27,28
 562 1335 562 1335 534 1357 c 128,-1,29
 506 1379 506 1379 473 1389 c 1,30,-1
 473 124 l 1,31,32
 569 148 569 148 628 284 c 1,33,-1
 722 186 l 1,34,35
 675 91 675 91 616 39.5 c 128,-1,36
 557 -12 557 -12 473 -21 c 1,37,-1
 473 -173 l 1,38,-1
 354 -173 l 1,7,-1
EndSplineSet
EndChar

StartChar: cent
Encoding: 162 162 595
Width: 749
VWidth: 2441
GlyphClass: 2
Flags: HW
AnchorPoint: "Anchor-2" 428 105 basechar 0
AnchorPoint: "Anchor-0" 428 1221 basechar 0
LayerCount: 2
Fore
SplineSet
174 666 m 0,0,1
 174 507 174 507 208 407.5 c 128,-1,2
 242 308 242 308 303 261 c 1,3,-1
 386 1104 l 1,4,5
 305 1090 305 1090 239.5 987.5 c 128,-1,6
 174 885 174 885 174 666 c 0,0,1
377 -179 m 1,7,-1
 261 -179 l 1,8,-1
 288 105 l 1,9,10
 169 154 169 154 100.5 298 c 128,-1,11
 32 442 32 442 32 662 c 0,12,13
 32 855 32 855 82 982 c 128,-1,14
 132 1109 132 1109 215 1172 c 128,-1,15
 298 1235 298 1235 398 1242 c 1,16,-1
 425 1521 l 1,17,-1
 535 1521 l 1,18,-1
 508 1233 l 1,19,20
 650 1201 650 1201 717 1062 c 1,21,-1
 640 955 l 1,22,-1
 628 935 l 1,23,-1
 613 945 l 1,24,25
 611 964 611 964 606 986.5 c 128,-1,26
 601 1009 601 1009 577 1039 c 0,27,28
 540 1078 540 1078 496 1094 c 1,29,-1
 415 222 l 1,30,31
 422 220 422 220 430 219 c 0,32,33
 491 219 491 219 542 250 c 128,-1,34
 593 281 593 281 638 345 c 1,35,-1
 706 219 l 1,36,37
 650 146 650 146 577.5 112.5 c 128,-1,38
 505 79 505 79 425 79 c 0,39,40
 413 79 413 79 400 79 c 1,41,-1
 377 -179 l 1,7,-1
EndSplineSet
EndChar

StartChar: colonmonetary
Encoding: 8353 8353 596
Width: 768
VWidth: 2441
GlyphClass: 2
Flags: HW
AnchorPoint: "Anchor-2" 426 0 basechar 0
AnchorPoint: "Anchor-0" 410 1521 basechar 0
LayerCount: 2
Fore
SplineSet
271 235 m 1,0,1
 292 200 292 200 314 175 c 1,2,-1
 517 1370 l 1,3,4
 496 1384 496 1384 470 1389 c 1,5,-1
 271 235 l 1,0,1
168 764 m 0,6,7
 168 640 168 640 181.5 538.5 c 128,-1,8
 195 437 195 437 220 359 c 1,9,-1
 396 1391 l 1,10,11
 291 1372 291 1372 229.5 1217 c 128,-1,12
 168 1062 168 1062 168 764 c 0,6,7
128 -173 m 1,13,-1
 177 110 l 1,14,15
 112 201 112 201 72 357 c 128,-1,16
 32 513 32 513 32 752 c 0,17,18
 32 984 32 984 66.5 1134 c 128,-1,19
 101 1284 101 1284 158 1371 c 128,-1,20
 215 1458 215 1458 283 1494.5 c 128,-1,21
 351 1531 351 1531 419 1533 c 1,22,-1
 441 1647 l 1,23,-1
 513 1647 l 1,24,-1
 494 1528 l 1,25,26
 520 1521 520 1521 544 1514 c 1,27,-1
 567 1647 l 1,28,-1
 642 1647 l 1,29,-1
 611 1472 l 1,30,31
 696 1406 696 1406 736 1274 c 1,32,-1
 635 1197 l 1,33,-1
 616 1179 l 1,34,-1
 607 1193 l 1,35,36
 609 1212 609 1212 608 1233.5 c 128,-1,37
 607 1255 607 1255 591 1291 c 0,38,39
 586 1298 586 1298 584 1304 c 1,40,-1
 382 130 l 1,41,42
 408 120 408 120 434 119 c 0,43,44
 559 119 559 119 628 284 c 1,45,-1
 722 186 l 1,46,47
 670 79 670 79 602.5 27.5 c 128,-1,48
 535 -24 535 -24 434 -24 c 0,49,50
 394 -24 394 -24 358 -14 c 1,51,-1
 330 -173 l 1,52,-1
 255 -173 l 1,53,-1
 286 12 l 1,54,55
 263 24 263 24 239 44 c 1,56,-1
 204 -173 l 1,57,-1
 128 -173 l 1,13,-1
EndSplineSet
EndChar

StartChar: currency
Encoding: 164 164 597
Width: 709
VWidth: 2441
GlyphClass: 1
Flags: HW
LayerCount: 2
Fore
SplineSet
354 601 m 128,-1,1
 437 601 437 601 477.5 673 c 128,-1,2
 518 745 518 745 518 843 c 0,3,4
 518 943 518 943 477.5 1014.5 c 128,-1,5
 437 1086 437 1086 354 1086 c 0,6,7
 273 1086 273 1086 233 1014.5 c 128,-1,8
 193 943 193 943 193 843 c 0,9,10
 193 745 193 745 232 673 c 128,-1,0
 271 601 271 601 354 601 c 128,-1,1
106 401 m 1,11,-1
 32 478 l 1,12,-1
 130 632 l 1,13,14
 84 727 84 727 83 843 c 0,15,16
 83 957 83 957 132 1053 c 1,17,-1
 32 1206 l 1,18,-1
 106 1286 l 1,19,-1
 195 1150 l 1,20,21
 265 1220 265 1220 356 1221 c 0,22,23
 395 1221 395 1221 437 1203.5 c 128,-1,24
 479 1186 479 1186 514 1153 c 1,25,-1
 603 1286 l 1,26,-1
 677 1216 l 1,27,-1
 579 1067 l 1,28,29
 630 967 630 967 630 843 c 0,30,31
 630 721 630 721 584 625 c 1,32,-1
 677 478 l 1,33,-1
 603 401 l 1,34,-1
 516 535 l 1,35,36
 481 498 481 498 439.5 481 c 128,-1,37
 398 464 398 464 356 464 c 0,38,39
 265 464 265 464 193 538 c 1,40,-1
 106 401 l 1,11,-1
EndSplineSet
EndChar

StartChar: dollar
Encoding: 36 36 598
Width: 768
VWidth: 2441
GlyphClass: 1
Flags: HW
LayerCount: 2
Fore
SplineSet
453 179 m 1,0,1
 523 200 523 200 561.5 273.5 c 128,-1,2
 600 347 600 347 600 432 c 0,3,4
 600 602 600 602 453 662 c 1,5,-1
 453 179 l 1,0,1
330 886 m 1,6,-1
 330 1307 l 1,7,8
 270 1295 270 1295 234.5 1246 c 128,-1,9
 199 1197 199 1197 199 1109 c 0,10,11
 199 1041 199 1041 231 983 c 128,-1,12
 263 925 263 925 330 886 c 1,6,-1
330 -114 m 1,13,-1
 330 35 l 1,14,15
 238 45 238 45 160.5 92 c 128,-1,16
 83 139 83 139 32 217 c 1,17,-1
 122 361 l 1,18,19
 127 354 127 354 128 336.5 c 128,-1,20
 129 319 129 319 131 310 c 0,21,22
 163 259 163 259 212 222.5 c 128,-1,23
 261 186 261 186 330 173 c 1,24,-1
 330 718 l 1,25,26
 197 781 197 781 130 862 c 128,-1,27
 63 943 63 943 63 1088 c 0,28,29
 63 1254 63 1254 138 1336.5 c 128,-1,30
 213 1419 213 1419 330 1442 c 1,31,-1
 330 1589 l 1,32,-1
 464 1589 l 1,33,34
 464 1587 464 1587 464 1582 c 128,-1,35
 464 1577 464 1577 459.5 1566.5 c 128,-1,36
 455 1556 455 1556 453 1538 c 2,37,-1
 453 1445 l 1,38,39
 533 1433 533 1433 591 1395.5 c 128,-1,40
 649 1358 649 1358 690 1279 c 1,41,-1
 614 1146 l 1,42,43
 605 1151 605 1151 604 1167.5 c 128,-1,44
 603 1184 603 1184 595 1197 c 0,45,46
 551 1280 551 1280 453 1304 c 1,47,-1
 453 825 l 1,48,49
 552 779 552 779 614 732 c 128,-1,50
 676 685 676 685 706 617.5 c 128,-1,51
 736 550 736 550 736 442 c 0,52,53
 736 279 736 279 661 171 c 128,-1,54
 586 63 586 63 453 39 c 1,55,-1
 453 -114 l 1,56,-1
 330 -114 l 1,13,-1
EndSplineSet
EndChar

StartChar: dong
Encoding: 8363 8363 599
Width: 709
VWidth: 2441
GlyphClass: 2
Flags: HW
AnchorPoint: "Anchor-4" 465 1333 basechar 0
AnchorPoint: "Anchor-2" 316 261 basechar 0
AnchorPoint: "Anchor-1" 616 1155 basechar 0
AnchorPoint: "Anchor-0" 316 1155 basechar 0
LayerCount: 2
Fore
SplineSet
59 132 m 1,0,-1
 628 132 l 1,1,-1
 628 0 l 1,2,-1
 59 0 l 1,3,-1
 59 132 l 1,0,-1
303 359 m 0,4,5
 378 359 378 359 419 444 c 128,-1,6
 460 529 460 529 460 713 c 0,7,8
 460 892 460 892 418.5 976 c 128,-1,9
 377 1060 377 1060 300 1060 c 0,10,11
 219 1060 219 1060 179 988 c 128,-1,12
 139 916 139 916 139 737 c 0,13,14
 139 518 139 518 184.5 438.5 c 128,-1,15
 230 359 230 359 303 359 c 0,4,5
284 242 m 0,16,17
 218 242 218 242 161 283 c 128,-1,18
 104 324 104 324 68 428 c 128,-1,19
 32 532 32 532 32 715 c 0,20,21
 32 896 32 896 69 996.5 c 128,-1,22
 106 1097 106 1097 164.5 1135.5 c 128,-1,23
 223 1174 223 1174 291 1174 c 0,24,25
 423 1174 423 1174 465 1032 c 1,26,-1
 465 1260 l 1,27,-1
 216 1260 l 1,28,-1
 216 1389 l 1,29,-1
 465 1389 l 1,30,-1
 465 1560 l 1,31,-1
 591 1560 l 1,32,-1
 591 1545 l 1,33,34
 571.826086957 1529.47826087 571.826086957 1529.47826087 571.826086957 1483.94517958 c 0,35,36
 571.826086957 1479.60869565 571.826086957 1479.60869565 572 1475 c 2,37,-1
 572 1389 l 1,38,-1
 677 1389 l 1,39,-1
 677 1260 l 1,40,-1
 572 1260 l 1,41,-1
 574 401 l 2,42,43
 574 366 574 366 575.5 331 c 128,-1,44
 577 296 577 296 586 261 c 1,45,-1
 477 261 l 1,46,47
 467 291 467 291 463.5 321.5 c 128,-1,48
 460 352 460 352 460 389 c 1,49,50
 433 326 433 326 387.5 284 c 128,-1,51
 342 242 342 242 284 242 c 0,16,17
EndSplineSet
EndChar

StartChar: Euro
Encoding: 8364 8364 600
Width: 768
VWidth: 2441
GlyphClass: 1
Flags: HW
LayerCount: 2
Fore
SplineSet
499 -27 m 0,0,1
 359 -27 359 -27 251.5 105 c 128,-1,2
 144 237 144 237 115 535 c 1,3,-1
 32 535 l 1,4,-1
 53 671 l 1,5,-1
 106 671 l 1,6,7
 106 708 106 708 107 769 c 128,-1,8
 108 830 108 830 111 871 c 1,9,-1
 32 871 l 1,10,-1
 53 1009 l 1,11,-1
 124 1009 l 1,12,13
 152 1209 152 1209 214 1323.5 c 128,-1,14
 276 1438 276 1438 354 1485.5 c 128,-1,15
 432 1533 432 1533 508 1533 c 0,16,17
 666 1533 666 1533 736 1431 c 1,18,-1
 697 1277 l 1,19,20
 671 1287 671 1287 655 1314.5 c 128,-1,21
 639 1342 639 1342 606.5 1368 c 128,-1,22
 574 1394 574 1394 504 1394 c 0,23,24
 414 1394 414 1394 347 1300 c 128,-1,25
 280 1206 280 1206 253 1009 c 1,26,-1
 633 1009 l 1,27,-1
 598 871 l 1,28,-1
 239 871 l 1,29,30
 235 832 235 832 234.5 781 c 128,-1,31
 234 730 234 730 234 671 c 1,32,-1
 550 671 l 1,33,-1
 513 535 l 1,34,-1
 246 535 l 1,35,36
 268 332 268 332 336.5 225.5 c 128,-1,37
 405 119 405 119 506 119 c 128,-1,38
 607 119 607 119 673 207 c 1,39,-1
 732 86 l 1,40,41
 684 25 684 25 623.5 -1 c 128,-1,42
 563 -27 563 -27 499 -27 c 0,0,1
EndSplineSet
EndChar

StartChar: florin
Encoding: 402 402 601
Width: 757
VWidth: 2370
GlyphClass: 1
Flags: HW
LayerCount: 2
Fore
SplineSet
149 -246 m 0,0,1
 66 -246 66 -246 25 -182 c 1,2,-1
 81 -35 l 1,3,4
 87 -39 87 -39 92.5 -54 c 128,-1,5
 98 -69 98 -69 112.5 -83 c 128,-1,6
 127 -97 127 -97 158 -97 c 0,7,8
 243 -97 243 -97 258 203 c 2,9,-1
 290 872 l 1,10,-1
 119 872 l 1,11,-1
 119 996 l 1,12,-1
 298 996 l 1,13,-1
 306 1202 l 2,14,15
 315 1370 315 1370 348.5 1465.5 c 128,-1,16
 382 1561 382 1561 436.5 1602 c 128,-1,17
 491 1643 491 1643 559 1643 c 0,18,19
 659 1643 659 1643 729 1543 c 1,20,-1
 677 1389 l 1,21,22
 666 1389 666 1389 662 1411 c 0,23,24
 656 1464 656 1464 627 1491.5 c 128,-1,25
 598 1519 598 1519 563 1519 c 0,26,27
 507 1519 507 1519 477.5 1444 c 128,-1,28
 448 1369 448 1369 439 1179 c 2,29,-1
 431 996 l 1,30,-1
 604 996 l 1,31,-1
 604 872 l 1,32,-1
 421 872 l 1,33,-1
 385 197 l 2,34,35
 376 21 376 21 342 -75 c 128,-1,36
 308 -171 308 -171 256.5 -208.5 c 128,-1,37
 205 -246 205 -246 149 -246 c 0,0,1
EndSplineSet
EndChar

StartChar: uni20B2
Encoding: 8370 8370 603
Width: 768
VWidth: 2441
GlyphClass: 1
Flags: HW
LayerCount: 2
Fore
SplineSet
171 778 m 0,0,1
 171 524 171 524 220 365.5 c 128,-1,2
 269 207 269 207 345 154 c 1,3,-1
 345 1372 l 1,4,5
 273 1340 273 1340 222 1204.5 c 128,-1,6
 171 1069 171 1069 171 778 c 0,0,1
345 -173 m 1,7,-1
 345 -12 l 1,8,9
 200 27 200 27 116 219.5 c 128,-1,10
 32 412 32 412 32 743 c 0,11,12
 32 962 32 962 59 1108.5 c 128,-1,13
 86 1255 86 1255 130.5 1344 c 128,-1,14
 175 1433 175 1433 231 1476 c 128,-1,15
 287 1519 287 1519 345 1531 c 1,16,-1
 345 1647 l 1,17,-1
 459 1647 l 1,18,-1
 459 1535 l 1,19,20
 573 1523 573 1523 634.5 1458.5 c 128,-1,21
 696 1394 696 1394 728 1302 c 1,22,-1
 660 1172 l 1,23,24
 651 1179 651 1179 640.5 1208 c 128,-1,25
 630 1237 630 1237 610.5 1274 c 128,-1,26
 591 1311 591 1311 555.5 1341.5 c 128,-1,27
 520 1372 520 1372 459 1382 c 1,28,-1
 459 130 l 1,29,30
 539 142 539 142 611 219 c 1,31,-1
 611 589 l 1,32,-1
 522 589 l 1,33,-1
 522 730 l 1,34,-1
 736 730 l 1,35,-1
 736 135 l 1,36,37
 604 -7 604 -7 459 -21 c 1,38,-1
 459 -173 l 1,39,-1
 345 -173 l 1,7,-1
EndSplineSet
EndChar

StartChar: uni20AD
Encoding: 8365 8365 604
Width: 709
VWidth: 2441
GlyphClass: 1
Flags: HW
LayerCount: 2
Fore
SplineSet
-3 799 m 1,0,-1
 -3 923 l 1,1,-1
 71 923 l 1,2,-1
 71 1521 l 1,3,-1
 215 1521 l 1,4,-1
 215 1504 l 1,5,6
 203 1490 203 1490 200 1473 c 128,-1,7
 197 1456 197 1456 197 1414 c 2,8,-1
 197 825 l 1,9,-1
 547 1533 l 1,10,11
 561 1528 561 1528 589 1524.5 c 128,-1,12
 617 1521 617 1521 640 1521 c 2,13,-1
 677 1521 l 1,14,-1
 385 923 l 1,15,-1
 635 923 l 1,16,-1
 635 799 l 1,17,-1
 375 799 l 1,18,-1
 701 0 l 1,19,-1
 555 -10 l 1,20,-1
 264 740 l 1,21,-1
 197 610 l 1,22,-1
 197 0 l 1,23,-1
 71 0 l 1,24,-1
 71 799 l 1,25,-1
 -3 799 l 1,0,-1
EndSplineSet
EndChar

StartChar: uni20BA
Encoding: 8378 8378 606
Width: 768
VWidth: 2441
GlyphClass: 1
Flags: HW
LayerCount: 2
Fore
SplineSet
163 0 m 1,0,-1
 163 678 l 1,1,-1
 32 610 l 1,2,-1
 32 747 l 1,3,-1
 163 815 l 1,4,-1
 163 964 l 1,5,-1
 32 896 l 1,6,-1
 32 1032 l 1,7,-1
 163 1101 l 1,8,-1
 163 1521 l 1,9,-1
 319 1521 l 1,10,11
 319 1497 319 1497 311.5 1486 c 128,-1,12
 304 1475 304 1475 304 1438 c 2,13,-1
 304 1174 l 1,14,-1
 596 1326 l 1,15,-1
 596 1189 l 1,16,-1
 304 1037 l 1,17,-1
 304 888 l 1,18,-1
 596 1039 l 1,19,-1
 596 904 l 1,20,-1
 304 752 l 1,21,-1
 304 149 l 1,22,23
 397 149 397 149 466 183 c 128,-1,24
 535 217 535 217 573 307.5 c 128,-1,25
 611 398 611 398 611 561 c 1,26,-1
 736 561 l 1,27,28
 736 349 736 349 685 227 c 128,-1,29
 634 105 634 105 533.5 52.5 c 128,-1,30
 433 0 433 0 286 0 c 2,31,-1
 163 0 l 1,0,-1
EndSplineSet
EndChar

StartChar: uni20BC
Encoding: 8380 8380 607
Width: 768
VWidth: 2441
GlyphClass: 1
Flags: HW
LayerCount: 2
Fore
SplineSet
319 242 m 1,0,-1
 319 1274 l 1,1,2
 234 1244 234 1244 201 1138 c 128,-1,3
 168 1032 168 1032 168 876 c 2,4,-1
 168 79 l 2,5,6
 168 47 168 47 174 30.5 c 128,-1,7
 180 14 180 14 180 0 c 1,8,-1
 32 0 l 1,9,-1
 32 874 l 2,10,11
 32 1145 32 1145 106 1272.5 c 128,-1,12
 180 1400 180 1400 319 1421 c 1,13,-1
 319 1624 l 1,14,-1
 448 1624 l 1,15,-1
 448 1421 l 1,16,17
 580 1400 580 1400 658 1275 c 128,-1,18
 736 1150 736 1150 736 867 c 2,19,-1
 736 0 l 1,20,-1
 608 0 l 1,21,-1
 608 869 l 2,22,23
 608 1035 608 1035 572.5 1142.5 c 128,-1,24
 537 1250 537 1250 448 1277 c 1,25,-1
 448 242 l 1,26,-1
 319 242 l 1,0,-1
EndSplineSet
EndChar

StartChar: uni20A6
Encoding: 8358 8358 608
Width: 719
VWidth: 2441
GlyphClass: 2
Flags: HW
AnchorPoint: "Anchor-2" 349 0 basechar 0
AnchorPoint: "Anchor-0" 349 1521 basechar 0
LayerCount: 2
Fore
SplineSet
512 437 m 1,0,-1
 512 685 l 1,1,-1
 438 685 l 1,2,-1
 512 437 l 1,0,-1
185 1153 m 1,3,-1
 185 811 l 1,4,-1
 286 811 l 1,5,-1
 185 1153 l 1,3,-1
2 685 m 1,6,-1
 2 811 l 1,7,-1
 80 811 l 1,8,-1
 80 1521 l 1,9,-1
 187 1521 l 1,10,-1
 400 811 l 1,11,-1
 512 811 l 1,12,-1
 512 1521 l 1,13,-1
 633 1521 l 1,14,-1
 633 1504 l 1,15,16
 621 1490 621 1490 618 1473 c 128,-1,17
 615 1456 615 1456 615 1414 c 2,18,-1
 615 811 l 1,19,-1
 706 811 l 1,20,-1
 706 685 l 1,21,-1
 615 685 l 1,22,-1
 615 0 l 1,23,-1
 526 0 l 1,24,-1
 322 685 l 1,25,-1
 185 685 l 1,26,-1
 185 0 l 1,27,-1
 80 0 l 1,28,-1
 80 685 l 1,29,-1
 2 685 l 1,6,-1
EndSplineSet
EndChar

StartChar: peseta
Encoding: 8359 8359 609
Width: 801
VWidth: 2441
GlyphClass: 1
Flags: HW
LayerCount: 2
Fore
SplineSet
355 -30 m 0,0,1
 277 -30 277 -30 250 41 c 128,-1,2
 228.558823529 97.3823529412 228.558823529 97.3823529412 228.558823529 223.133217993 c 0,0,0
 228.558823529 255.735294118 228.558823529 255.735294118 230 293 c 2,3,-1
 237 520 l 1,4,-1
 157 520 l 1,5,-1
 168 632 l 1,6,-1
 239 632 l 1,7,-1
 239 745 l 1,8,-1
 332 769 l 1,9,-1
 355 774 l 1,10,-1
 359 759 l 1,11,12
 348 740 348 740 340 721.5 c 128,-1,13
 332 703 332 703 332 662 c 2,14,-1
 332 632 l 1,15,-1
 426 632 l 1,16,-1
 413 520 l 1,17,-1
 330 520 l 1,18,-1
 324 310 l 2,19,20
 322.72 267.76 322.72 267.76 322.72 234.5824 c 0,0,0
 322.72 164.08 322.72 164.08 328.5 134.5 c 128,-1,21
 337 91 337 91 363 91 c 0,22,23
 388 91 388 91 417 117 c 1,24,-1
 450 210 l 1,25,-1
 457 230 l 1,26,-1
 469 224 l 1,27,28
 478 210 478 210 476.5 185.5 c 128,-1,29
 475 161 475 161 493 132 c 0,30,31
 504 108 504 108 523.5 95.5 c 128,-1,32
 543 83 543 83 573 83 c 0,33,34
 607 83 607 83 626 106.5 c 128,-1,35
 645 130 645 130 645 161 c 0,36,37
 645 196 645 196 633 224 c 128,-1,38
 621 252 621 252 571 275 c 0,39,40
 506 310 506 310 470 354 c 128,-1,41
 434 398 434 398 434 473 c 0,42,43
 434 556 434 556 474 601.5 c 128,-1,44
 514 647 514 647 575 647 c 0,45,46
 627 647 627 647 665 621.5 c 128,-1,47
 703 596 703 596 734 547 c 1,48,-1
 684 449 l 1,49,-1
 675 427 l 1,50,-1
 664 435 l 1,51,52
 664 452 664 452 662 469 c 128,-1,53
 660 486 660 486 643 508 c 1,54,55
 615 535 615 535 580 535 c 0,56,57
 526 535 526 535 525 476 c 0,58,59
 525 446 525 446 540.5 427 c 128,-1,60
 556 408 556 408 602 380 c 0,61,62
 675 338 675 338 705.5 293.5 c 128,-1,63
 736 249 736 249 736 179 c 0,64,65
 736 84 736 84 691.5 24.5 c 128,-1,66
 647 -35 647 -35 575 -35 c 0,67,68
 507 -35 507 -35 454 17 c 1,69,70
 409 -30 409 -30 355 -30 c 0,0,1
155 892 m 2,71,72
 233 892 233 892 262 962 c 128,-1,73
 291 1032 291 1032 291 1153 c 0,74,75
 291 1246 291 1246 260.5 1317.5 c 128,-1,76
 230 1389 230 1389 157 1389 c 2,77,-1
 140 1389 l 1,78,-1
 140 892 l 1,79,-1
 155 892 l 2,71,72
32 1521 m 1,80,-1
 162 1521 l 2,81,82
 240 1521 240 1521 292 1471 c 128,-1,83
 344 1421 344 1421 370 1338 c 128,-1,84
 396 1255 396 1255 396 1158 c 0,85,86
 396 995 396 995 338 882 c 128,-1,87
 280 769 280 769 168 769 c 2,88,-1
 140 769 l 1,89,-1
 140 0 l 1,90,-1
 32 0 l 1,91,-1
 32 1521 l 1,80,-1
EndSplineSet
EndChar

StartChar: uni20B1
Encoding: 8369 8369 610
Width: 689
VWidth: 2441
GlyphClass: 2
Flags: HW
AnchorPoint: "Anchor-2" 102 0 basechar 0
AnchorPoint: "Anchor-0" 329 1521 basechar 0
LayerCount: 2
Fore
SplineSet
173 813 m 1,0,-1
 325 813 l 2,1,2
 387 813 387 813 428 847 c 128,-1,3
 469 881 469 881 489 939 c 1,4,-1
 173 939 l 1,5,-1
 173 813 l 1,0,-1
512 1091 m 0,6,7
 512 1115 512 1115 510 1137 c 1,8,-1
 173 1137 l 1,9,-1
 173 1039 l 1,10,-1
 510 1039 l 1,11,12
 512 1064 512 1064 512 1091 c 0,6,7
173 1374 m 1,13,-1
 173 1237 l 1,14,-1
 493 1237 l 1,15,16
 452 1374 452 1374 327 1374 c 2,17,-1
 173 1374 l 1,13,-1
49 0 m 1,18,-1
 49 939 l 1,19,-1
 -14 939 l 1,20,-1
 -14 1039 l 1,21,-1
 49 1039 l 1,22,-1
 49 1137 l 1,23,-1
 -14 1137 l 1,24,-1
 -14 1237 l 1,25,-1
 49 1237 l 1,26,-1
 49 1521 l 1,27,-1
 329 1521 l 2,28,29
 455 1521 455 1521 527 1446.5 c 128,-1,30
 599 1372 599 1372 621 1237 c 1,31,-1
 690 1237 l 1,32,-1
 690 1137 l 1,33,-1
 631 1137 l 1,34,35
 633 1118 633 1118 633 1097 c 0,36,37
 633 1067 633 1067 631 1039 c 1,38,-1
 690 1039 l 1,39,-1
 690 939 l 1,40,-1
 619 939 l 1,41,42
 592 809 592 809 521 739 c 128,-1,43
 450 669 450 669 339 669 c 2,44,-1
 173 669 l 1,45,-1
 173 0 l 1,46,-1
 49 0 l 1,18,-1
EndSplineSet
EndChar

StartChar: uni20BD
Encoding: 8381 8381 611
Width: 795
VWidth: 2441
GlyphClass: 2
Flags: HW
AnchorPoint: "Anchor-2" 160 0 basechar 0
AnchorPoint: "Anchor-0" 406 1521 basechar 0
LayerCount: 2
Fore
SplineSet
236 813 m 1,0,-1
 402 813 l 2,1,2
 504 813 504 813 553 890 c 128,-1,3
 602 967 602 967 602 1091 c 0,4,5
 602 1226 602 1226 553 1300 c 128,-1,6
 504 1374 504 1374 404 1374 c 2,7,-1
 236 1374 l 1,8,-1
 236 813 l 1,0,-1
102 0 m 1,9,-1
 102 384 l 1,10,-1
 29 384 l 1,11,-1
 32 525 l 1,12,-1
 102 525 l 1,13,-1
 102 671 l 1,14,-1
 29 671 l 1,15,-1
 32 813 l 1,16,-1
 102 813 l 1,17,-1
 102 1521 l 1,18,-1
 406 1521 l 2,19,20
 576 1521 576 1521 654.5 1407 c 128,-1,21
 733 1293 733 1293 733 1097 c 0,22,23
 733 897 733 897 650.5 783 c 128,-1,24
 568 669 568 669 415 669 c 2,25,-1
 236 669 l 1,26,-1
 236 525 l 1,27,-1
 468 525 l 1,28,-1
 466 384 l 1,29,-1
 236 384 l 1,30,-1
 236 0 l 1,31,-1
 102 0 l 1,9,-1
EndSplineSet
EndChar

StartChar: uni20B9
Encoding: 8377 8377 612
Width: 765
VWidth: 2441
GlyphClass: 1
Flags: HW
LayerCount: 2
Fore
SplineSet
32 818 m 1,0,-1
 266 818 l 2,1,2
 359 818 359 818 406.5 869 c 128,-1,3
 454 920 454 920 466 1009 c 1,4,-1
 32 1009 l 1,5,-1
 32 1148 l 1,6,-1
 468 1148 l 1,7,8
 458 1241 458 1241 410.5 1303 c 128,-1,9
 363 1365 363 1365 266 1365 c 2,10,-1
 32 1365 l 1,11,-1
 32 1516 l 1,12,-1
 733 1516 l 1,13,-1
 733 1377 l 1,14,-1
 503 1377 l 1,15,16
 591 1294 591 1294 610 1148 c 1,17,-1
 733 1148 l 1,18,-1
 733 1009 l 1,19,-1
 613 1009 l 1,20,21
 601 899 601 899 542.5 809.5 c 128,-1,22
 484 720 484 720 396 691 c 1,23,-1
 642 0 l 1,24,-1
 493 0 l 1,25,-1
 258 676 l 1,26,-1
 32 676 l 1,27,-1
 32 818 l 1,0,-1
EndSplineSet
EndChar

StartChar: sterling
Encoding: 163 163 613
Width: 768
VWidth: 2441
GlyphClass: 1
Flags: HW
LayerCount: 2
Fore
SplineSet
86 -19 m 1,0,-1
 32 119 l 1,1,2
 99 168 99 168 134.5 221.5 c 128,-1,3
 170 275 170 275 184.5 351 c 128,-1,4
 199 427 199 427 199 542 c 0,5,6
 199 630 199 630 172 786 c 1,7,-1
 72 786 l 1,8,-1
 72 923 l 1,9,-1
 152 923 l 1,10,11
 141 1004 141 1004 140 1079 c 0,12,13
 140 1305 140 1305 227.5 1413 c 128,-1,14
 315 1521 315 1521 442 1521 c 128,-1,15
 569 1521 569 1521 661 1391 c 1,16,-1
 576 1270 l 1,17,18
 547 1319 547 1319 516.5 1351.5 c 128,-1,19
 486 1384 486 1384 420 1384 c 0,20,21
 355 1384 355 1384 314 1302.5 c 128,-1,22
 273 1221 273 1221 273 1081 c 0,23,24
 273 1049 273 1049 277.5 1010.5 c 128,-1,25
 282 972 282 972 288 923 c 1,26,-1
 488 923 l 1,27,-1
 488 786 l 1,28,-1
 310 786 l 1,29,30
 321 718 321 718 326 657 c 128,-1,31
 331 596 331 596 331 547 c 0,32,33
 331 454 331 454 320.5 366 c 128,-1,34
 310 278 310 278 280 207 c 1,35,36
 296.71641791 209.985074627 296.71641791 209.985074627 312.719982179 209.985074627 c 0,37,38
 350.328358209 209.985074627 350.328358209 209.985074627 384 193.5 c 0,39,40
 432 170 432 170 477.5 146 c 128,-1,41
 523 122 523 122 569 122 c 0,42,43
 600 122 600 122 635 135.5 c 128,-1,44
 670 149 670 149 696 181 c 1,45,-1
 736 42 l 1,46,47
 694 0 694 0 651.5 -18.5 c 128,-1,48
 609 -37 609 -37 567 -37 c 0,49,50
 527 -37 527 -37 473.5 -9 c 128,-1,51
 420 19 420 19 364 46 c 128,-1,52
 308 73 308 73 264 73 c 0,53,54
 229 73 229 73 186.5 50 c 128,-1,55
 144 27 144 27 86 -19 c 1,0,-1
EndSplineSet
EndChar

StartChar: uni20A9
Encoding: 8361 8361 614
Width: 719
VWidth: 2441
GlyphClass: 2
Flags: HW
AnchorPoint: "Anchor-2" 351 0 basechar 0
AnchorPoint: "Anchor-0" 360 1521 basechar 0
LayerCount: 2
Fore
SplineSet
504 564 m 1,0,-1
 514 710 l 1,1,-1
 482 710 l 1,2,-1
 504 564 l 1,0,-1
214 566 m 1,3,-1
 235 710 l 1,4,-1
 201 710 l 1,5,-1
 214 566 l 1,3,-1
353 950 m 1,6,-1
 332 808 l 1,7,-1
 373 808 l 1,8,-1
 353 950 l 1,6,-1
167 0 m 1,9,-1
 106 710 l 1,10,-1
 2 710 l 1,11,-1
 2 808 l 1,12,-1
 98 808 l 1,13,-1
 36 1521 l 1,14,-1
 136 1521 l 1,15,-1
 195 808 l 1,16,-1
 250 808 l 1,17,-1
 339 1409 l 1,18,-1
 379 1409 l 1,19,-1
 468 808 l 1,20,-1
 520 808 l 1,21,-1
 571 1521 l 1,22,-1
 665 1521 l 1,23,-1
 603 808 l 1,24,-1
 706 808 l 1,25,-1
 706 710 l 1,26,-1
 595 710 l 1,27,-1
 534 0 l 1,28,-1
 484 0 l 1,29,-1
 385 710 l 1,30,-1
 320 710 l 1,31,-1
 218 0 l 1,32,-1
 167 0 l 1,9,-1
EndSplineSet
EndChar

StartChar: yen
Encoding: 165 165 615
Width: 768
VWidth: 2441
GlyphClass: 1
Flags: HW
LayerCount: 2
Fore
SplineSet
464 0 m 1,0,-1
 329 0 l 1,1,-1
 329 240 l 1,2,-1
 112 240 l 1,3,-1
 112 376 l 1,4,-1
 329 376 l 1,5,-1
 329 529 l 1,6,-1
 112 529 l 1,7,-1
 112 669 l 1,8,-1
 329 669 l 1,9,-1
 329 720 l 1,10,-1
 32 1523 l 1,11,-1
 175 1523 l 1,12,-1
 397 904 l 1,13,-1
 600 1521 l 1,14,-1
 736 1521 l 1,15,-1
 464 720 l 1,16,-1
 464 669 l 1,17,-1
 670 669 l 1,18,-1
 670 529 l 1,19,-1
 464 529 l 1,20,-1
 464 376 l 1,21,-1
 670 376 l 1,22,-1
 670 240 l 1,23,-1
 464 240 l 1,24,-1
 464 0 l 1,0,-1
EndSplineSet
EndChar

StartChar: asteriskmath
Encoding: 8727 8727 616
Width: 768
VWidth: 2441
GlyphClass: 1
Flags: HW
LayerCount: 2
Fore
SplineSet
196 333 m 1,0,-1
 94 427 l 1,1,-1
 314 803 l 1,2,-1
 32 932 l 1,3,-1
 82 1074 l 1,4,-1
 337 908 l 1,5,-1
 314 1340 l 1,6,-1
 459 1340 l 1,7,-1
 427 908 l 1,8,-1
 691 1069 l 1,9,-1
 736 932 l 1,10,-1
 447 803 l 1,11,-1
 667 427 l 1,12,-1
 565 335 l 1,13,-1
 380 720 l 1,14,-1
 196 333 l 1,0,-1
EndSplineSet
EndChar

StartChar: uni2215
Encoding: 8725 8725 618
Width: 716
VWidth: 2408
GlyphClass: 1
Flags: HW
LayerCount: 2
Fore
SplineSet
141 -246 m 1,0,-1
 32 -215 l 1,1,-1
 574 1897 l 1,2,-1
 684 1863 l 1,3,-1
 141 -246 l 1,0,-1
EndSplineSet
EndChar

StartChar: element
Encoding: 8712 8712 619
Width: 768
VWidth: 2441
GlyphClass: 1
Flags: HW
LayerCount: 2
Fore
SplineSet
468 10 m 2,0,1
 263 10 263 10 147.5 149 c 128,-1,2
 32 288 32 288 32 550 c 0,3,4
 32 811 32 811 149 958.5 c 128,-1,5
 266 1106 266 1106 464 1106 c 2,6,-1
 736 1106 l 1,7,-1
 736 1009 l 1,8,-1
 490 1009 l 2,9,10
 325 1009 325 1009 233 904 c 128,-1,11
 141 799 141 799 132 601 c 1,12,-1
 736 601 l 1,13,-1
 736 503 l 1,14,-1
 132 503 l 1,15,16
 149 107 149 107 490 107 c 2,17,-1
 736 107 l 1,18,-1
 736 10 l 1,19,-1
 468 10 l 2,0,1
EndSplineSet
EndChar

StartChar: plus
Encoding: 43 43 621
Width: 768
VWidth: 2441
GlyphClass: 1
Flags: HW
LayerCount: 2
Fore
SplineSet
328 254 m 1,0,-1
 328 715 l 1,1,-1
 32 715 l 1,2,-1
 32 855 l 1,3,-1
 328 855 l 1,4,-1
 328 1277 l 1,5,-1
 453 1277 l 1,6,-1
 453 855 l 1,7,-1
 736 855 l 1,8,-1
 736 715 l 1,9,-1
 453 715 l 1,10,-1
 453 254 l 1,11,-1
 328 254 l 1,0,-1
EndSplineSet
EndChar

StartChar: minus
Encoding: 8722 8722 622
Width: 768
VWidth: 2441
GlyphClass: 1
Flags: HW
LayerCount: 2
Fore
SplineSet
32 715 m 1,0,-1
 32 855 l 1,1,-1
 736 855 l 1,2,-1
 736 715 l 1,3,-1
 32 715 l 1,0,-1
EndSplineSet
Substitution2: "'sups' Superscript in Latin lookup 20 subtable" uni207B
Substitution2: "'aalt' Access All Alternates in Latin lookup 0 subtable" uni207B
EndChar

StartChar: multiply
Encoding: 215 215 623
Width: 667
VWidth: 2441
GlyphClass: 1
Flags: HW
LayerCount: 2
Fore
SplineSet
540 340 m 1,0,-1
 328 669 l 1,1,-1
 117 349 l 1,2,-1
 32 457 l 1,3,-1
 249 792 l 1,4,-1
 32 1130 l 1,5,-1
 123 1242 l 1,6,-1
 330 916 l 1,7,-1
 542 1242 l 1,8,-1
 635 1135 l 1,9,-1
 410 794 l 1,10,-1
 629 452 l 1,11,-1
 540 340 l 1,0,-1
EndSplineSet
EndChar

StartChar: divide
Encoding: 247 247 624
Width: 679
VWidth: 2441
GlyphClass: 1
Flags: HW
LayerCount: 2
Fore
SplineSet
348 266 m 128,-1,1
 313 266 313 266 287.5 294 c 128,-1,2
 262 322 262 322 262 359 c 0,3,4
 262 401 262 401 287.5 429 c 128,-1,5
 313 457 313 457 348 457 c 128,-1,6
 383 457 383 457 406.5 427.5 c 128,-1,7
 430 398 430 398 430 359 c 0,8,9
 430 322 430 322 406.5 294 c 128,-1,0
 383 266 383 266 348 266 c 128,-1,1
32 685 m 1,10,-1
 32 850 l 1,11,-1
 647 850 l 1,12,-1
 647 685 l 1,13,-1
 32 685 l 1,10,-1
346 1067 m 0,14,15
 311 1067 311 1067 286.5 1095 c 128,-1,16
 262 1123 262 1123 262 1160 c 0,17,18
 262 1199 262 1199 287.5 1228.5 c 128,-1,19
 313 1258 313 1258 346 1258 c 0,20,21
 383 1258 383 1258 406.5 1228.5 c 128,-1,22
 430 1199 430 1199 430 1160 c 0,23,24
 430 1123 430 1123 406.5 1095 c 128,-1,25
 383 1067 383 1067 346 1067 c 0,14,15
EndSplineSet
EndChar

StartChar: equal
Encoding: 61 61 625
Width: 766
VWidth: 2441
GlyphClass: 1
Flags: HW
LayerCount: 2
Fore
SplineSet
32 447 m 1,0,-1
 32 591 l 1,1,-1
 734 591 l 1,2,-1
 734 447 l 1,3,-1
 32 447 l 1,0,-1
32 952 m 1,4,-1
 32 1097 l 1,5,-1
 734 1097 l 1,6,-1
 734 952 l 1,7,-1
 32 952 l 1,4,-1
EndSplineSet
EndChar

StartChar: notequal
Encoding: 8800 8800 626
Width: 766
VWidth: 2441
GlyphClass: 1
Flags: HW
LayerCount: 2
Fore
SplineSet
32 447 m 1,0,-1
 32 591 l 1,1,-1
 247 591 l 1,2,-1
 388 952 l 1,3,-1
 32 952 l 1,4,-1
 32 1097 l 1,5,-1
 447 1097 l 1,6,-1
 585 1458 l 1,7,-1
 688 1396 l 1,8,-1
 571 1097 l 1,9,-1
 734 1097 l 1,10,-1
 734 952 l 1,11,-1
 515 952 l 1,12,-1
 373 591 l 1,13,-1
 734 591 l 1,14,-1
 734 447 l 1,15,-1
 317 447 l 1,16,-1
 175 88 l 1,17,-1
 73 147 l 1,18,-1
 191 447 l 1,19,-1
 32 447 l 1,0,-1
EndSplineSet
EndChar

StartChar: greater
Encoding: 62 62 627
Width: 768
VWidth: 2441
GlyphClass: 1
Flags: HW
LayerCount: 2
Fore
SplineSet
32 114 m 1,0,-1
 32 300 l 1,1,-1
 601 778 l 1,2,-1
 34 1211 l 1,3,-1
 34 1384 l 1,4,-1
 736 834 l 1,5,-1
 736 727 l 1,6,-1
 32 114 l 1,0,-1
EndSplineSet
EndChar

StartChar: less
Encoding: 60 60 628
Width: 768
VWidth: 2441
GlyphClass: 1
Flags: HW
LayerCount: 2
Fore
SplineSet
736 114 m 1,0,-1
 32 727 l 1,1,-1
 32 834 l 1,2,-1
 734 1384 l 1,3,-1
 734 1211 l 1,4,-1
 167 778 l 1,5,-1
 736 300 l 1,6,-1
 736 114 l 1,0,-1
EndSplineSet
EndChar

StartChar: lessequal
Encoding: 8804 8804 630
Width: 768
VWidth: 2441
GlyphClass: 1
Flags: HW
LayerCount: 2
Fore
SplineSet
48 46 m 1,0,-1
 48 191 l 1,1,-1
 736 191 l 1,2,-1
 736 46 l 1,3,-1
 48 46 l 1,0,-1
736 261 m 1,4,-1
 32 747 l 1,5,-1
 32 864 l 1,6,-1
 736 1286 l 1,7,-1
 736 1113 l 1,8,-1
 164 806 l 1,9,-1
 736 429 l 1,10,-1
 736 261 l 1,4,-1
EndSplineSet
EndChar

StartChar: plusminus
Encoding: 177 177 631
Width: 766
VWidth: 2441
GlyphClass: 1
Flags: HW
LayerCount: 2
Fore
SplineSet
32 42 m 1,0,-1
 32 196 l 1,1,-1
 734 196 l 1,2,-1
 734 42 l 1,3,-1
 32 42 l 1,0,-1
317 378 m 1,4,-1
 317 837 l 1,5,-1
 32 837 l 1,6,-1
 32 986 l 1,7,-1
 317 986 l 1,8,-1
 317 1404 l 1,9,-1
 454 1404 l 1,10,-1
 454 986 l 1,11,-1
 732 986 l 1,12,-1
 732 837 l 1,13,-1
 454 837 l 1,14,-1
 454 378 l 1,15,-1
 317 378 l 1,4,-1
EndSplineSet
EndChar

StartChar: asciitilde
Encoding: 126 126 633
Width: 736
VWidth: 2441
GlyphClass: 1
Flags: HW
LayerCount: 2
Fore
SplineSet
509 650 m 0,0,1
 448 650 448 650 405 682.5 c 128,-1,2
 362 715 362 715 326.5 746.5 c 128,-1,3
 291 778 291 778 255 778 c 0,4,5
 218 778 218 778 190 755 c 128,-1,6
 162 732 162 732 132 666 c 1,7,-1
 32 720 l 1,8,9
 59 803 59 803 113 859.5 c 128,-1,10
 167 916 167 916 245 916 c 0,11,12
 308 916 308 916 348 882 c 128,-1,13
 388 848 388 848 423 812 c 128,-1,14
 458 776 458 776 499 776 c 0,15,16
 534 776 534 776 555.5 804 c 128,-1,17
 577 832 577 832 609 901 c 1,18,-1
 704 832 l 1,19,20
 660 729 660 729 616 689.5 c 128,-1,21
 572 650 572 650 509 650 c 0,0,1
EndSplineSet
Substitution2: "'ss01' Style Set 1 in Latin lookup 35 subtable" asciitilde.ss01
Substitution2: "'salt' Stylistic Alternatives in Latin lookup 34 subtable" asciitilde.ss01
Substitution2: "'aalt' Access All Alternates in Latin lookup 0 subtable" asciitilde.ss01
EndChar

StartChar: logicalnot
Encoding: 172 172 634
Width: 616
VWidth: 2441
GlyphClass: 1
Flags: HW
LayerCount: 2
Fore
SplineSet
444 384 m 1,0,-1
 444 694 l 1,1,-1
 32 694 l 1,2,-1
 32 848 l 1,3,-1
 584 848 l 1,4,-1
 584 384 l 1,5,-1
 444 384 l 1,0,-1
EndSplineSet
EndChar

StartChar: asciicircum
Encoding: 94 94 635
Width: 609
VWidth: 2441
GlyphClass: 1
Flags: HW
LayerCount: 2
Fore
SplineSet
132 837 m 1,0,-1
 32 883 l 1,1,-1
 295 1521 l 1,2,-1
 347 1521 l 1,3,-1
 577 886 l 1,4,-1
 474 837 l 1,5,-1
 312 1250 l 1,6,-1
 132 837 l 1,0,-1
EndSplineSet
Substitution2: "'ss01' Style Set 1 in Latin lookup 35 subtable" asciicircum.ss01
Substitution2: "'salt' Stylistic Alternatives in Latin lookup 34 subtable" asciicircum.ss01
Substitution2: "'aalt' Access All Alternates in Latin lookup 0 subtable" asciicircum.ss01
EndChar

StartChar: infinity
Encoding: 8734 8734 636
Width: 707
VWidth: 2441
GlyphClass: 1
Flags: HW
LayerCount: 2
Fore
SplineSet
596 737 m 0,0,1
 596 816 596 816 574 862 c 128,-1,2
 552 908 552 908 513 908 c 0,3,4
 449 908 449 908 401 737 c 1,5,6
 451 567 451 567 511 566 c 0,7,8
 555 566 555 566 575.5 615 c 128,-1,9
 596 664 596 664 596 737 c 0,0,1
292 740 m 1,10,11
 264 835 264 835 238 873 c 128,-1,12
 212 911 212 911 181 911 c 0,13,14
 139 911 139 911 116.5 863 c 128,-1,15
 94 815 94 815 94 740 c 128,-1,16
 94 665 94 665 117 617 c 128,-1,17
 140 569 140 569 181 569 c 0,18,19
 219 569 219 569 244 614 c 128,-1,20
 269 659 269 659 292 740 c 1,10,11
697 737 m 0,21,22
 697 605 697 605 646.5 514.5 c 128,-1,23
 596 424 596 424 519 424 c 0,24,25
 467 424 467 424 423 470.5 c 128,-1,26
 379 517 379 517 343 617 c 1,27,28
 268 424 268 424 170 424 c 0,29,30
 95 424 95 424 44 513.5 c 128,-1,31
 -7 603 -7 603 -7 737 c 0,32,33
 -7 874 -7 874 44.5 963.5 c 128,-1,34
 96 1053 96 1053 170 1053 c 0,35,36
 222 1053 222 1053 266.5 1010 c 128,-1,37
 311 967 311 967 346 859 c 1,38,39
 415 1052 415 1052 521 1053 c 0,40,41
 596 1053 596 1053 646.5 967 c 128,-1,42
 697 881 697 881 697 737 c 0,21,22
EndSplineSet
EndChar

StartChar: emptyset
Encoding: 8709 8709 637
Width: 717
VWidth: 2441
GlyphClass: 1
Flags: HW
LayerCount: 2
Fore
SplineSet
350 386 m 0,0,1
 418 386 418 386 469.5 442 c 128,-1,2
 521 498 521 498 549.5 591.5 c 128,-1,3
 578 685 578 685 578 796 c 0,4,5
 578 920 578 920 540 1023 c 1,6,-1
 203 484 l 1,7,8
 231 438 231 438 268.5 412 c 128,-1,9
 306 386 306 386 350 386 c 0,0,1
127 796 m 0,10,11
 127 672 127 672 161 569 c 1,12,-1
 500 1106 l 1,13,14
 470 1152 470 1152 432 1177 c 128,-1,15
 394 1202 394 1202 350 1202 c 0,16,17
 282 1202 282 1202 232 1146.5 c 128,-1,18
 182 1091 182 1091 154.5 998.5 c 128,-1,19
 127 906 127 906 127 796 c 0,10,11
58 254 m 1,20,-1
 0 317 l 1,21,-1
 94 464 l 1,22,23
 29 608 29 608 28 796 c 0,24,25
 28 945 28 945 69 1065.5 c 128,-1,26
 110 1186 110 1186 182.5 1258 c 128,-1,27
 255 1330 255 1330 350 1330 c 0,28,29
 413 1330 413 1330 467 1297.5 c 128,-1,30
 521 1265 521 1265 563 1209 c 1,31,-1
 647 1342 l 1,32,-1
 704 1279 l 1,33,-1
 609 1130 l 1,34,35
 677 986 677 986 677 796 c 0,36,37
 677 649 677 649 635 527 c 128,-1,38
 593 405 593 405 520.5 332 c 128,-1,39
 448 259 448 259 350 259 c 0,40,41
 287 259 287 259 233.5 291.5 c 128,-1,42
 180 324 180 324 140 384 c 1,43,-1
 58 254 l 1,20,-1
EndSplineSet
EndChar

StartChar: integral
Encoding: 8747 8747 638
Width: 598
VWidth: 2358
GlyphClass: 1
Flags: HW
LayerCount: 2
Fore
SplineSet
138 -246 m 0,0,1
 82 -246 82 -246 32 -218 c 1,2,-1
 32 -90 l 1,3,4
 76 -118 76 -118 125 -118 c 0,5,6
 179 -118 179 -118 209.5 -57 c 128,-1,7
 240 4 240 4 240 143 c 2,8,-1
 240 1465 l 2,9,10
 240 1667 240 1667 301 1761 c 128,-1,11
 362 1855 362 1855 471 1855 c 0,12,13
 501 1855 501 1855 524 1848 c 128,-1,14
 547 1841 547 1841 566 1830 c 1,15,-1
 566 1704 l 1,16,17
 524 1728 524 1728 480 1728 c 0,18,19
 419 1728 419 1728 391.5 1670 c 128,-1,20
 364 1612 364 1612 364 1448 c 2,21,-1
 364 128 l 2,22,23
 364 -63 364 -63 299 -154.5 c 128,-1,24
 234 -246 234 -246 138 -246 c 0,0,1
EndSplineSet
EndChar

StartChar: uni2126
Encoding: 8486 8486 639
Width: 733
VWidth: 2441
GlyphClass: 1
Flags: HW
LayerCount: 2
Fore
SplineSet
369 1489 m 0,0,1
 255 1489 255 1489 198 1323.5 c 128,-1,2
 141 1158 141 1158 141 840 c 0,3,4
 141 603 141 603 187 425 c 128,-1,5
 233 247 233 247 316 168 c 1,6,-1
 316 0 l 1,7,-1
 45 0 l 1,8,-1
 45 154 l 1,9,-1
 192 154 l 1,10,11
 112 247 112 247 63 428.5 c 128,-1,12
 14 610 14 610 14 862 c 0,13,14
 14 1277 14 1277 109.5 1462 c 128,-1,15
 205 1647 205 1647 369 1647 c 0,16,17
 528 1647 528 1647 623 1464 c 128,-1,18
 718 1281 718 1281 718 859 c 0,19,20
 718 615 718 615 669.5 429.5 c 128,-1,21
 621 244 621 244 538 154 c 1,22,-1
 689 154 l 1,23,-1
 689 0 l 1,24,-1
 414 0 l 1,25,-1
 414 168 l 1,26,27
 517 254 517 254 554.5 430 c 128,-1,28
 592 606 592 606 592 837 c 0,29,30
 592 1489 592 1489 369 1489 c 0,0,1
EndSplineSet
EndChar

StartChar: uni2206
Encoding: 8710 8710 640
Width: 768
VWidth: 2441
GlyphClass: 1
Flags: HW
LayerCount: 2
Fore
SplineSet
597 142 m 1,0,-1
 387 1407 l 1,1,-1
 171 142 l 1,2,-1
 597 142 l 1,0,-1
463 1624 m 1,3,-1
 736 107 l 1,4,-1
 736 2 l 1,5,-1
 32 2 l 1,6,-1
 32 110 l 1,7,-1
 309 1624 l 1,8,-1
 463 1624 l 1,3,-1
EndSplineSet
EndChar

StartChar: product
Encoding: 8719 8719 641
Width: 662
VWidth: 2339
GlyphClass: 1
Flags: HW
LayerCount: 2
Fore
SplineSet
32 -246 m 1,0,-1
 32 1521 l 1,1,-1
 630 1521 l 1,2,3
 630 1506 630 1506 625.5 1495 c 128,-1,4
 621 1484 621 1484 621 1473 c 2,5,-1
 621 -246 l 1,6,-1
 495 -246 l 1,7,-1
 495 1397 l 1,8,-1
 163 1397 l 1,9,-1
 163 -246 l 1,10,-1
 32 -246 l 1,0,-1
EndSplineSet
EndChar

StartChar: summation
Encoding: 8721 8721 642
Width: 725
VWidth: 2372
GlyphClass: 1
Flags: HW
LayerCount: 2
Fore
SplineSet
32 -246 m 1,0,-1
 32 -132 l 1,1,-1
 337 693 l 1,2,-1
 32 1503 l 1,3,-1
 32 1631 l 1,4,-1
 693 1631 l 1,5,-1
 693 1503 l 1,6,-1
 181 1503 l 1,7,-1
 476 698 l 1,8,-1
 169 -118 l 1,9,-1
 693 -118 l 1,10,-1
 693 -246 l 1,11,-1
 32 -246 l 1,0,-1
EndSplineSet
EndChar

StartChar: radical
Encoding: 8730 8730 643
Width: 687
VWidth: 2441
GlyphClass: 1
Flags: HW
LayerCount: 2
Fore
SplineSet
257 -17 m 1,0,-1
 102 699 l 1,1,-1
 -16 699 l 1,2,-1
 -16 827 l 1,3,-1
 182 827 l 1,4,-1
 304 237 l 1,5,-1
 578 1647 l 1,6,-1
 688 1647 l 1,7,-1
 356 -17 l 1,8,-1
 257 -17 l 1,0,-1
EndSplineSet
EndChar

StartChar: uni00B5
Encoding: 181 181 644
Width: 719
VWidth: 2299
GlyphClass: 1
Flags: HW
LayerCount: 2
Fore
SplineSet
10 -246 m 1,0,1
 10 -209 10 -209 13 -130.5 c 128,-1,2
 16 -52 16 -52 20.5 46.5 c 128,-1,3
 25 145 25 145 30 245 c 128,-1,4
 35 345 35 345 37 428.5 c 128,-1,5
 39 512 39 512 39 560 c 2,6,-1
 39 1116 l 1,7,-1
 159 1116 l 1,8,-1
 159 524 l 2,9,10
 159 343 159 343 193.5 277.5 c 128,-1,11
 228 212 228 212 284 212 c 0,12,13
 359 212 359 212 392 300.5 c 128,-1,14
 425 389 425 389 425 537 c 2,15,-1
 425 1116 l 1,16,-1
 543 1116 l 1,17,-1
 543 372 l 2,18,19
 543 297 543 297 552.5 259 c 128,-1,20
 562 221 562 221 592 221 c 0,21,22
 613 221 613 221 634.5 247 c 128,-1,23
 656 273 656 273 665 302 c 2,24,-1
 673 328 l 1,25,-1
 714 216 l 1,26,27
 659.454545455 96.9917355372 659.454545455 96.9917355372 584.254764019 96.9917355372 c 0,0,0
 583.628099174 96.9917355372 583.628099174 96.9917355372 583 97 c 0,28,29
 534 97 534 97 499.5 137 c 128,-1,30
 465 177 465 177 461 247 c 1,31,32
 435 170 435 170 384 133.5 c 128,-1,33
 333 97 333 97 277 97 c 0,34,35
 163 97 163 97 123 223 c 1,36,37
 123 98 123 98 123 -11.5 c 128,-1,38
 123 -121 123 -121 123 -246 c 1,39,-1
 10 -246 l 1,0,1
EndSplineSet
EndChar

StartChar: partialdiff
Encoding: 8706 8706 645
Width: 768
VWidth: 2441
GlyphClass: 1
Flags: HW
LayerCount: 2
Fore
SplineSet
342 107 m 0,0,1
 411 107 411 107 458.5 162 c 128,-1,2
 506 217 506 217 535 306.5 c 128,-1,3
 564 396 564 396 580.5 502 c 128,-1,4
 597 608 597 608 602 713 c 1,5,6
 523 967 523 967 389 967 c 0,7,8
 320 967 320 967 274 914.5 c 128,-1,9
 228 862 228 862 202.5 778 c 128,-1,10
 177 694 177 694 169 596 c 128,-1,11
 164.733333333 543.733333333 164.733333333 543.733333333 164.733333333 493.742222222 c 0,0,0
 164.733333333 450 164.733333333 450 168 408 c 0,12,13
 191 107 191 107 342 107 c 0,0,1
340 -27 m 0,14,15
 198 -27 198 -27 124 96 c 128,-1,16
 50 219 50 219 35 412 c 0,17,18
 31.693877551 455.714285714 31.693877551 455.714285714 31.693877551 499.765930862 c 0,0,0
 31.693877551 575.632653061 31.693877551 575.632653061 41.5 652.5 c 128,-1,19
 57 774 57 774 96 875 c 128,-1,20
 135 976 135 976 201.5 1037.5 c 128,-1,21
 268 1099 268 1099 360 1099 c 0,22,23
 442 1099 442 1099 502 1051.5 c 128,-1,24
 562 1004 562 1004 602 918 c 1,25,26
 604 953 604 953 601.5 973.5 c 128,-1,27
 599 994 599 994 597 1025 c 0,28,29
 586 1157 586 1157 560.5 1260 c 128,-1,30
 535 1363 535 1363 486 1421 c 128,-1,31
 437 1479 437 1479 354 1479 c 0,32,33
 310 1479 310 1479 257.5 1462 c 128,-1,34
 205 1445 205 1445 168 1411 c 1,35,-1
 157 1556 l 1,36,37
 206 1588 206 1588 256.5 1601 c 128,-1,38
 307 1614 307 1614 354 1614 c 0,39,40
 533 1614 533 1614 617 1468.5 c 128,-1,41
 701 1323 701 1323 727 1016 c 0,42,43
 735.827586207 909.517241379 735.827586207 909.517241379 735.827586207 805.317479191 c 0,0,0
 735.827586207 720.655172414 735.827586207 720.655172414 730 637.5 c 128,-1,44
 717 452 717 452 673.5 301.5 c 128,-1,45
 630 151 630 151 548 62 c 128,-1,46
 466 -27 466 -27 340 -27 c 0,14,15
EndSplineSet
EndChar

StartChar: percent
Encoding: 37 37 646
Width: 756
VWidth: 2441
GlyphClass: 1
Flags: HW
LayerCount: 2
Fore
SplineSet
560 93 m 0,0,1
 595 93 595 93 616.5 142 c 128,-1,2
 638 191 638 191 638 288 c 0,3,4
 638 374 638 374 618 431.5 c 128,-1,5
 598 489 598 489 558 489 c 0,6,7
 525 489 525 489 503.5 442.5 c 128,-1,8
 482 396 482 396 482 293 c 0,9,10
 482 188 482 188 505.5 140.5 c 128,-1,11
 529 93 529 93 560 93 c 0,0,1
560 -24 m 0,12,13
 485 -24 485 -24 435.5 61.5 c 128,-1,14
 386 147 386 147 386 291 c 128,-1,15
 386 435 386 435 436 521.5 c 128,-1,16
 486 608 486 608 560 608 c 0,17,18
 635 608 635 608 684.5 521.5 c 128,-1,19
 734 435 734 435 734 291 c 128,-1,20
 734 147 734 147 683.5 61.5 c 128,-1,21
 633 -24 633 -24 560 -24 c 0,12,13
206 1035 m 128,-1,23
 237 1035 237 1035 257.5 1080 c 128,-1,24
 278 1125 278 1125 278 1230 c 128,-1,25
 278 1335 278 1335 256 1380.5 c 128,-1,26
 234 1426 234 1426 204 1426 c 0,27,28
 173 1426 173 1426 152 1380.5 c 128,-1,29
 131 1335 131 1335 131 1230 c 0,30,31
 131 1127 131 1127 153 1081 c 128,-1,22
 175 1035 175 1035 206 1035 c 128,-1,23
56 0 m 1,32,-1
 587 1521 l 1,33,-1
 690 1521 l 1,34,-1
 155 0 l 1,35,-1
 56 0 l 1,32,-1
206 911 m 0,36,37
 131 911 131 911 80.5 996 c 128,-1,38
 30 1081 30 1081 30 1230 c 0,39,40
 30 1374 30 1374 80.5 1460.5 c 128,-1,41
 131 1547 131 1547 206 1547 c 128,-1,42
 281 1547 281 1547 331 1459.5 c 128,-1,43
 381 1372 381 1372 381 1228 c 0,44,45
 381 1079 381 1079 332 995 c 128,-1,46
 283 911 283 911 206 911 c 0,36,37
EndSplineSet
EndChar

StartChar: perthousand
Encoding: 8240 8240 647
Width: 761
VWidth: 2441
GlyphClass: 1
Flags: HW
LayerCount: 2
Fore
SplineSet
573 95 m 128,-1,1
 600 95 600 95 618 137 c 128,-1,2
 636 179 636 179 636 271 c 0,3,4
 636 364 636 364 615 405.5 c 128,-1,5
 594 447 594 447 569 447 c 128,-1,6
 544 447 544 447 524 405.5 c 128,-1,7
 504 364 504 364 504 271 c 128,-1,8
 504 178 504 178 525 136.5 c 128,-1,0
 546 95 546 95 573 95 c 128,-1,1
196 95 m 128,-1,10
 223 95 223 95 242.5 137 c 128,-1,11
 262 179 262 179 262 271 c 0,12,13
 262 364 262 364 241 405.5 c 128,-1,14
 220 447 220 447 194 447 c 0,15,16
 167 447 167 447 147.5 405.5 c 128,-1,17
 128 364 128 364 128 271 c 128,-1,18
 128 178 128 178 148.5 136.5 c 128,-1,9
 169 95 169 95 196 95 c 128,-1,10
573 -27 m 0,19,20
 508 -27 508 -27 460.5 52.5 c 128,-1,21
 413 132 413 132 413 271 c 0,22,23
 412.92 275.96 412.92 275.96 412.92 280.8584 c 0,0,0
 412.92 398.42 412.92 398.42 459 480.5 c 128,-1,24
 507 566 507 566 573 566 c 0,25,26
 636 566 636 566 684 485.5 c 128,-1,27
 730.08 408.22 730.08 408.22 730.08 278.8696 c 0,0,0
 730.08 273.48 730.08 273.48 730 268 c 0,28,29
 730 129 730 129 685 51 c 128,-1,30
 640 -27 640 -27 573 -27 c 0,19,20
196 -27 m 0,31,32
 131 -27 131 -27 84 52.5 c 128,-1,33
 37 132 37 132 37 271 c 0,34,35
 37 408 37 408 84 487 c 128,-1,36
 131 566 131 566 196 566 c 128,-1,37
 261 566 261 566 308.5 479.5 c 128,-1,38
 356 393 356 393 356 268 c 0,39,40
 356 126 356 126 309.5 49.5 c 128,-1,41
 263 -27 263 -27 196 -27 c 0,31,32
28 552 m 1,42,-1
 28 689 l 1,43,-1
 732 1323 l 1,44,-1
 732 1186 l 1,45,-1
 28 552 l 1,42,-1
196 1072 m 128,-1,47
 223 1072 223 1072 242.5 1113.5 c 128,-1,48
 262 1155 262 1155 262 1248 c 128,-1,49
 262 1341 262 1341 241 1382 c 128,-1,50
 220 1423 220 1423 194 1423 c 0,51,52
 167 1423 167 1423 147.5 1381.5 c 128,-1,53
 128 1340 128 1340 128 1248 c 0,54,55
 128 1155 128 1155 148.5 1113.5 c 128,-1,46
 169 1072 169 1072 196 1072 c 128,-1,47
196 950 m 0,56,57
 131 950 131 950 84 1029.5 c 128,-1,58
 37 1109 37 1109 37 1248 c 0,59,60
 37 1385 37 1385 84 1464 c 128,-1,61
 131 1543 131 1543 196 1543 c 128,-1,62
 261 1543 261 1543 308.5 1462.5 c 128,-1,63
 356 1382 356 1382 356 1245 c 0,64,65
 356 1103 356 1103 309.5 1026.5 c 128,-1,66
 263 950 263 950 196 950 c 0,56,57
EndSplineSet
EndChar

StartChar: circleplus
Encoding: 8853 8853 648
Width: 768
VWidth: 2441
GlyphClass: 1
Flags: HW
LayerCount: 2
Fore
SplineSet
345 415 m 1,0,-1
 345 713 l 1,1,-1
 166 713 l 1,2,-1
 166 806 l 1,3,-1
 345 806 l 1,4,-1
 345 1079 l 1,5,-1
 428 1079 l 1,6,-1
 428 806 l 1,7,-1
 602 806 l 1,8,-1
 602 713 l 1,9,-1
 428 713 l 1,10,-1
 428 415 l 1,11,-1
 345 415 l 1,0,-1
383 352 m 0,12,13
 458 352 458 352 518 405.5 c 128,-1,14
 578 459 578 459 614 549.5 c 128,-1,15
 650 640 650 640 650 752 c 128,-1,16
 650 864 650 864 614 954.5 c 128,-1,17
 578 1045 578 1045 518 1097.5 c 128,-1,18
 458 1150 458 1150 383 1150 c 0,19,20
 306 1150 306 1150 246.5 1097.5 c 128,-1,21
 187 1045 187 1045 151.5 954.5 c 128,-1,22
 116 864 116 864 116 752 c 128,-1,23
 116 640 116 640 151.5 549.5 c 128,-1,24
 187 459 187 459 246.5 405.5 c 128,-1,25
 306 352 306 352 383 352 c 0,12,13
383 256 m 0,26,27
 281 256 281 256 203 322.5 c 128,-1,28
 125 389 125 389 78.5 501 c 128,-1,29
 32 613 32 613 32 752 c 0,30,31
 32 894 32 894 78.5 1005 c 128,-1,32
 125 1116 125 1116 203.5 1182 c 128,-1,33
 282 1248 282 1248 383 1248 c 0,34,35
 482 1248 482 1248 562.5 1182 c 128,-1,36
 643 1116 643 1116 689.5 1005 c 128,-1,37
 736 894 736 894 736 752 c 0,38,39
 736 613 736 613 689.5 501 c 128,-1,40
 643 389 643 389 562.5 322.5 c 128,-1,41
 482 256 482 256 383 256 c 0,26,27
EndSplineSet
EndChar

StartChar: arrowup
Encoding: 8593 8593 651
Width: 718
VWidth: 2441
GlyphClass: 1
Flags: HW
LayerCount: 2
Fore
SplineSet
295 17 m 1,0,-1
 295 1065 l 1,1,-1
 120 769 l 1,2,-1
 32 843 l 1,3,-1
 351 1419 l 1,4,-1
 391 1419 l 1,5,-1
 686 837 l 1,6,-1
 593 769 l 1,7,-1
 428 1062 l 1,8,-1
 428 17 l 1,9,-1
 295 17 l 1,0,-1
EndSplineSet
EndChar

StartChar: uni2197
Encoding: 8599 8599 652
Width: 756
VWidth: 2441
GlyphClass: 1
Flags: HW
LayerCount: 2
Fore
SplineSet
19 356 m 1,0,-1
 517 1197 l 1,1,-1
 236 1142 l 1,2,-1
 227 1277 l 1,3,-1
 700 1367 l 1,4,-1
 723 1328 l 1,5,-1
 653 650 l 1,6,-1
 548 669 l 1,7,-1
 587 1074 l 1,8,-1
 97 275 l 1,9,-1
 19 356 l 1,0,-1
EndSplineSet
EndChar

StartChar: arrowright
Encoding: 8594 8594 653
Width: 785
VWidth: 2441
GlyphClass: 1
Flags: HW
LayerCount: 2
Fore
SplineSet
25 796 m 1,0,-1
 523 796 l 1,1,-1
 286 1101 l 1,2,-1
 365 1189 l 1,3,-1
 729 732 l 1,4,-1
 729 678 l 1,5,-1
 363 256 l 1,6,-1
 292 356 l 1,7,-1
 523 643 l 1,8,-1
 25 643 l 1,9,-1
 25 796 l 1,0,-1
EndSplineSet
EndChar

StartChar: arrowboth
Encoding: 8596 8596 659
Width: 713
VWidth: 2441
GlyphClass: 1
Flags: HW
LayerCount: 2
Fore
SplineSet
472 1191 m 1,0,-1
 700 740 l 1,1,-1
 700 685 l 1,2,-1
 468 259 l 1,3,-1
 392 366 l 1,4,-1
 529 645 l 1,5,-1
 164 645 l 1,6,-1
 306 366 l 1,7,-1
 229 259 l 1,8,-1
 -4 685 l 1,9,-1
 -4 740 l 1,10,-1
 225 1191 l 1,11,-1
 306 1101 l 1,12,-1
 162 799 l 1,13,-1
 531 799 l 1,14,-1
 392 1101 l 1,15,-1
 472 1191 l 1,0,-1
EndSplineSet
EndChar

StartChar: arrowupdn
Encoding: 8597 8597 660
Width: 740
VWidth: 2441
GlyphClass: 1
Flags: HW
LayerCount: 2
Fore
SplineSet
708 508 m 1,0,-1
 388 107 l 1,1,-1
 349 107 l 1,2,-1
 32 515 l 1,3,-1
 137 603 l 1,4,-1
 300 396 l 1,5,-1
 300 1055 l 1,6,-1
 137 832 l 1,7,-1
 42 939 l 1,8,-1
 349 1338 l 1,9,-1
 388 1338 l 1,10,-1
 708 943 l 1,11,-1
 622 832 l 1,12,-1
 444 1055 l 1,13,-1
 444 393 l 1,14,-1
 622 603 l 1,15,-1
 708 508 l 1,0,-1
EndSplineSet
EndChar

StartChar: uni21E7
Encoding: 8679 8679 661
Width: 768
VWidth: 2441
GlyphClass: 1
Flags: HW
LayerCount: 2
Fore
SplineSet
296 98 m 1,0,-1
 472 98 l 1,1,-1
 472 991 l 1,2,-1
 634 991 l 1,3,-1
 383 1400 l 1,4,-1
 148 991 l 1,5,-1
 296 991 l 1,6,-1
 296 98 l 1,0,-1
204 0 m 1,7,-1
 204 892 l 1,8,-1
 32 892 l 1,9,-1
 32 999 l 1,10,-1
 363 1553 l 1,11,-1
 407 1553 l 1,12,-1
 736 999 l 1,13,-1
 736 892 l 1,14,-1
 564 892 l 1,15,-1
 564 0 l 1,16,-1
 204 0 l 1,7,-1
EndSplineSet
EndChar

StartChar: uni21E8
Encoding: 8680 8680 662
Width: 713
VWidth: 2441
GlyphClass: 1
Flags: HW
LayerCount: 2
Fore
SplineSet
80 867 m 1,0,-1
 80 517 l 1,1,-1
 388 517 l 1,2,-1
 388 376 l 1,3,-1
 610 694 l 1,4,-1
 388 1020 l 1,5,-1
 388 867 l 1,6,-1
 80 867 l 1,0,-1
-4 964 m 1,7,-1
 302 964 l 1,8,-1
 302 1223 l 1,9,-1
 367 1223 l 1,10,-1
 700 725 l 1,11,-1
 700 659 l 1,12,-1
 367 163 l 1,13,-1
 302 163 l 1,14,-1
 302 420 l 1,15,-1
 -4 420 l 1,16,-1
 -4 964 l 1,7,-1
EndSplineSet
EndChar

StartChar: uni2B06
Encoding: 11014 11014 665
Width: 768
VWidth: 2441
GlyphClass: 1
Flags: HW
LayerCount: 2
Fore
SplineSet
736 999 m 1,0,-1
 736 892 l 1,1,-1
 564 892 l 1,2,-1
 564 0 l 1,3,-1
 204 0 l 1,4,-1
 204 892 l 1,5,-1
 32 892 l 1,6,-1
 32 999 l 1,7,-1
 363 1553 l 1,8,-1
 407 1553 l 1,9,-1
 736 999 l 1,0,-1
EndSplineSet
EndChar

StartChar: uni2B05
Encoding: 11013 11013 668
Width: 713
VWidth: 2441
GlyphClass: 1
Flags: HW
LayerCount: 2
Fore
SplineSet
700 420 m 1,0,-1
 394 420 l 1,1,-1
 394 163 l 1,2,-1
 330 163 l 1,3,-1
 -4 659 l 1,4,-1
 -4 725 l 1,5,-1
 330 1223 l 1,6,-1
 394 1223 l 1,7,-1
 394 964 l 1,8,-1
 700 964 l 1,9,-1
 700 420 l 1,0,-1
EndSplineSet
EndChar

StartChar: dneighthblock
Encoding: 9601 9601 669
Width: -576
VWidth: 2440
GlyphClass: 1
Flags: HW
LayerCount: 2
Fore
SplineSet
0 -246 m 1,0,-1
 0 -550 l 1,1,-1
 -608 -550 l 1,2,-1
 -608 -246 l 1,3,-1
 0 -246 l 1,0,-1
EndSplineSet
EndChar

StartChar: dnquarterblock
Encoding: 9602 9602 670
Width: 91
VWidth: 250
GlyphClass: 1
Flags: HW
LayerCount: 2
Fore
SplineSet
-32 -246 m 1,0,-1
 -32 -122 l 1,1,-1
 92 -122 l 1,2,-1
 92 -246 l 1,3,-1
 -32 -246 l 1,0,-1
EndSplineSet
EndChar

StartChar: dnthreeeighthsblock
Encoding: 9603 9603 671
Width: 332
VWidth: 1223
GlyphClass: 1
Flags: HW
LayerCount: 2
Fore
SplineSet
-34 -246 m 1,0,-1
 -34 305 l 1,1,-1
 334 305 l 1,2,-1
 334 -246 l 1,3,-1
 -34 -246 l 1,0,-1
EndSplineSet
EndChar

StartChar: dnhalfblock
Encoding: 9604 9604 672
Width: 454
VWidth: 1709
GlyphClass: 1
Flags: HW
LayerCount: 2
Fore
SplineSet
-33 -246 m 1,0,-1
 -33 732 l 1,1,-1
 456 732 l 1,2,-1
 456 -246 l 1,3,-1
 -33 -246 l 1,0,-1
EndSplineSet
EndChar

StartChar: dnfiveeighthsblock
Encoding: 9605 9605 673
Width: 527
VWidth: 2002
GlyphClass: 1
Flags: HW
LayerCount: 2
Fore
SplineSet
-34 -246 m 1,0,-1
 -34 1160 l 1,1,-1
 529 1160 l 1,2,-1
 529 -246 l 1,3,-1
 -34 -246 l 1,0,-1
EndSplineSet
EndChar

StartChar: dnthreequartersblock
Encoding: 9606 9606 674
Width: 574
VWidth: 2196
GlyphClass: 1
Flags: HW
LayerCount: 2
Fore
SplineSet
-34 -246 m 1,0,-1
 -34 1587 l 1,1,-1
 577 1587 l 1,2,-1
 577 -246 l 1,3,-1
 -34 -246 l 1,0,-1
EndSplineSet
EndChar

StartChar: dnseveneighthsblock
Encoding: 9607 9607 675
Width: 609
VWidth: 2335
GlyphClass: 1
Flags: HW
LayerCount: 2
Fore
SplineSet
-34 -246 m 1,0,-1
 -34 2015 l 1,1,-1
 612 2015 l 1,2,-1
 612 -246 l 1,3,-1
 -34 -246 l 1,0,-1
EndSplineSet
EndChar

StartChar: fullblock
Encoding: 9608 9608 676
Width: 635
VWidth: 2441
GlyphClass: 1
Flags: HW
LayerCount: 2
Fore
SplineSet
-34 -246 m 1,0,-1
 -34 2441 l 1,1,-1
 638 2441 l 1,2,-1
 638 -246 l 1,3,-1
 -34 -246 l 1,0,-1
EndSplineSet
EndChar

StartChar: uphalfblock
Encoding: 9600 9600 677
Width: 668
VWidth: 2441
GlyphClass: 1
Flags: HW
LayerCount: 2
Fore
SplineSet
-34 732 m 1,0,-1
 -34 2441 l 1,1,-1
 670 2441 l 1,2,-1
 670 732 l 1,3,-1
 -34 732 l 1,0,-1
EndSplineSet
EndChar

StartChar: upeighthblock
Encoding: 9620 9620 678
Width: 668
VWidth: 2441
GlyphClass: 1
Flags: HW
LayerCount: 2
Fore
SplineSet
-34 2015 m 1,0,-1
 -34 2441 l 1,1,-1
 670 2441 l 1,2,-1
 670 2015 l 1,3,-1
 -34 2015 l 1,0,-1
EndSplineSet
EndChar

StartChar: lefteighthblock
Encoding: 9615 9615 679
Width: 116
VWidth: 2441
GlyphClass: 1
Flags: HW
LayerCount: 2
Fore
SplineSet
0 -246 m 1,0,-1
 0 2441 l 1,1,-1
 84 2441 l 1,2,-1
 84 -246 l 1,3,-1
 0 -246 l 1,0,-1
EndSplineSet
EndChar

StartChar: leftquarterblock
Encoding: 9614 9614 680
Width: 201
VWidth: 2441
GlyphClass: 1
Flags: HW
LayerCount: 2
Fore
SplineSet
0 -246 m 1,0,-1
 0 2441 l 1,1,-1
 169 2441 l 1,2,-1
 169 -246 l 1,3,-1
 0 -246 l 1,0,-1
EndSplineSet
EndChar

StartChar: leftthreeeighthsblock
Encoding: 9613 9613 681
Width: 285
VWidth: 2441
GlyphClass: 1
Flags: HW
LayerCount: 2
Fore
SplineSet
0 -246 m 1,0,-1
 0 2441 l 1,1,-1
 253 2441 l 1,2,-1
 253 -246 l 1,3,-1
 0 -246 l 1,0,-1
EndSplineSet
EndChar

StartChar: lefthalfblock
Encoding: 9612 9612 682
Width: 368
VWidth: 2441
GlyphClass: 1
Flags: HW
LayerCount: 2
Fore
SplineSet
0 -246 m 1,0,-1
 0 2441 l 1,1,-1
 336 2441 l 1,2,-1
 336 -246 l 1,3,-1
 0 -246 l 1,0,-1
EndSplineSet
EndChar

StartChar: leftfiveeighthsblock
Encoding: 9611 9611 683
Width: 453
VWidth: 2441
GlyphClass: 1
Flags: HW
LayerCount: 2
Fore
SplineSet
0 -246 m 1,0,-1
 0 2441 l 1,1,-1
 421 2441 l 1,2,-1
 421 -246 l 1,3,-1
 0 -246 l 1,0,-1
EndSplineSet
EndChar

StartChar: leftthreequartersblock
Encoding: 9610 9610 684
Width: 537
VWidth: 2441
GlyphClass: 1
Flags: HW
LayerCount: 2
Fore
SplineSet
0 -246 m 1,0,-1
 0 2441 l 1,1,-1
 505 2441 l 1,2,-1
 505 -246 l 1,3,-1
 0 -246 l 1,0,-1
EndSplineSet
EndChar

StartChar: leftseveneighthsblock
Encoding: 9609 9609 685
Width: 622
VWidth: 2441
GlyphClass: 1
Flags: HW
LayerCount: 2
Fore
SplineSet
0 -246 m 1,0,-1
 0 2441 l 1,1,-1
 590 2441 l 1,2,-1
 590 -246 l 1,3,-1
 0 -246 l 1,0,-1
EndSplineSet
EndChar

StartChar: righthalfblock
Encoding: 9616 9616 686
Width: 702
VWidth: 2441
GlyphClass: 1
Flags: HW
LayerCount: 2
Fore
SplineSet
32 -246 m 1,0,-1
 32 2441 l 1,1,-1
 369 2441 l 1,2,-1
 369 -246 l 1,3,-1
 32 -246 l 1,0,-1
EndSplineSet
EndChar

StartChar: righteighthblock
Encoding: 9621 9621 687
Width: 702
VWidth: 2441
GlyphClass: 1
Flags: HW
LayerCount: 2
Fore
SplineSet
32 -246 m 1,0,-1
 32 2441 l 1,1,-1
 114 2441 l 1,2,-1
 114 -246 l 1,3,-1
 32 -246 l 1,0,-1
EndSplineSet
EndChar

StartChar: dnleftquadrant
Encoding: 9622 9622 688
Width: 276
VWidth: 1709
GlyphClass: 1
Flags: HW
LayerCount: 2
Fore
SplineSet
0 -246 m 1,0,-1
 0 732 l 1,1,-1
 244 732 l 1,2,-1
 244 -246 l 1,3,-1
 0 -246 l 1,0,-1
EndSplineSet
EndChar

StartChar: dnrightquadrant
Encoding: 9623 9623 689
Width: 520
VWidth: 1709
GlyphClass: 1
Flags: HW
LayerCount: 2
Fore
SplineSet
32 -246 m 1,0,-1
 32 732 l 1,1,-1
 277 732 l 1,2,-1
 277 -246 l 1,3,-1
 32 -246 l 1,0,-1
EndSplineSet
EndChar

StartChar: upleftquadrant
Encoding: 9624 9624 690
Width: 459
VWidth: 2441
GlyphClass: 1
Flags: HW
LayerCount: 2
Fore
SplineSet
0 732 m 1,0,-1
 0 2441 l 1,1,-1
 427 2441 l 1,2,-1
 427 732 l 1,3,-1
 0 732 l 1,0,-1
EndSplineSet
EndChar

StartChar: upleftdnleftdnrightquadrant
Encoding: 9625 9625 691
Width: 635
VWidth: 2441
GlyphClass: 1
Flags: HW
LayerCount: 2
Fore
SplineSet
-34 -246 m 1,0,-1
 -34 2441 l 1,1,-1
 301 2441 l 1,2,-1
 301 1097 l 1,3,-1
 638 1097 l 1,4,-1
 638 -246 l 1,5,-1
 -34 -246 l 1,0,-1
EndSplineSet
EndChar

StartChar: upleftdnrightquadrant
Encoding: 9626 9626 692
Width: 635
VWidth: 2441
GlyphClass: 1
Flags: HW
LayerCount: 2
Fore
SplineSet
301 1097 m 1,0,-1
 638 1097 l 1,1,-1
 638 -246 l 1,2,-1
 301 -246 l 1,3,-1
 301 1097 l 1,0,-1
301 1097 m 1,4,-1
 -34 1097 l 1,5,-1
 -34 2441 l 1,6,-1
 301 2441 l 1,7,-1
 301 1097 l 1,4,-1
EndSplineSet
EndChar

StartChar: upleftuprightdnleftquadrant
Encoding: 9627 9627 693
Width: 635
VWidth: 2441
GlyphClass: 1
Flags: HW
LayerCount: 2
Fore
SplineSet
-34 -246 m 1,0,-1
 -34 2441 l 1,1,-1
 638 2441 l 1,2,-1
 638 1097 l 1,3,-1
 301 1097 l 1,4,-1
 301 -246 l 1,5,-1
 -34 -246 l 1,0,-1
EndSplineSet
EndChar

StartChar: upleftuprightdnrightquadrant
Encoding: 9628 9628 694
Width: 635
VWidth: 2441
GlyphClass: 1
Flags: HW
LayerCount: 2
Fore
SplineSet
301 -246 m 1,0,-1
 301 1097 l 1,1,-1
 -34 1097 l 1,2,-1
 -34 2441 l 1,3,-1
 638 2441 l 1,4,-1
 638 -246 l 1,5,-1
 301 -246 l 1,0,-1
EndSplineSet
EndChar

StartChar: uprightquadrant
Encoding: 9629 9629 695
Width: 885
VWidth: 2441
GlyphClass: 1
Flags: HW
LayerCount: 2
Fore
SplineSet
32 732 m 1,0,-1
 32 2441 l 1,1,-1
 460 2441 l 1,2,-1
 460 732 l 1,3,-1
 32 732 l 1,0,-1
EndSplineSet
EndChar

StartChar: uprightdnleftquadrant
Encoding: 9630 9630 696
Width: 635
VWidth: 2441
GlyphClass: 1
Flags: HW
LayerCount: 2
Fore
SplineSet
-34 -246 m 1,0,-1
 -34 1097 l 1,1,-1
 301 1097 l 1,2,-1
 301 -246 l 1,3,-1
 -34 -246 l 1,0,-1
301 1097 m 1,4,-1
 301 2441 l 1,5,-1
 638 2441 l 1,6,-1
 638 1097 l 1,7,-1
 301 1097 l 1,4,-1
EndSplineSet
EndChar

StartChar: uprightdnleftdnrightquadrant
Encoding: 9631 9631 697
Width: 635
VWidth: 2441
GlyphClass: 1
Flags: HW
LayerCount: 2
Fore
SplineSet
-34 -246 m 1,0,-1
 -34 1097 l 1,1,-1
 301 1097 l 1,2,-1
 301 2441 l 1,3,-1
 638 2441 l 1,4,-1
 638 -246 l 1,5,-1
 -34 -246 l 1,0,-1
EndSplineSet
EndChar

StartChar: lightshade
Encoding: 9617 9617 698
Width: 668
VWidth: 2427
GlyphClass: 1
Flags: HW
LayerCount: 2
Fore
SplineSet
13 -246 m 1
 13 -149 l 1
 81 -149 l 1
 81 -246 l 1
 13 -246 l 1
239 -246 m 1
 239 -149 l 1
 307 -149 l 1
 307 -246 l 1
 239 -246 l 1
467 -246 m 1
 467 -149 l 1
 534 -149 l 1
 534 -246 l 1
 467 -246 l 1
125 -51 m 1
 125 46 l 1
 194 46 l 1
 194 -51 l 1
 125 -51 l 1
353 -51 m 1
 353 46 l 1
 422 46 l 1
 422 -51 l 1
 353 -51 l 1
580 -51 m 1
 580 46 l 1
 647 46 l 1
 647 -51 l 1
 580 -51 l 1
13 143 m 1
 13 240 l 1
 81 240 l 1
 81 143 l 1
 13 143 l 1
239 143 m 1
 239 240 l 1
 307 240 l 1
 307 143 l 1
 239 143 l 1
467 143 m 1
 467 240 l 1
 534 240 l 1
 534 143 l 1
 467 143 l 1
580 337 m 1
 580 435 l 1
 647 435 l 1
 647 337 l 1
 580 337 l 1
353 337 m 1
 353 435 l 1
 422 435 l 1
 422 337 l 1
 353 337 l 1
125 337 m 1
 125 435 l 1
 194 435 l 1
 194 337 l 1
 125 337 l 1
13 532 m 1
 13 630 l 1
 81 630 l 1
 81 532 l 1
 13 532 l 1
239 532 m 1
 239 630 l 1
 307 630 l 1
 307 532 l 1
 239 532 l 1
467 532 m 1
 467 630 l 1
 534 630 l 1
 534 532 l 1
 467 532 l 1
125 727 m 1
 125 824 l 1
 194 824 l 1
 194 727 l 1
 125 727 l 1
353 727 m 1
 353 824 l 1
 422 824 l 1
 422 727 l 1
 353 727 l 1
580 727 m 1
 580 824 l 1
 647 824 l 1
 647 727 l 1
 580 727 l 1
13 921 m 1
 13 1018 l 1
 81 1018 l 1
 81 921 l 1
 13 921 l 1
239 921 m 1
 239 1018 l 1
 307 1018 l 1
 307 921 l 1
 239 921 l 1
467 921 m 1
 467 1018 l 1
 534 1018 l 1
 534 921 l 1
 467 921 l 1
125 1116 m 1
 125 1213 l 1
 194 1213 l 1
 194 1116 l 1
 125 1116 l 1
353 1116 m 1
 353 1213 l 1
 422 1213 l 1
 422 1116 l 1
 353 1116 l 1
580 1116 m 1
 580 1213 l 1
 647 1213 l 1
 647 1116 l 1
 580 1116 l 1
13 1310 m 1
 13 1408 l 1
 81 1408 l 1
 81 1310 l 1
 13 1310 l 1
239 1310 m 1
 239 1408 l 1
 307 1408 l 1
 307 1310 l 1
 239 1310 l 1
467 1310 m 1
 467 1408 l 1
 534 1408 l 1
 534 1310 l 1
 467 1310 l 1
125 1505 m 1
 125 1603 l 1
 194 1603 l 1
 194 1505 l 1
 125 1505 l 1
353 1505 m 1
 353 1603 l 1
 422 1603 l 1
 422 1505 l 1
 353 1505 l 1
580 1505 m 1
 580 1603 l 1
 647 1603 l 1
 647 1505 l 1
 580 1505 l 1
467 1699 m 1
 467 1796 l 1
 534 1796 l 1
 534 1699 l 1
 467 1699 l 1
239 1699 m 1
 239 1796 l 1
 307 1796 l 1
 307 1699 l 1
 239 1699 l 1
13 1699 m 1
 13 1796 l 1
 81 1796 l 1
 81 1699 l 1
 13 1699 l 1
125 1894 m 1
 125 1991 l 1
 194 1991 l 1
 194 1894 l 1
 125 1894 l 1
353 1894 m 1
 353 1991 l 1
 422 1991 l 1
 422 1894 l 1
 353 1894 l 1
580 1894 m 1
 580 1991 l 1
 647 1991 l 1
 647 1894 l 1
 580 1894 l 1
13 2089 m 1
 13 2186 l 1
 81 2186 l 1
 81 2089 l 1
 13 2089 l 1
239 2089 m 1
 239 2186 l 1
 307 2186 l 1
 307 2089 l 1
 239 2089 l 1
467 2089 m 1
 467 2186 l 1
 534 2186 l 1
 534 2089 l 1
 467 2089 l 1
125 2283 m 1
 125 2381 l 1
 194 2381 l 1
 194 2283 l 1
 125 2283 l 1
353 2283 m 1
 353 2381 l 1
 422 2381 l 1
 422 2283 l 1
 353 2283 l 1
580 2283 m 1
 580 2381 l 1
 647 2381 l 1
 647 2283 l 1
 580 2283 l 1
EndSplineSet
EndChar

StartChar: mediumshade
Encoding: 9618 9618 699
Width: 642
VWidth: 2435
GlyphClass: 1
Flags: HW
LayerCount: 2
Fore
SplineSet
-30 -246 m 1
 -30 -91 l 1
 79 -91 l 1
 79 -246 l 1
 -30 -246 l 1
196 -246 m 1
 196 -91 l 1
 304 -91 l 1
 304 -246 l 1
 196 -246 l 1
422 -246 m 1
 422 -91 l 1
 530 -91 l 1
 530 -246 l 1
 422 -246 l 1
84 -53 m 1
 84 102 l 1
 193 102 l 1
 193 -53 l 1
 84 -53 l 1
308 -53 m 1
 308 102 l 1
 416 102 l 1
 416 -53 l 1
 308 -53 l 1
534 -53 m 1
 534 102 l 1
 642 102 l 1
 642 -53 l 1
 534 -53 l 1
-30 140 m 1
 -30 295 l 1
 79 295 l 1
 79 140 l 1
 -30 140 l 1
196 140 m 1
 196 295 l 1
 304 295 l 1
 304 140 l 1
 196 140 l 1
422 140 m 1
 422 295 l 1
 530 295 l 1
 530 140 l 1
 422 140 l 1
534 333 m 1
 534 488 l 1
 642 488 l 1
 642 333 l 1
 534 333 l 1
308 333 m 1
 308 488 l 1
 416 488 l 1
 416 333 l 1
 308 333 l 1
84 333 m 1
 84 488 l 1
 193 488 l 1
 193 333 l 1
 84 333 l 1
-30 526 m 1
 -30 680 l 1
 79 680 l 1
 79 526 l 1
 -30 526 l 1
196 526 m 1
 196 680 l 1
 304 680 l 1
 304 526 l 1
 196 526 l 1
422 526 m 1
 422 680 l 1
 530 680 l 1
 530 526 l 1
 422 526 l 1
84 719 m 1
 84 873 l 1
 193 873 l 1
 193 719 l 1
 84 719 l 1
308 719 m 1
 308 873 l 1
 416 873 l 1
 416 719 l 1
 308 719 l 1
534 719 m 1
 534 873 l 1
 642 873 l 1
 642 719 l 1
 534 719 l 1
-30 912 m 1
 -30 1066 l 1
 79 1066 l 1
 79 912 l 1
 -30 912 l 1
196 912 m 1
 196 1066 l 1
 304 1066 l 1
 304 912 l 1
 196 912 l 1
422 912 m 1
 422 1066 l 1
 530 1066 l 1
 530 912 l 1
 422 912 l 1
84 1105 m 1
 84 1260 l 1
 193 1260 l 1
 193 1105 l 1
 84 1105 l 1
308 1105 m 1
 308 1260 l 1
 416 1260 l 1
 416 1105 l 1
 308 1105 l 1
534 1105 m 1
 534 1260 l 1
 642 1260 l 1
 642 1105 l 1
 534 1105 l 1
-30 1298 m 1
 -30 1453 l 1
 79 1453 l 1
 79 1298 l 1
 -30 1298 l 1
196 1298 m 1
 196 1453 l 1
 304 1453 l 1
 304 1298 l 1
 196 1298 l 1
422 1298 m 1
 422 1453 l 1
 530 1453 l 1
 530 1298 l 1
 422 1298 l 1
84 1490 m 1
 84 1645 l 1
 193 1645 l 1
 193 1490 l 1
 84 1490 l 1
308 1490 m 1
 308 1645 l 1
 416 1645 l 1
 416 1490 l 1
 308 1490 l 1
534 1490 m 1
 534 1645 l 1
 642 1645 l 1
 642 1490 l 1
 534 1490 l 1
422 1684 m 1
 422 1838 l 1
 530 1838 l 1
 530 1684 l 1
 422 1684 l 1
196 1684 m 1
 196 1838 l 1
 304 1838 l 1
 304 1684 l 1
 196 1684 l 1
-30 1684 m 1
 -30 1838 l 1
 79 1838 l 1
 79 1684 l 1
 -30 1684 l 1
84 1877 m 1
 84 2031 l 1
 193 2031 l 1
 193 1877 l 1
 84 1877 l 1
308 1877 m 1
 308 2031 l 1
 416 2031 l 1
 416 1877 l 1
 308 1877 l 1
534 1877 m 1
 534 2031 l 1
 642 2031 l 1
 642 1877 l 1
 534 1877 l 1
-30 2070 m 1
 -30 2224 l 1
 79 2224 l 1
 79 2070 l 1
 -30 2070 l 1
196 2070 m 1
 196 2224 l 1
 304 2224 l 1
 304 2070 l 1
 196 2070 l 1
422 2070 m 1
 422 2224 l 1
 530 2224 l 1
 530 2070 l 1
 422 2070 l 1
84 2263 m 1
 84 2418 l 1
 193 2418 l 1
 193 2263 l 1
 84 2263 l 1
308 2263 m 1
 308 2418 l 1
 416 2418 l 1
 416 2263 l 1
 308 2263 l 1
534 2263 m 1
 534 2418 l 1
 642 2418 l 1
 642 2263 l 1
 534 2263 l 1
EndSplineSet
EndChar

